G04 #@! TF.GenerationSoftware,KiCad,Pcbnew,(5.1.9)-1*
G04 #@! TF.CreationDate,2021-02-04T21:44:10+01:00*
G04 #@! TF.ProjectId,Makrokeyboard,4d616b72-6f6b-4657-9962-6f6172642e6b,rev?*
G04 #@! TF.SameCoordinates,Original*
G04 #@! TF.FileFunction,Legend,Bot*
G04 #@! TF.FilePolarity,Positive*
%FSLAX46Y46*%
G04 Gerber Fmt 4.6, Leading zero omitted, Abs format (unit mm)*
G04 Created by KiCad (PCBNEW (5.1.9)-1) date 2021-02-04 21:44:10*
%MOMM*%
%LPD*%
G01*
G04 APERTURE LIST*
%ADD10C,0.150000*%
%ADD11C,0.120000*%
%ADD12C,0.050800*%
%ADD13C,0.127000*%
%ADD14C,0.050000*%
G04 APERTURE END LIST*
D10*
X153421428Y-38652380D02*
X153421428Y-37652380D01*
X153088095Y-38366666D01*
X152754761Y-37652380D01*
X152754761Y-38652380D01*
X152088095Y-37652380D02*
X151897619Y-37652380D01*
X151802380Y-37700000D01*
X151707142Y-37795238D01*
X151659523Y-37985714D01*
X151659523Y-38319047D01*
X151707142Y-38509523D01*
X151802380Y-38604761D01*
X151897619Y-38652380D01*
X152088095Y-38652380D01*
X152183333Y-38604761D01*
X152278571Y-38509523D01*
X152326190Y-38319047D01*
X152326190Y-37985714D01*
X152278571Y-37795238D01*
X152183333Y-37700000D01*
X152088095Y-37652380D01*
X151278571Y-38604761D02*
X151135714Y-38652380D01*
X150897619Y-38652380D01*
X150802380Y-38604761D01*
X150754761Y-38557142D01*
X150707142Y-38461904D01*
X150707142Y-38366666D01*
X150754761Y-38271428D01*
X150802380Y-38223809D01*
X150897619Y-38176190D01*
X151088095Y-38128571D01*
X151183333Y-38080952D01*
X151230952Y-38033333D01*
X151278571Y-37938095D01*
X151278571Y-37842857D01*
X151230952Y-37747619D01*
X151183333Y-37700000D01*
X151088095Y-37652380D01*
X150850000Y-37652380D01*
X150707142Y-37700000D01*
X150278571Y-38652380D02*
X150278571Y-37652380D01*
X153085714Y-40771428D02*
X152323809Y-40771428D01*
X152704761Y-41152380D02*
X152704761Y-40390476D01*
X151371428Y-40152380D02*
X151847619Y-40152380D01*
X151895238Y-40628571D01*
X151847619Y-40580952D01*
X151752380Y-40533333D01*
X151514285Y-40533333D01*
X151419047Y-40580952D01*
X151371428Y-40628571D01*
X151323809Y-40723809D01*
X151323809Y-40961904D01*
X151371428Y-41057142D01*
X151419047Y-41104761D01*
X151514285Y-41152380D01*
X151752380Y-41152380D01*
X151847619Y-41104761D01*
X151895238Y-41057142D01*
X151038095Y-40152380D02*
X150704761Y-41152380D01*
X150371428Y-40152380D01*
X144371428Y-41302380D02*
X144371428Y-40302380D01*
X144038095Y-41016666D01*
X143704761Y-40302380D01*
X143704761Y-41302380D01*
X143228571Y-41302380D02*
X143228571Y-40302380D01*
X142800000Y-41254761D02*
X142657142Y-41302380D01*
X142419047Y-41302380D01*
X142323809Y-41254761D01*
X142276190Y-41207142D01*
X142228571Y-41111904D01*
X142228571Y-41016666D01*
X142276190Y-40921428D01*
X142323809Y-40873809D01*
X142419047Y-40826190D01*
X142609523Y-40778571D01*
X142704761Y-40730952D01*
X142752380Y-40683333D01*
X142800000Y-40588095D01*
X142800000Y-40492857D01*
X142752380Y-40397619D01*
X142704761Y-40350000D01*
X142609523Y-40302380D01*
X142371428Y-40302380D01*
X142228571Y-40350000D01*
X141609523Y-40302380D02*
X141419047Y-40302380D01*
X141323809Y-40350000D01*
X141228571Y-40445238D01*
X141180952Y-40635714D01*
X141180952Y-40969047D01*
X141228571Y-41159523D01*
X141323809Y-41254761D01*
X141419047Y-41302380D01*
X141609523Y-41302380D01*
X141704761Y-41254761D01*
X141800000Y-41159523D01*
X141847619Y-40969047D01*
X141847619Y-40635714D01*
X141800000Y-40445238D01*
X141704761Y-40350000D01*
X141609523Y-40302380D01*
X143845238Y-38557142D02*
X143892857Y-38604761D01*
X144035714Y-38652380D01*
X144130952Y-38652380D01*
X144273809Y-38604761D01*
X144369047Y-38509523D01*
X144416666Y-38414285D01*
X144464285Y-38223809D01*
X144464285Y-38080952D01*
X144416666Y-37890476D01*
X144369047Y-37795238D01*
X144273809Y-37700000D01*
X144130952Y-37652380D01*
X144035714Y-37652380D01*
X143892857Y-37700000D01*
X143845238Y-37747619D01*
X142940476Y-38652380D02*
X143416666Y-38652380D01*
X143416666Y-37652380D01*
X142607142Y-38652380D02*
X142607142Y-37652380D01*
X142035714Y-38652380D02*
X142464285Y-38080952D01*
X142035714Y-37652380D02*
X142607142Y-38223809D01*
X143797619Y-36052380D02*
X144130952Y-35576190D01*
X144369047Y-36052380D02*
X144369047Y-35052380D01*
X143988095Y-35052380D01*
X143892857Y-35100000D01*
X143845238Y-35147619D01*
X143797619Y-35242857D01*
X143797619Y-35385714D01*
X143845238Y-35480952D01*
X143892857Y-35528571D01*
X143988095Y-35576190D01*
X144369047Y-35576190D01*
X143416666Y-36004761D02*
X143273809Y-36052380D01*
X143035714Y-36052380D01*
X142940476Y-36004761D01*
X142892857Y-35957142D01*
X142845238Y-35861904D01*
X142845238Y-35766666D01*
X142892857Y-35671428D01*
X142940476Y-35623809D01*
X143035714Y-35576190D01*
X143226190Y-35528571D01*
X143321428Y-35480952D01*
X143369047Y-35433333D01*
X143416666Y-35338095D01*
X143416666Y-35242857D01*
X143369047Y-35147619D01*
X143321428Y-35100000D01*
X143226190Y-35052380D01*
X142988095Y-35052380D01*
X142845238Y-35100000D01*
X142559523Y-35052380D02*
X141988095Y-35052380D01*
X142273809Y-36052380D02*
X142273809Y-35052380D01*
X150700000Y-34638095D02*
X150652380Y-34542857D01*
X150652380Y-34400000D01*
X150700000Y-34257142D01*
X150795238Y-34161904D01*
X150890476Y-34114285D01*
X151080952Y-34066666D01*
X151223809Y-34066666D01*
X151414285Y-34114285D01*
X151509523Y-34161904D01*
X151604761Y-34257142D01*
X151652380Y-34400000D01*
X151652380Y-34495238D01*
X151604761Y-34638095D01*
X151557142Y-34685714D01*
X151223809Y-34685714D01*
X151223809Y-34495238D01*
X151652380Y-35114285D02*
X150652380Y-35114285D01*
X151652380Y-35685714D01*
X150652380Y-35685714D01*
X151652380Y-36161904D02*
X150652380Y-36161904D01*
X150652380Y-36400000D01*
X150700000Y-36542857D01*
X150795238Y-36638095D01*
X150890476Y-36685714D01*
X151080952Y-36733333D01*
X151223809Y-36733333D01*
X151414285Y-36685714D01*
X151509523Y-36638095D01*
X151604761Y-36542857D01*
X151652380Y-36400000D01*
X151652380Y-36161904D01*
D11*
X149940000Y-41960000D02*
X149940000Y-34340000D01*
X149940000Y-34340000D02*
X144860000Y-34340000D01*
X144860000Y-34340000D02*
X144860000Y-41960000D01*
X144860000Y-41960000D02*
X149940000Y-41960000D01*
X150321000Y-42468000D02*
X150956000Y-42468000D01*
X150956000Y-42468000D02*
X151083000Y-42468000D01*
X150702000Y-42849000D02*
X150702000Y-42087000D01*
X114641421Y-40750000D02*
G75*
G03*
X114641421Y-40750000I-141421J0D01*
G01*
D12*
X112619000Y-98008000D02*
X113381000Y-98008000D01*
X112619000Y-96992000D02*
X113381000Y-96992000D01*
X112619000Y-98262000D02*
X113381000Y-98262000D01*
X113381000Y-98262000D02*
X113381000Y-96738000D01*
X113381000Y-96738000D02*
X112619000Y-96738000D01*
X112619000Y-96738000D02*
X112619000Y-98262000D01*
X132619000Y-98258000D02*
X133381000Y-98258000D01*
X132619000Y-97242000D02*
X133381000Y-97242000D01*
X132619000Y-98512000D02*
X133381000Y-98512000D01*
X133381000Y-98512000D02*
X133381000Y-96988000D01*
X133381000Y-96988000D02*
X132619000Y-96988000D01*
X132619000Y-96988000D02*
X132619000Y-98512000D01*
X152619000Y-98008000D02*
X153381000Y-98008000D01*
X152619000Y-96992000D02*
X153381000Y-96992000D01*
X152619000Y-98262000D02*
X153381000Y-98262000D01*
X153381000Y-98262000D02*
X153381000Y-96738000D01*
X153381000Y-96738000D02*
X152619000Y-96738000D01*
X152619000Y-96738000D02*
X152619000Y-98262000D01*
X172619000Y-98008000D02*
X173381000Y-98008000D01*
X172619000Y-96992000D02*
X173381000Y-96992000D01*
X172619000Y-98262000D02*
X173381000Y-98262000D01*
X173381000Y-98262000D02*
X173381000Y-96738000D01*
X173381000Y-96738000D02*
X172619000Y-96738000D01*
X172619000Y-96738000D02*
X172619000Y-98262000D01*
X192619000Y-98008000D02*
X193381000Y-98008000D01*
X192619000Y-96992000D02*
X193381000Y-96992000D01*
X192619000Y-98262000D02*
X193381000Y-98262000D01*
X193381000Y-98262000D02*
X193381000Y-96738000D01*
X193381000Y-96738000D02*
X192619000Y-96738000D01*
X192619000Y-96738000D02*
X192619000Y-98262000D01*
D11*
X189500000Y-34650000D02*
X189500000Y-37850000D01*
X194500000Y-34650000D02*
X189500000Y-34650000D01*
X194500000Y-37850000D02*
X194500000Y-34650000D01*
X189500000Y-37850000D02*
X194500000Y-37850000D01*
D13*
X121120000Y-31250000D02*
X131280000Y-31250000D01*
X131280000Y-31250000D02*
X131280000Y-38870000D01*
X131280000Y-38870000D02*
X121120000Y-38870000D01*
X121120000Y-38870000D02*
X121120000Y-31250000D01*
D11*
X170462048Y-43250000D02*
G75*
G03*
X170462048Y-43250000I-326009J0D01*
G01*
X176500000Y-36178932D02*
X169428932Y-43250000D01*
X183571068Y-43250000D02*
X176500000Y-36178932D01*
X176500000Y-50321068D02*
X183571068Y-43250000D01*
X169428932Y-43250000D02*
X176500000Y-50321068D01*
X137785000Y-45175000D02*
X137785000Y-46825000D01*
X139785000Y-45175000D02*
X139785000Y-46825000D01*
X140385000Y-46825000D02*
X140385000Y-45175000D01*
X137185000Y-46825000D02*
X140385000Y-46825000D01*
X137185000Y-45175000D02*
X137185000Y-46825000D01*
X140385000Y-45175000D02*
X137185000Y-45175000D01*
D12*
X181089803Y-34878618D02*
X181628618Y-34339803D01*
X180371382Y-34160197D02*
X180910197Y-33621382D01*
X181269408Y-35058223D02*
X181808223Y-34519408D01*
X181808223Y-34519408D02*
X180730592Y-33441777D01*
X180730592Y-33441777D02*
X180191777Y-33980592D01*
X180191777Y-33980592D02*
X181269408Y-35058223D01*
D11*
X130100000Y-43825000D02*
X130100000Y-42175000D01*
X128100000Y-43825000D02*
X128100000Y-42175000D01*
X127500000Y-42175000D02*
X127500000Y-43825000D01*
X130700000Y-42175000D02*
X127500000Y-42175000D01*
X130700000Y-43825000D02*
X130700000Y-42175000D01*
X127500000Y-43825000D02*
X130700000Y-43825000D01*
X130100000Y-46075000D02*
X130100000Y-44425000D01*
X128100000Y-46075000D02*
X128100000Y-44425000D01*
X127500000Y-44425000D02*
X127500000Y-46075000D01*
X130700000Y-44425000D02*
X127500000Y-44425000D01*
X130700000Y-46075000D02*
X130700000Y-44425000D01*
X127500000Y-46075000D02*
X130700000Y-46075000D01*
X186241421Y-51150000D02*
G75*
G03*
X186241421Y-51150000I-141421J0D01*
G01*
X186241421Y-91150000D02*
G75*
G03*
X186241421Y-91150000I-141421J0D01*
G01*
X166241421Y-51150000D02*
G75*
G03*
X166241421Y-51150000I-141421J0D01*
G01*
X166241421Y-91150000D02*
G75*
G03*
X166241421Y-91150000I-141421J0D01*
G01*
X146241421Y-51150000D02*
G75*
G03*
X146241421Y-51150000I-141421J0D01*
G01*
X146241421Y-91150000D02*
G75*
G03*
X146241421Y-91150000I-141421J0D01*
G01*
X126241421Y-51150000D02*
G75*
G03*
X126241421Y-51150000I-141421J0D01*
G01*
X126241421Y-91150000D02*
G75*
G03*
X126241421Y-91150000I-141421J0D01*
G01*
X106241421Y-51150000D02*
G75*
G03*
X106241421Y-51150000I-141421J0D01*
G01*
X106241421Y-91150000D02*
G75*
G03*
X106241421Y-91150000I-141421J0D01*
G01*
X112041421Y-74350000D02*
G75*
G03*
X112041421Y-74350000I-141421J0D01*
G01*
X112041421Y-114350000D02*
G75*
G03*
X112041421Y-114350000I-141421J0D01*
G01*
X132041421Y-74350000D02*
G75*
G03*
X132041421Y-74350000I-141421J0D01*
G01*
X132041421Y-114350000D02*
G75*
G03*
X132041421Y-114350000I-141421J0D01*
G01*
X152041421Y-74350000D02*
G75*
G03*
X152041421Y-74350000I-141421J0D01*
G01*
X152041421Y-114350000D02*
G75*
G03*
X152041421Y-114350000I-141421J0D01*
G01*
X172041421Y-74350000D02*
G75*
G03*
X172041421Y-74350000I-141421J0D01*
G01*
X172041421Y-114350000D02*
G75*
G03*
X172041421Y-114350000I-141421J0D01*
G01*
X192041421Y-74350000D02*
G75*
G03*
X192041421Y-74350000I-141421J0D01*
G01*
X192041421Y-114350000D02*
G75*
G03*
X192041421Y-114350000I-141421J0D01*
G01*
X138050000Y-39800000D02*
X134550000Y-39800000D01*
X138050000Y-43300000D02*
X134550000Y-43300000D01*
X112500000Y-67750000D02*
X112500000Y-67000000D01*
X110500000Y-67750000D02*
X112500000Y-67750000D01*
X110500000Y-67000000D02*
X110500000Y-67750000D01*
X110875000Y-66600000D02*
X112125000Y-66600000D01*
X110875000Y-65400000D02*
X112125000Y-65400000D01*
X112125000Y-65000000D02*
X110875000Y-65000000D01*
X112125000Y-65000000D02*
X112125000Y-67000000D01*
X110875000Y-67000000D02*
X112125000Y-67000000D01*
X110875000Y-65000000D02*
X110875000Y-67000000D01*
X112500000Y-87750000D02*
X112500000Y-87000000D01*
X110500000Y-87750000D02*
X112500000Y-87750000D01*
X110500000Y-87000000D02*
X110500000Y-87750000D01*
X110875000Y-86600000D02*
X112125000Y-86600000D01*
X110875000Y-85400000D02*
X112125000Y-85400000D01*
X112125000Y-85000000D02*
X110875000Y-85000000D01*
X112125000Y-85000000D02*
X112125000Y-87000000D01*
X110875000Y-87000000D02*
X112125000Y-87000000D01*
X110875000Y-85000000D02*
X110875000Y-87000000D01*
X112500000Y-107750000D02*
X112500000Y-107000000D01*
X110500000Y-107750000D02*
X112500000Y-107750000D01*
X110500000Y-107000000D02*
X110500000Y-107750000D01*
X110875000Y-106600000D02*
X112125000Y-106600000D01*
X110875000Y-105400000D02*
X112125000Y-105400000D01*
X112125000Y-105000000D02*
X110875000Y-105000000D01*
X112125000Y-105000000D02*
X112125000Y-107000000D01*
X110875000Y-107000000D02*
X112125000Y-107000000D01*
X110875000Y-105000000D02*
X110875000Y-107000000D01*
X112500000Y-127750000D02*
X112500000Y-127000000D01*
X110500000Y-127750000D02*
X112500000Y-127750000D01*
X110500000Y-127000000D02*
X110500000Y-127750000D01*
X110875000Y-126600000D02*
X112125000Y-126600000D01*
X110875000Y-125400000D02*
X112125000Y-125400000D01*
X112125000Y-125000000D02*
X110875000Y-125000000D01*
X112125000Y-125000000D02*
X112125000Y-127000000D01*
X110875000Y-127000000D02*
X112125000Y-127000000D01*
X110875000Y-125000000D02*
X110875000Y-127000000D01*
X132500000Y-67750000D02*
X132500000Y-67000000D01*
X130500000Y-67750000D02*
X132500000Y-67750000D01*
X130500000Y-67000000D02*
X130500000Y-67750000D01*
X130875000Y-66600000D02*
X132125000Y-66600000D01*
X130875000Y-65400000D02*
X132125000Y-65400000D01*
X132125000Y-65000000D02*
X130875000Y-65000000D01*
X132125000Y-65000000D02*
X132125000Y-67000000D01*
X130875000Y-67000000D02*
X132125000Y-67000000D01*
X130875000Y-65000000D02*
X130875000Y-67000000D01*
X132500000Y-87750000D02*
X132500000Y-87000000D01*
X130500000Y-87750000D02*
X132500000Y-87750000D01*
X130500000Y-87000000D02*
X130500000Y-87750000D01*
X130875000Y-86600000D02*
X132125000Y-86600000D01*
X130875000Y-85400000D02*
X132125000Y-85400000D01*
X132125000Y-85000000D02*
X130875000Y-85000000D01*
X132125000Y-85000000D02*
X132125000Y-87000000D01*
X130875000Y-87000000D02*
X132125000Y-87000000D01*
X130875000Y-85000000D02*
X130875000Y-87000000D01*
X132500000Y-107750000D02*
X132500000Y-107000000D01*
X130500000Y-107750000D02*
X132500000Y-107750000D01*
X130500000Y-107000000D02*
X130500000Y-107750000D01*
X130875000Y-106600000D02*
X132125000Y-106600000D01*
X130875000Y-105400000D02*
X132125000Y-105400000D01*
X132125000Y-105000000D02*
X130875000Y-105000000D01*
X132125000Y-105000000D02*
X132125000Y-107000000D01*
X130875000Y-107000000D02*
X132125000Y-107000000D01*
X130875000Y-105000000D02*
X130875000Y-107000000D01*
X132500000Y-127750000D02*
X132500000Y-127000000D01*
X130500000Y-127750000D02*
X132500000Y-127750000D01*
X130500000Y-127000000D02*
X130500000Y-127750000D01*
X130875000Y-126600000D02*
X132125000Y-126600000D01*
X130875000Y-125400000D02*
X132125000Y-125400000D01*
X132125000Y-125000000D02*
X130875000Y-125000000D01*
X132125000Y-125000000D02*
X132125000Y-127000000D01*
X130875000Y-127000000D02*
X132125000Y-127000000D01*
X130875000Y-125000000D02*
X130875000Y-127000000D01*
X152500000Y-67750000D02*
X152500000Y-67000000D01*
X150500000Y-67750000D02*
X152500000Y-67750000D01*
X150500000Y-67000000D02*
X150500000Y-67750000D01*
X150875000Y-66600000D02*
X152125000Y-66600000D01*
X150875000Y-65400000D02*
X152125000Y-65400000D01*
X152125000Y-65000000D02*
X150875000Y-65000000D01*
X152125000Y-65000000D02*
X152125000Y-67000000D01*
X150875000Y-67000000D02*
X152125000Y-67000000D01*
X150875000Y-65000000D02*
X150875000Y-67000000D01*
X152500000Y-87750000D02*
X152500000Y-87000000D01*
X150500000Y-87750000D02*
X152500000Y-87750000D01*
X150500000Y-87000000D02*
X150500000Y-87750000D01*
X150875000Y-86600000D02*
X152125000Y-86600000D01*
X150875000Y-85400000D02*
X152125000Y-85400000D01*
X152125000Y-85000000D02*
X150875000Y-85000000D01*
X152125000Y-85000000D02*
X152125000Y-87000000D01*
X150875000Y-87000000D02*
X152125000Y-87000000D01*
X150875000Y-85000000D02*
X150875000Y-87000000D01*
X152500000Y-107750000D02*
X152500000Y-107000000D01*
X150500000Y-107750000D02*
X152500000Y-107750000D01*
X150500000Y-107000000D02*
X150500000Y-107750000D01*
X150875000Y-106600000D02*
X152125000Y-106600000D01*
X150875000Y-105400000D02*
X152125000Y-105400000D01*
X152125000Y-105000000D02*
X150875000Y-105000000D01*
X152125000Y-105000000D02*
X152125000Y-107000000D01*
X150875000Y-107000000D02*
X152125000Y-107000000D01*
X150875000Y-105000000D02*
X150875000Y-107000000D01*
X152500000Y-127750000D02*
X152500000Y-127000000D01*
X150500000Y-127750000D02*
X152500000Y-127750000D01*
X150500000Y-127000000D02*
X150500000Y-127750000D01*
X150875000Y-126600000D02*
X152125000Y-126600000D01*
X150875000Y-125400000D02*
X152125000Y-125400000D01*
X152125000Y-125000000D02*
X150875000Y-125000000D01*
X152125000Y-125000000D02*
X152125000Y-127000000D01*
X150875000Y-127000000D02*
X152125000Y-127000000D01*
X150875000Y-125000000D02*
X150875000Y-127000000D01*
X172500000Y-67750000D02*
X172500000Y-67000000D01*
X170500000Y-67750000D02*
X172500000Y-67750000D01*
X170500000Y-67000000D02*
X170500000Y-67750000D01*
X170875000Y-66600000D02*
X172125000Y-66600000D01*
X170875000Y-65400000D02*
X172125000Y-65400000D01*
X172125000Y-65000000D02*
X170875000Y-65000000D01*
X172125000Y-65000000D02*
X172125000Y-67000000D01*
X170875000Y-67000000D02*
X172125000Y-67000000D01*
X170875000Y-65000000D02*
X170875000Y-67000000D01*
X172500000Y-87750000D02*
X172500000Y-87000000D01*
X170500000Y-87750000D02*
X172500000Y-87750000D01*
X170500000Y-87000000D02*
X170500000Y-87750000D01*
X170875000Y-86600000D02*
X172125000Y-86600000D01*
X170875000Y-85400000D02*
X172125000Y-85400000D01*
X172125000Y-85000000D02*
X170875000Y-85000000D01*
X172125000Y-85000000D02*
X172125000Y-87000000D01*
X170875000Y-87000000D02*
X172125000Y-87000000D01*
X170875000Y-85000000D02*
X170875000Y-87000000D01*
X172500000Y-107750000D02*
X172500000Y-107000000D01*
X170500000Y-107750000D02*
X172500000Y-107750000D01*
X170500000Y-107000000D02*
X170500000Y-107750000D01*
X170875000Y-106600000D02*
X172125000Y-106600000D01*
X170875000Y-105400000D02*
X172125000Y-105400000D01*
X172125000Y-105000000D02*
X170875000Y-105000000D01*
X172125000Y-105000000D02*
X172125000Y-107000000D01*
X170875000Y-107000000D02*
X172125000Y-107000000D01*
X170875000Y-105000000D02*
X170875000Y-107000000D01*
X172500000Y-127750000D02*
X172500000Y-127000000D01*
X170500000Y-127750000D02*
X172500000Y-127750000D01*
X170500000Y-127000000D02*
X170500000Y-127750000D01*
X170875000Y-126600000D02*
X172125000Y-126600000D01*
X170875000Y-125400000D02*
X172125000Y-125400000D01*
X172125000Y-125000000D02*
X170875000Y-125000000D01*
X172125000Y-125000000D02*
X172125000Y-127000000D01*
X170875000Y-127000000D02*
X172125000Y-127000000D01*
X170875000Y-125000000D02*
X170875000Y-127000000D01*
X192500000Y-67750000D02*
X192500000Y-67000000D01*
X190500000Y-67750000D02*
X192500000Y-67750000D01*
X190500000Y-67000000D02*
X190500000Y-67750000D01*
X190875000Y-66600000D02*
X192125000Y-66600000D01*
X190875000Y-65400000D02*
X192125000Y-65400000D01*
X192125000Y-65000000D02*
X190875000Y-65000000D01*
X192125000Y-65000000D02*
X192125000Y-67000000D01*
X190875000Y-67000000D02*
X192125000Y-67000000D01*
X190875000Y-65000000D02*
X190875000Y-67000000D01*
X192500000Y-87750000D02*
X192500000Y-87000000D01*
X190500000Y-87750000D02*
X192500000Y-87750000D01*
X190500000Y-87000000D02*
X190500000Y-87750000D01*
X190875000Y-86600000D02*
X192125000Y-86600000D01*
X190875000Y-85400000D02*
X192125000Y-85400000D01*
X192125000Y-85000000D02*
X190875000Y-85000000D01*
X192125000Y-85000000D02*
X192125000Y-87000000D01*
X190875000Y-87000000D02*
X192125000Y-87000000D01*
X190875000Y-85000000D02*
X190875000Y-87000000D01*
X192500000Y-107750000D02*
X192500000Y-107000000D01*
X190500000Y-107750000D02*
X192500000Y-107750000D01*
X190500000Y-107000000D02*
X190500000Y-107750000D01*
X190875000Y-106600000D02*
X192125000Y-106600000D01*
X190875000Y-105400000D02*
X192125000Y-105400000D01*
X192125000Y-105000000D02*
X190875000Y-105000000D01*
X192125000Y-105000000D02*
X192125000Y-107000000D01*
X190875000Y-107000000D02*
X192125000Y-107000000D01*
X190875000Y-105000000D02*
X190875000Y-107000000D01*
X191000000Y-127750000D02*
X191000000Y-127000000D01*
X189000000Y-127750000D02*
X191000000Y-127750000D01*
X189000000Y-127000000D02*
X189000000Y-127750000D01*
X189375000Y-126600000D02*
X190625000Y-126600000D01*
X189375000Y-125400000D02*
X190625000Y-125400000D01*
X190625000Y-125000000D02*
X189375000Y-125000000D01*
X190625000Y-125000000D02*
X190625000Y-127000000D01*
X189375000Y-127000000D02*
X190625000Y-127000000D01*
X189375000Y-125000000D02*
X189375000Y-127000000D01*
X115175000Y-101500000D02*
X116825000Y-101500000D01*
X115175000Y-99500000D02*
X116825000Y-99500000D01*
X116825000Y-98900000D02*
X115175000Y-98900000D01*
X116825000Y-102100000D02*
X116825000Y-98900000D01*
X115175000Y-102100000D02*
X116825000Y-102100000D01*
X115175000Y-98900000D02*
X115175000Y-102100000D01*
X135175000Y-101500000D02*
X136825000Y-101500000D01*
X135175000Y-99500000D02*
X136825000Y-99500000D01*
X136825000Y-98900000D02*
X135175000Y-98900000D01*
X136825000Y-102100000D02*
X136825000Y-98900000D01*
X135175000Y-102100000D02*
X136825000Y-102100000D01*
X135175000Y-98900000D02*
X135175000Y-102100000D01*
X155175000Y-101500000D02*
X156825000Y-101500000D01*
X155175000Y-99500000D02*
X156825000Y-99500000D01*
X156825000Y-98900000D02*
X155175000Y-98900000D01*
X156825000Y-102100000D02*
X156825000Y-98900000D01*
X155175000Y-102100000D02*
X156825000Y-102100000D01*
X155175000Y-98900000D02*
X155175000Y-102100000D01*
X175175000Y-101500000D02*
X176825000Y-101500000D01*
X175175000Y-99500000D02*
X176825000Y-99500000D01*
X176825000Y-98900000D02*
X175175000Y-98900000D01*
X176825000Y-102100000D02*
X176825000Y-98900000D01*
X175175000Y-102100000D02*
X176825000Y-102100000D01*
X175175000Y-98900000D02*
X175175000Y-102100000D01*
X195175000Y-101500000D02*
X196825000Y-101500000D01*
X195175000Y-99500000D02*
X196825000Y-99500000D01*
X196825000Y-98900000D02*
X195175000Y-98900000D01*
X196825000Y-102100000D02*
X196825000Y-98900000D01*
X195175000Y-102100000D02*
X196825000Y-102100000D01*
X195175000Y-98900000D02*
X195175000Y-102100000D01*
X194500000Y-41575000D02*
X194500000Y-39925000D01*
X192500000Y-41575000D02*
X192500000Y-39925000D01*
X191900000Y-39925000D02*
X191900000Y-41575000D01*
X195100000Y-39925000D02*
X191900000Y-39925000D01*
X195100000Y-41575000D02*
X195100000Y-39925000D01*
X191900000Y-41575000D02*
X195100000Y-41575000D01*
X186175000Y-36750000D02*
X187825000Y-36750000D01*
X186175000Y-34750000D02*
X187825000Y-34750000D01*
X187825000Y-34150000D02*
X186175000Y-34150000D01*
X187825000Y-37350000D02*
X187825000Y-34150000D01*
X186175000Y-37350000D02*
X187825000Y-37350000D01*
X186175000Y-34150000D02*
X186175000Y-37350000D01*
X138100000Y-38775000D02*
X138100000Y-37125000D01*
X136100000Y-38775000D02*
X136100000Y-37125000D01*
X135500000Y-37125000D02*
X135500000Y-38775000D01*
X138700000Y-37125000D02*
X135500000Y-37125000D01*
X138700000Y-38775000D02*
X138700000Y-37125000D01*
X135500000Y-38775000D02*
X138700000Y-38775000D01*
X165175000Y-40250000D02*
X166825000Y-40250000D01*
X165175000Y-38250000D02*
X166825000Y-38250000D01*
X166825000Y-37650000D02*
X165175000Y-37650000D01*
X166825000Y-40850000D02*
X166825000Y-37650000D01*
X165175000Y-40850000D02*
X166825000Y-40850000D01*
X165175000Y-37650000D02*
X165175000Y-40850000D01*
X166825000Y-43750000D02*
X165175000Y-43750000D01*
X166825000Y-45750000D02*
X165175000Y-45750000D01*
X165175000Y-46350000D02*
X166825000Y-46350000D01*
X165175000Y-43150000D02*
X165175000Y-46350000D01*
X166825000Y-43150000D02*
X165175000Y-43150000D01*
X166825000Y-46350000D02*
X166825000Y-43150000D01*
D10*
X113195238Y-35702380D02*
X113671428Y-35702380D01*
X113671428Y-34702380D01*
X112861904Y-35178571D02*
X112528571Y-35178571D01*
X112385714Y-35702380D02*
X112861904Y-35702380D01*
X112861904Y-34702380D01*
X112385714Y-34702380D01*
X111957142Y-35702380D02*
X111957142Y-34702380D01*
X111719047Y-34702380D01*
X111576190Y-34750000D01*
X111480952Y-34845238D01*
X111433333Y-34940476D01*
X111385714Y-35130952D01*
X111385714Y-35273809D01*
X111433333Y-35464285D01*
X111480952Y-35559523D01*
X111576190Y-35654761D01*
X111719047Y-35702380D01*
X111957142Y-35702380D01*
X111004761Y-34797619D02*
X110957142Y-34750000D01*
X110861904Y-34702380D01*
X110623809Y-34702380D01*
X110528571Y-34750000D01*
X110480952Y-34797619D01*
X110433333Y-34892857D01*
X110433333Y-34988095D01*
X110480952Y-35130952D01*
X111052380Y-35702380D01*
X110433333Y-35702380D01*
X109480952Y-35702380D02*
X110052380Y-35702380D01*
X109766666Y-35702380D02*
X109766666Y-34702380D01*
X109861904Y-34845238D01*
X109957142Y-34940476D01*
X110052380Y-34988095D01*
X114976380Y-96650761D02*
X114976380Y-96079333D01*
X114976380Y-96365047D02*
X113976380Y-96365047D01*
X114119238Y-96269809D01*
X114214476Y-96174571D01*
X114262095Y-96079333D01*
X113976380Y-97269809D02*
X113976380Y-97365047D01*
X114024000Y-97460285D01*
X114071619Y-97507904D01*
X114166857Y-97555523D01*
X114357333Y-97603142D01*
X114595428Y-97603142D01*
X114785904Y-97555523D01*
X114881142Y-97507904D01*
X114928761Y-97460285D01*
X114976380Y-97365047D01*
X114976380Y-97269809D01*
X114928761Y-97174571D01*
X114881142Y-97126952D01*
X114785904Y-97079333D01*
X114595428Y-97031714D01*
X114357333Y-97031714D01*
X114166857Y-97079333D01*
X114071619Y-97126952D01*
X114024000Y-97174571D01*
X113976380Y-97269809D01*
X114976380Y-98031714D02*
X113976380Y-98031714D01*
X114595428Y-98126952D02*
X114976380Y-98412666D01*
X114309714Y-98412666D02*
X114690666Y-98031714D01*
X134976380Y-96900761D02*
X134976380Y-96329333D01*
X134976380Y-96615047D02*
X133976380Y-96615047D01*
X134119238Y-96519809D01*
X134214476Y-96424571D01*
X134262095Y-96329333D01*
X133976380Y-97519809D02*
X133976380Y-97615047D01*
X134024000Y-97710285D01*
X134071619Y-97757904D01*
X134166857Y-97805523D01*
X134357333Y-97853142D01*
X134595428Y-97853142D01*
X134785904Y-97805523D01*
X134881142Y-97757904D01*
X134928761Y-97710285D01*
X134976380Y-97615047D01*
X134976380Y-97519809D01*
X134928761Y-97424571D01*
X134881142Y-97376952D01*
X134785904Y-97329333D01*
X134595428Y-97281714D01*
X134357333Y-97281714D01*
X134166857Y-97329333D01*
X134071619Y-97376952D01*
X134024000Y-97424571D01*
X133976380Y-97519809D01*
X134976380Y-98281714D02*
X133976380Y-98281714D01*
X134595428Y-98376952D02*
X134976380Y-98662666D01*
X134309714Y-98662666D02*
X134690666Y-98281714D01*
X154702380Y-96904761D02*
X154702380Y-96333333D01*
X154702380Y-96619047D02*
X153702380Y-96619047D01*
X153845238Y-96523809D01*
X153940476Y-96428571D01*
X153988095Y-96333333D01*
X153702380Y-97523809D02*
X153702380Y-97619047D01*
X153750000Y-97714285D01*
X153797619Y-97761904D01*
X153892857Y-97809523D01*
X154083333Y-97857142D01*
X154321428Y-97857142D01*
X154511904Y-97809523D01*
X154607142Y-97761904D01*
X154654761Y-97714285D01*
X154702380Y-97619047D01*
X154702380Y-97523809D01*
X154654761Y-97428571D01*
X154607142Y-97380952D01*
X154511904Y-97333333D01*
X154321428Y-97285714D01*
X154083333Y-97285714D01*
X153892857Y-97333333D01*
X153797619Y-97380952D01*
X153750000Y-97428571D01*
X153702380Y-97523809D01*
X154702380Y-98285714D02*
X153702380Y-98285714D01*
X154321428Y-98380952D02*
X154702380Y-98666666D01*
X154035714Y-98666666D02*
X154416666Y-98285714D01*
X174702380Y-96904761D02*
X174702380Y-96333333D01*
X174702380Y-96619047D02*
X173702380Y-96619047D01*
X173845238Y-96523809D01*
X173940476Y-96428571D01*
X173988095Y-96333333D01*
X173702380Y-97523809D02*
X173702380Y-97619047D01*
X173750000Y-97714285D01*
X173797619Y-97761904D01*
X173892857Y-97809523D01*
X174083333Y-97857142D01*
X174321428Y-97857142D01*
X174511904Y-97809523D01*
X174607142Y-97761904D01*
X174654761Y-97714285D01*
X174702380Y-97619047D01*
X174702380Y-97523809D01*
X174654761Y-97428571D01*
X174607142Y-97380952D01*
X174511904Y-97333333D01*
X174321428Y-97285714D01*
X174083333Y-97285714D01*
X173892857Y-97333333D01*
X173797619Y-97380952D01*
X173750000Y-97428571D01*
X173702380Y-97523809D01*
X174702380Y-98285714D02*
X173702380Y-98285714D01*
X174321428Y-98380952D02*
X174702380Y-98666666D01*
X174035714Y-98666666D02*
X174416666Y-98285714D01*
X194702380Y-96904761D02*
X194702380Y-96333333D01*
X194702380Y-96619047D02*
X193702380Y-96619047D01*
X193845238Y-96523809D01*
X193940476Y-96428571D01*
X193988095Y-96333333D01*
X193702380Y-97523809D02*
X193702380Y-97619047D01*
X193750000Y-97714285D01*
X193797619Y-97761904D01*
X193892857Y-97809523D01*
X194083333Y-97857142D01*
X194321428Y-97857142D01*
X194511904Y-97809523D01*
X194607142Y-97761904D01*
X194654761Y-97714285D01*
X194702380Y-97619047D01*
X194702380Y-97523809D01*
X194654761Y-97428571D01*
X194607142Y-97380952D01*
X194511904Y-97333333D01*
X194321428Y-97285714D01*
X194083333Y-97285714D01*
X193892857Y-97333333D01*
X193797619Y-97380952D01*
X193750000Y-97428571D01*
X193702380Y-97523809D01*
X194702380Y-98285714D02*
X193702380Y-98285714D01*
X194321428Y-98380952D02*
X194702380Y-98666666D01*
X194035714Y-98666666D02*
X194416666Y-98285714D01*
X190226190Y-38976190D02*
X190226190Y-39452380D01*
X190559523Y-38452380D02*
X190226190Y-38976190D01*
X189892857Y-38452380D01*
X189035714Y-39452380D02*
X189607142Y-39452380D01*
X189321428Y-39452380D02*
X189321428Y-38452380D01*
X189416666Y-38595238D01*
X189511904Y-38690476D01*
X189607142Y-38738095D01*
D14*
X122059523Y-39702380D02*
X121392857Y-40702380D01*
X121392857Y-39702380D02*
X122059523Y-40702380D01*
X121059523Y-39797619D02*
X121011904Y-39750000D01*
X120916666Y-39702380D01*
X120678571Y-39702380D01*
X120583333Y-39750000D01*
X120535714Y-39797619D01*
X120488095Y-39892857D01*
X120488095Y-39988095D01*
X120535714Y-40130952D01*
X121107142Y-40702380D01*
X120488095Y-40702380D01*
X127633357Y-29622880D02*
X127633357Y-29860976D01*
X127847642Y-29765738D02*
X127633357Y-29860976D01*
X127419071Y-29765738D01*
X127761928Y-30051452D02*
X127633357Y-29860976D01*
X127504785Y-30051452D01*
X126561928Y-30622880D02*
X126861928Y-30146690D01*
X127076214Y-30622880D02*
X127076214Y-29622880D01*
X126733357Y-29622880D01*
X126647642Y-29670500D01*
X126604785Y-29718119D01*
X126561928Y-29813357D01*
X126561928Y-29956214D01*
X126604785Y-30051452D01*
X126647642Y-30099071D01*
X126733357Y-30146690D01*
X127076214Y-30146690D01*
X126176214Y-30099071D02*
X125876214Y-30099071D01*
X125747642Y-30622880D02*
X126176214Y-30622880D01*
X126176214Y-29622880D01*
X125747642Y-29622880D01*
X125061928Y-30099071D02*
X125361928Y-30099071D01*
X125361928Y-30622880D02*
X125361928Y-29622880D01*
X124933357Y-29622880D01*
D10*
X177175973Y-48401522D02*
X176603553Y-48973942D01*
X176502538Y-49007614D01*
X176435194Y-49007614D01*
X176334179Y-48973942D01*
X176199492Y-48839255D01*
X176165820Y-48738240D01*
X176165820Y-48670896D01*
X176199492Y-48569881D01*
X176771912Y-47997461D01*
X175357698Y-47997461D02*
X175761759Y-48401522D01*
X175559729Y-48199492D02*
X176266835Y-47492385D01*
X176233164Y-47660744D01*
X176233164Y-47795431D01*
X176266835Y-47896446D01*
X140046904Y-47452619D02*
X139999285Y-47405000D01*
X139904047Y-47357380D01*
X139665952Y-47357380D01*
X139570714Y-47405000D01*
X139523095Y-47452619D01*
X139475476Y-47547857D01*
X139475476Y-47643095D01*
X139523095Y-47785952D01*
X140094523Y-48357380D01*
X139475476Y-48357380D01*
X139094523Y-47452619D02*
X139046904Y-47405000D01*
X138951666Y-47357380D01*
X138713571Y-47357380D01*
X138618333Y-47405000D01*
X138570714Y-47452619D01*
X138523095Y-47547857D01*
X138523095Y-47643095D01*
X138570714Y-47785952D01*
X139142142Y-48357380D01*
X138523095Y-48357380D01*
X137523095Y-48357380D02*
X137856428Y-47881190D01*
X138094523Y-48357380D02*
X138094523Y-47357380D01*
X137713571Y-47357380D01*
X137618333Y-47405000D01*
X137570714Y-47452619D01*
X137523095Y-47547857D01*
X137523095Y-47690714D01*
X137570714Y-47785952D01*
X137618333Y-47833571D01*
X137713571Y-47881190D01*
X138094523Y-47881190D01*
X183101016Y-34990778D02*
X183505077Y-35394839D01*
X183303046Y-35192809D02*
X184010153Y-34485702D01*
X183976481Y-34654061D01*
X183976481Y-34788748D01*
X184010153Y-34889763D01*
X183370390Y-33845938D02*
X183303046Y-33778595D01*
X183202031Y-33744923D01*
X183134688Y-33744923D01*
X183033672Y-33778595D01*
X182865313Y-33879610D01*
X182696955Y-34047969D01*
X182595939Y-34216328D01*
X182562268Y-34317343D01*
X182562268Y-34384687D01*
X182595939Y-34485702D01*
X182663283Y-34553045D01*
X182764298Y-34586717D01*
X182831642Y-34586717D01*
X182932657Y-34553045D01*
X183101016Y-34452030D01*
X183269375Y-34283671D01*
X183370390Y-34115312D01*
X183404062Y-34014297D01*
X183404062Y-33946954D01*
X183370390Y-33845938D01*
X182124535Y-34014297D02*
X182831642Y-33307190D01*
X182326565Y-33677580D02*
X181855161Y-33744923D01*
X182326565Y-33273519D02*
X182326565Y-33812267D01*
X130361904Y-40797619D02*
X130314285Y-40750000D01*
X130219047Y-40702380D01*
X129980952Y-40702380D01*
X129885714Y-40750000D01*
X129838095Y-40797619D01*
X129790476Y-40892857D01*
X129790476Y-40988095D01*
X129838095Y-41130952D01*
X130409523Y-41702380D01*
X129790476Y-41702380D01*
X129409523Y-40797619D02*
X129361904Y-40750000D01*
X129266666Y-40702380D01*
X129028571Y-40702380D01*
X128933333Y-40750000D01*
X128885714Y-40797619D01*
X128838095Y-40892857D01*
X128838095Y-40988095D01*
X128885714Y-41130952D01*
X129457142Y-41702380D01*
X128838095Y-41702380D01*
X127838095Y-41702380D02*
X128171428Y-41226190D01*
X128409523Y-41702380D02*
X128409523Y-40702380D01*
X128028571Y-40702380D01*
X127933333Y-40750000D01*
X127885714Y-40797619D01*
X127838095Y-40892857D01*
X127838095Y-41035714D01*
X127885714Y-41130952D01*
X127933333Y-41178571D01*
X128028571Y-41226190D01*
X128409523Y-41226190D01*
X130261904Y-46547619D02*
X130214285Y-46500000D01*
X130119047Y-46452380D01*
X129880952Y-46452380D01*
X129785714Y-46500000D01*
X129738095Y-46547619D01*
X129690476Y-46642857D01*
X129690476Y-46738095D01*
X129738095Y-46880952D01*
X130309523Y-47452380D01*
X129690476Y-47452380D01*
X129309523Y-46547619D02*
X129261904Y-46500000D01*
X129166666Y-46452380D01*
X128928571Y-46452380D01*
X128833333Y-46500000D01*
X128785714Y-46547619D01*
X128738095Y-46642857D01*
X128738095Y-46738095D01*
X128785714Y-46880952D01*
X129357142Y-47452380D01*
X128738095Y-47452380D01*
X127738095Y-47452380D02*
X128071428Y-46976190D01*
X128309523Y-47452380D02*
X128309523Y-46452380D01*
X127928571Y-46452380D01*
X127833333Y-46500000D01*
X127785714Y-46547619D01*
X127738095Y-46642857D01*
X127738095Y-46785714D01*
X127785714Y-46880952D01*
X127833333Y-46928571D01*
X127928571Y-46976190D01*
X128309523Y-46976190D01*
X186345238Y-55702380D02*
X186821428Y-55702380D01*
X186821428Y-54702380D01*
X186011904Y-55178571D02*
X185678571Y-55178571D01*
X185535714Y-55702380D02*
X186011904Y-55702380D01*
X186011904Y-54702380D01*
X185535714Y-54702380D01*
X185107142Y-55702380D02*
X185107142Y-54702380D01*
X184869047Y-54702380D01*
X184726190Y-54750000D01*
X184630952Y-54845238D01*
X184583333Y-54940476D01*
X184535714Y-55130952D01*
X184535714Y-55273809D01*
X184583333Y-55464285D01*
X184630952Y-55559523D01*
X184726190Y-55654761D01*
X184869047Y-55702380D01*
X185107142Y-55702380D01*
X184154761Y-54797619D02*
X184107142Y-54750000D01*
X184011904Y-54702380D01*
X183773809Y-54702380D01*
X183678571Y-54750000D01*
X183630952Y-54797619D01*
X183583333Y-54892857D01*
X183583333Y-54988095D01*
X183630952Y-55130952D01*
X184202380Y-55702380D01*
X183583333Y-55702380D01*
X182964285Y-54702380D02*
X182869047Y-54702380D01*
X182773809Y-54750000D01*
X182726190Y-54797619D01*
X182678571Y-54892857D01*
X182630952Y-55083333D01*
X182630952Y-55321428D01*
X182678571Y-55511904D01*
X182726190Y-55607142D01*
X182773809Y-55654761D01*
X182869047Y-55702380D01*
X182964285Y-55702380D01*
X183059523Y-55654761D01*
X183107142Y-55607142D01*
X183154761Y-55511904D01*
X183202380Y-55321428D01*
X183202380Y-55083333D01*
X183154761Y-54892857D01*
X183107142Y-54797619D01*
X183059523Y-54750000D01*
X182964285Y-54702380D01*
X190595238Y-89452380D02*
X191071428Y-89452380D01*
X191071428Y-88452380D01*
X190261904Y-88928571D02*
X189928571Y-88928571D01*
X189785714Y-89452380D02*
X190261904Y-89452380D01*
X190261904Y-88452380D01*
X189785714Y-88452380D01*
X189357142Y-89452380D02*
X189357142Y-88452380D01*
X189119047Y-88452380D01*
X188976190Y-88500000D01*
X188880952Y-88595238D01*
X188833333Y-88690476D01*
X188785714Y-88880952D01*
X188785714Y-89023809D01*
X188833333Y-89214285D01*
X188880952Y-89309523D01*
X188976190Y-89404761D01*
X189119047Y-89452380D01*
X189357142Y-89452380D01*
X187833333Y-89452380D02*
X188404761Y-89452380D01*
X188119047Y-89452380D02*
X188119047Y-88452380D01*
X188214285Y-88595238D01*
X188309523Y-88690476D01*
X188404761Y-88738095D01*
X187357142Y-89452380D02*
X187166666Y-89452380D01*
X187071428Y-89404761D01*
X187023809Y-89357142D01*
X186928571Y-89214285D01*
X186880952Y-89023809D01*
X186880952Y-88642857D01*
X186928571Y-88547619D01*
X186976190Y-88500000D01*
X187071428Y-88452380D01*
X187261904Y-88452380D01*
X187357142Y-88500000D01*
X187404761Y-88547619D01*
X187452380Y-88642857D01*
X187452380Y-88880952D01*
X187404761Y-88976190D01*
X187357142Y-89023809D01*
X187261904Y-89071428D01*
X187071428Y-89071428D01*
X186976190Y-89023809D01*
X186928571Y-88976190D01*
X186880952Y-88880952D01*
X166095238Y-55952380D02*
X166571428Y-55952380D01*
X166571428Y-54952380D01*
X165761904Y-55428571D02*
X165428571Y-55428571D01*
X165285714Y-55952380D02*
X165761904Y-55952380D01*
X165761904Y-54952380D01*
X165285714Y-54952380D01*
X164857142Y-55952380D02*
X164857142Y-54952380D01*
X164619047Y-54952380D01*
X164476190Y-55000000D01*
X164380952Y-55095238D01*
X164333333Y-55190476D01*
X164285714Y-55380952D01*
X164285714Y-55523809D01*
X164333333Y-55714285D01*
X164380952Y-55809523D01*
X164476190Y-55904761D01*
X164619047Y-55952380D01*
X164857142Y-55952380D01*
X163333333Y-55952380D02*
X163904761Y-55952380D01*
X163619047Y-55952380D02*
X163619047Y-54952380D01*
X163714285Y-55095238D01*
X163809523Y-55190476D01*
X163904761Y-55238095D01*
X162761904Y-55380952D02*
X162857142Y-55333333D01*
X162904761Y-55285714D01*
X162952380Y-55190476D01*
X162952380Y-55142857D01*
X162904761Y-55047619D01*
X162857142Y-55000000D01*
X162761904Y-54952380D01*
X162571428Y-54952380D01*
X162476190Y-55000000D01*
X162428571Y-55047619D01*
X162380952Y-55142857D01*
X162380952Y-55190476D01*
X162428571Y-55285714D01*
X162476190Y-55333333D01*
X162571428Y-55380952D01*
X162761904Y-55380952D01*
X162857142Y-55428571D01*
X162904761Y-55476190D01*
X162952380Y-55571428D01*
X162952380Y-55761904D01*
X162904761Y-55857142D01*
X162857142Y-55904761D01*
X162761904Y-55952380D01*
X162571428Y-55952380D01*
X162476190Y-55904761D01*
X162428571Y-55857142D01*
X162380952Y-55761904D01*
X162380952Y-55571428D01*
X162428571Y-55476190D01*
X162476190Y-55428571D01*
X162571428Y-55380952D01*
X170595238Y-89452380D02*
X171071428Y-89452380D01*
X171071428Y-88452380D01*
X170261904Y-88928571D02*
X169928571Y-88928571D01*
X169785714Y-89452380D02*
X170261904Y-89452380D01*
X170261904Y-88452380D01*
X169785714Y-88452380D01*
X169357142Y-89452380D02*
X169357142Y-88452380D01*
X169119047Y-88452380D01*
X168976190Y-88500000D01*
X168880952Y-88595238D01*
X168833333Y-88690476D01*
X168785714Y-88880952D01*
X168785714Y-89023809D01*
X168833333Y-89214285D01*
X168880952Y-89309523D01*
X168976190Y-89404761D01*
X169119047Y-89452380D01*
X169357142Y-89452380D01*
X167833333Y-89452380D02*
X168404761Y-89452380D01*
X168119047Y-89452380D02*
X168119047Y-88452380D01*
X168214285Y-88595238D01*
X168309523Y-88690476D01*
X168404761Y-88738095D01*
X167500000Y-88452380D02*
X166833333Y-88452380D01*
X167261904Y-89452380D01*
X146345238Y-55702380D02*
X146821428Y-55702380D01*
X146821428Y-54702380D01*
X146011904Y-55178571D02*
X145678571Y-55178571D01*
X145535714Y-55702380D02*
X146011904Y-55702380D01*
X146011904Y-54702380D01*
X145535714Y-54702380D01*
X145107142Y-55702380D02*
X145107142Y-54702380D01*
X144869047Y-54702380D01*
X144726190Y-54750000D01*
X144630952Y-54845238D01*
X144583333Y-54940476D01*
X144535714Y-55130952D01*
X144535714Y-55273809D01*
X144583333Y-55464285D01*
X144630952Y-55559523D01*
X144726190Y-55654761D01*
X144869047Y-55702380D01*
X145107142Y-55702380D01*
X143583333Y-55702380D02*
X144154761Y-55702380D01*
X143869047Y-55702380D02*
X143869047Y-54702380D01*
X143964285Y-54845238D01*
X144059523Y-54940476D01*
X144154761Y-54988095D01*
X142726190Y-54702380D02*
X142916666Y-54702380D01*
X143011904Y-54750000D01*
X143059523Y-54797619D01*
X143154761Y-54940476D01*
X143202380Y-55130952D01*
X143202380Y-55511904D01*
X143154761Y-55607142D01*
X143107142Y-55654761D01*
X143011904Y-55702380D01*
X142821428Y-55702380D01*
X142726190Y-55654761D01*
X142678571Y-55607142D01*
X142630952Y-55511904D01*
X142630952Y-55273809D01*
X142678571Y-55178571D01*
X142726190Y-55130952D01*
X142821428Y-55083333D01*
X143011904Y-55083333D01*
X143107142Y-55130952D01*
X143154761Y-55178571D01*
X143202380Y-55273809D01*
X150595238Y-89452380D02*
X151071428Y-89452380D01*
X151071428Y-88452380D01*
X150261904Y-88928571D02*
X149928571Y-88928571D01*
X149785714Y-89452380D02*
X150261904Y-89452380D01*
X150261904Y-88452380D01*
X149785714Y-88452380D01*
X149357142Y-89452380D02*
X149357142Y-88452380D01*
X149119047Y-88452380D01*
X148976190Y-88500000D01*
X148880952Y-88595238D01*
X148833333Y-88690476D01*
X148785714Y-88880952D01*
X148785714Y-89023809D01*
X148833333Y-89214285D01*
X148880952Y-89309523D01*
X148976190Y-89404761D01*
X149119047Y-89452380D01*
X149357142Y-89452380D01*
X147833333Y-89452380D02*
X148404761Y-89452380D01*
X148119047Y-89452380D02*
X148119047Y-88452380D01*
X148214285Y-88595238D01*
X148309523Y-88690476D01*
X148404761Y-88738095D01*
X146928571Y-88452380D02*
X147404761Y-88452380D01*
X147452380Y-88928571D01*
X147404761Y-88880952D01*
X147309523Y-88833333D01*
X147071428Y-88833333D01*
X146976190Y-88880952D01*
X146928571Y-88928571D01*
X146880952Y-89023809D01*
X146880952Y-89261904D01*
X146928571Y-89357142D01*
X146976190Y-89404761D01*
X147071428Y-89452380D01*
X147309523Y-89452380D01*
X147404761Y-89404761D01*
X147452380Y-89357142D01*
X126345238Y-55702380D02*
X126821428Y-55702380D01*
X126821428Y-54702380D01*
X126011904Y-55178571D02*
X125678571Y-55178571D01*
X125535714Y-55702380D02*
X126011904Y-55702380D01*
X126011904Y-54702380D01*
X125535714Y-54702380D01*
X125107142Y-55702380D02*
X125107142Y-54702380D01*
X124869047Y-54702380D01*
X124726190Y-54750000D01*
X124630952Y-54845238D01*
X124583333Y-54940476D01*
X124535714Y-55130952D01*
X124535714Y-55273809D01*
X124583333Y-55464285D01*
X124630952Y-55559523D01*
X124726190Y-55654761D01*
X124869047Y-55702380D01*
X125107142Y-55702380D01*
X123583333Y-55702380D02*
X124154761Y-55702380D01*
X123869047Y-55702380D02*
X123869047Y-54702380D01*
X123964285Y-54845238D01*
X124059523Y-54940476D01*
X124154761Y-54988095D01*
X122726190Y-55035714D02*
X122726190Y-55702380D01*
X122964285Y-54654761D02*
X123202380Y-55369047D01*
X122583333Y-55369047D01*
X130595238Y-89202380D02*
X131071428Y-89202380D01*
X131071428Y-88202380D01*
X130261904Y-88678571D02*
X129928571Y-88678571D01*
X129785714Y-89202380D02*
X130261904Y-89202380D01*
X130261904Y-88202380D01*
X129785714Y-88202380D01*
X129357142Y-89202380D02*
X129357142Y-88202380D01*
X129119047Y-88202380D01*
X128976190Y-88250000D01*
X128880952Y-88345238D01*
X128833333Y-88440476D01*
X128785714Y-88630952D01*
X128785714Y-88773809D01*
X128833333Y-88964285D01*
X128880952Y-89059523D01*
X128976190Y-89154761D01*
X129119047Y-89202380D01*
X129357142Y-89202380D01*
X127833333Y-89202380D02*
X128404761Y-89202380D01*
X128119047Y-89202380D02*
X128119047Y-88202380D01*
X128214285Y-88345238D01*
X128309523Y-88440476D01*
X128404761Y-88488095D01*
X127500000Y-88202380D02*
X126880952Y-88202380D01*
X127214285Y-88583333D01*
X127071428Y-88583333D01*
X126976190Y-88630952D01*
X126928571Y-88678571D01*
X126880952Y-88773809D01*
X126880952Y-89011904D01*
X126928571Y-89107142D01*
X126976190Y-89154761D01*
X127071428Y-89202380D01*
X127357142Y-89202380D01*
X127452380Y-89154761D01*
X127500000Y-89107142D01*
X106095238Y-55952380D02*
X106571428Y-55952380D01*
X106571428Y-54952380D01*
X105761904Y-55428571D02*
X105428571Y-55428571D01*
X105285714Y-55952380D02*
X105761904Y-55952380D01*
X105761904Y-54952380D01*
X105285714Y-54952380D01*
X104857142Y-55952380D02*
X104857142Y-54952380D01*
X104619047Y-54952380D01*
X104476190Y-55000000D01*
X104380952Y-55095238D01*
X104333333Y-55190476D01*
X104285714Y-55380952D01*
X104285714Y-55523809D01*
X104333333Y-55714285D01*
X104380952Y-55809523D01*
X104476190Y-55904761D01*
X104619047Y-55952380D01*
X104857142Y-55952380D01*
X103333333Y-55952380D02*
X103904761Y-55952380D01*
X103619047Y-55952380D02*
X103619047Y-54952380D01*
X103714285Y-55095238D01*
X103809523Y-55190476D01*
X103904761Y-55238095D01*
X102952380Y-55047619D02*
X102904761Y-55000000D01*
X102809523Y-54952380D01*
X102571428Y-54952380D01*
X102476190Y-55000000D01*
X102428571Y-55047619D01*
X102380952Y-55142857D01*
X102380952Y-55238095D01*
X102428571Y-55380952D01*
X103000000Y-55952380D01*
X102380952Y-55952380D01*
X110595238Y-89202380D02*
X111071428Y-89202380D01*
X111071428Y-88202380D01*
X110261904Y-88678571D02*
X109928571Y-88678571D01*
X109785714Y-89202380D02*
X110261904Y-89202380D01*
X110261904Y-88202380D01*
X109785714Y-88202380D01*
X109357142Y-89202380D02*
X109357142Y-88202380D01*
X109119047Y-88202380D01*
X108976190Y-88250000D01*
X108880952Y-88345238D01*
X108833333Y-88440476D01*
X108785714Y-88630952D01*
X108785714Y-88773809D01*
X108833333Y-88964285D01*
X108880952Y-89059523D01*
X108976190Y-89154761D01*
X109119047Y-89202380D01*
X109357142Y-89202380D01*
X107833333Y-89202380D02*
X108404761Y-89202380D01*
X108119047Y-89202380D02*
X108119047Y-88202380D01*
X108214285Y-88345238D01*
X108309523Y-88440476D01*
X108404761Y-88488095D01*
X106880952Y-89202380D02*
X107452380Y-89202380D01*
X107166666Y-89202380D02*
X107166666Y-88202380D01*
X107261904Y-88345238D01*
X107357142Y-88440476D01*
X107452380Y-88488095D01*
X110595238Y-69302380D02*
X111071428Y-69302380D01*
X111071428Y-68302380D01*
X110261904Y-68778571D02*
X109928571Y-68778571D01*
X109785714Y-69302380D02*
X110261904Y-69302380D01*
X110261904Y-68302380D01*
X109785714Y-68302380D01*
X109357142Y-69302380D02*
X109357142Y-68302380D01*
X109119047Y-68302380D01*
X108976190Y-68350000D01*
X108880952Y-68445238D01*
X108833333Y-68540476D01*
X108785714Y-68730952D01*
X108785714Y-68873809D01*
X108833333Y-69064285D01*
X108880952Y-69159523D01*
X108976190Y-69254761D01*
X109119047Y-69302380D01*
X109357142Y-69302380D01*
X107833333Y-69302380D02*
X108404761Y-69302380D01*
X108119047Y-69302380D02*
X108119047Y-68302380D01*
X108214285Y-68445238D01*
X108309523Y-68540476D01*
X108404761Y-68588095D01*
X107214285Y-68302380D02*
X107119047Y-68302380D01*
X107023809Y-68350000D01*
X106976190Y-68397619D01*
X106928571Y-68492857D01*
X106880952Y-68683333D01*
X106880952Y-68921428D01*
X106928571Y-69111904D01*
X106976190Y-69207142D01*
X107023809Y-69254761D01*
X107119047Y-69302380D01*
X107214285Y-69302380D01*
X107309523Y-69254761D01*
X107357142Y-69207142D01*
X107404761Y-69111904D01*
X107452380Y-68921428D01*
X107452380Y-68683333D01*
X107404761Y-68492857D01*
X107357142Y-68397619D01*
X107309523Y-68350000D01*
X107214285Y-68302380D01*
X110119047Y-109302380D02*
X110595238Y-109302380D01*
X110595238Y-108302380D01*
X109785714Y-108778571D02*
X109452380Y-108778571D01*
X109309523Y-109302380D02*
X109785714Y-109302380D01*
X109785714Y-108302380D01*
X109309523Y-108302380D01*
X108880952Y-109302380D02*
X108880952Y-108302380D01*
X108642857Y-108302380D01*
X108500000Y-108350000D01*
X108404761Y-108445238D01*
X108357142Y-108540476D01*
X108309523Y-108730952D01*
X108309523Y-108873809D01*
X108357142Y-109064285D01*
X108404761Y-109159523D01*
X108500000Y-109254761D01*
X108642857Y-109302380D01*
X108880952Y-109302380D01*
X107833333Y-109302380D02*
X107642857Y-109302380D01*
X107547619Y-109254761D01*
X107500000Y-109207142D01*
X107404761Y-109064285D01*
X107357142Y-108873809D01*
X107357142Y-108492857D01*
X107404761Y-108397619D01*
X107452380Y-108350000D01*
X107547619Y-108302380D01*
X107738095Y-108302380D01*
X107833333Y-108350000D01*
X107880952Y-108397619D01*
X107928571Y-108492857D01*
X107928571Y-108730952D01*
X107880952Y-108826190D01*
X107833333Y-108873809D01*
X107738095Y-108921428D01*
X107547619Y-108921428D01*
X107452380Y-108873809D01*
X107404761Y-108826190D01*
X107357142Y-108730952D01*
X130119047Y-69302380D02*
X130595238Y-69302380D01*
X130595238Y-68302380D01*
X129785714Y-68778571D02*
X129452380Y-68778571D01*
X129309523Y-69302380D02*
X129785714Y-69302380D01*
X129785714Y-68302380D01*
X129309523Y-68302380D01*
X128880952Y-69302380D02*
X128880952Y-68302380D01*
X128642857Y-68302380D01*
X128500000Y-68350000D01*
X128404761Y-68445238D01*
X128357142Y-68540476D01*
X128309523Y-68730952D01*
X128309523Y-68873809D01*
X128357142Y-69064285D01*
X128404761Y-69159523D01*
X128500000Y-69254761D01*
X128642857Y-69302380D01*
X128880952Y-69302380D01*
X127738095Y-68730952D02*
X127833333Y-68683333D01*
X127880952Y-68635714D01*
X127928571Y-68540476D01*
X127928571Y-68492857D01*
X127880952Y-68397619D01*
X127833333Y-68350000D01*
X127738095Y-68302380D01*
X127547619Y-68302380D01*
X127452380Y-68350000D01*
X127404761Y-68397619D01*
X127357142Y-68492857D01*
X127357142Y-68540476D01*
X127404761Y-68635714D01*
X127452380Y-68683333D01*
X127547619Y-68730952D01*
X127738095Y-68730952D01*
X127833333Y-68778571D01*
X127880952Y-68826190D01*
X127928571Y-68921428D01*
X127928571Y-69111904D01*
X127880952Y-69207142D01*
X127833333Y-69254761D01*
X127738095Y-69302380D01*
X127547619Y-69302380D01*
X127452380Y-69254761D01*
X127404761Y-69207142D01*
X127357142Y-69111904D01*
X127357142Y-68921428D01*
X127404761Y-68826190D01*
X127452380Y-68778571D01*
X127547619Y-68730952D01*
X130119047Y-109302380D02*
X130595238Y-109302380D01*
X130595238Y-108302380D01*
X129785714Y-108778571D02*
X129452380Y-108778571D01*
X129309523Y-109302380D02*
X129785714Y-109302380D01*
X129785714Y-108302380D01*
X129309523Y-108302380D01*
X128880952Y-109302380D02*
X128880952Y-108302380D01*
X128642857Y-108302380D01*
X128500000Y-108350000D01*
X128404761Y-108445238D01*
X128357142Y-108540476D01*
X128309523Y-108730952D01*
X128309523Y-108873809D01*
X128357142Y-109064285D01*
X128404761Y-109159523D01*
X128500000Y-109254761D01*
X128642857Y-109302380D01*
X128880952Y-109302380D01*
X127976190Y-108302380D02*
X127309523Y-108302380D01*
X127738095Y-109302380D01*
X150119047Y-69302380D02*
X150595238Y-69302380D01*
X150595238Y-68302380D01*
X149785714Y-68778571D02*
X149452380Y-68778571D01*
X149309523Y-69302380D02*
X149785714Y-69302380D01*
X149785714Y-68302380D01*
X149309523Y-68302380D01*
X148880952Y-69302380D02*
X148880952Y-68302380D01*
X148642857Y-68302380D01*
X148500000Y-68350000D01*
X148404761Y-68445238D01*
X148357142Y-68540476D01*
X148309523Y-68730952D01*
X148309523Y-68873809D01*
X148357142Y-69064285D01*
X148404761Y-69159523D01*
X148500000Y-69254761D01*
X148642857Y-69302380D01*
X148880952Y-69302380D01*
X147452380Y-68302380D02*
X147642857Y-68302380D01*
X147738095Y-68350000D01*
X147785714Y-68397619D01*
X147880952Y-68540476D01*
X147928571Y-68730952D01*
X147928571Y-69111904D01*
X147880952Y-69207142D01*
X147833333Y-69254761D01*
X147738095Y-69302380D01*
X147547619Y-69302380D01*
X147452380Y-69254761D01*
X147404761Y-69207142D01*
X147357142Y-69111904D01*
X147357142Y-68873809D01*
X147404761Y-68778571D01*
X147452380Y-68730952D01*
X147547619Y-68683333D01*
X147738095Y-68683333D01*
X147833333Y-68730952D01*
X147880952Y-68778571D01*
X147928571Y-68873809D01*
X150119047Y-109302380D02*
X150595238Y-109302380D01*
X150595238Y-108302380D01*
X149785714Y-108778571D02*
X149452380Y-108778571D01*
X149309523Y-109302380D02*
X149785714Y-109302380D01*
X149785714Y-108302380D01*
X149309523Y-108302380D01*
X148880952Y-109302380D02*
X148880952Y-108302380D01*
X148642857Y-108302380D01*
X148500000Y-108350000D01*
X148404761Y-108445238D01*
X148357142Y-108540476D01*
X148309523Y-108730952D01*
X148309523Y-108873809D01*
X148357142Y-109064285D01*
X148404761Y-109159523D01*
X148500000Y-109254761D01*
X148642857Y-109302380D01*
X148880952Y-109302380D01*
X147404761Y-108302380D02*
X147880952Y-108302380D01*
X147928571Y-108778571D01*
X147880952Y-108730952D01*
X147785714Y-108683333D01*
X147547619Y-108683333D01*
X147452380Y-108730952D01*
X147404761Y-108778571D01*
X147357142Y-108873809D01*
X147357142Y-109111904D01*
X147404761Y-109207142D01*
X147452380Y-109254761D01*
X147547619Y-109302380D01*
X147785714Y-109302380D01*
X147880952Y-109254761D01*
X147928571Y-109207142D01*
X170119047Y-69302380D02*
X170595238Y-69302380D01*
X170595238Y-68302380D01*
X169785714Y-68778571D02*
X169452380Y-68778571D01*
X169309523Y-69302380D02*
X169785714Y-69302380D01*
X169785714Y-68302380D01*
X169309523Y-68302380D01*
X168880952Y-69302380D02*
X168880952Y-68302380D01*
X168642857Y-68302380D01*
X168500000Y-68350000D01*
X168404761Y-68445238D01*
X168357142Y-68540476D01*
X168309523Y-68730952D01*
X168309523Y-68873809D01*
X168357142Y-69064285D01*
X168404761Y-69159523D01*
X168500000Y-69254761D01*
X168642857Y-69302380D01*
X168880952Y-69302380D01*
X167452380Y-68635714D02*
X167452380Y-69302380D01*
X167690476Y-68254761D02*
X167928571Y-68969047D01*
X167309523Y-68969047D01*
X170119047Y-109302380D02*
X170595238Y-109302380D01*
X170595238Y-108302380D01*
X169785714Y-108778571D02*
X169452380Y-108778571D01*
X169309523Y-109302380D02*
X169785714Y-109302380D01*
X169785714Y-108302380D01*
X169309523Y-108302380D01*
X168880952Y-109302380D02*
X168880952Y-108302380D01*
X168642857Y-108302380D01*
X168500000Y-108350000D01*
X168404761Y-108445238D01*
X168357142Y-108540476D01*
X168309523Y-108730952D01*
X168309523Y-108873809D01*
X168357142Y-109064285D01*
X168404761Y-109159523D01*
X168500000Y-109254761D01*
X168642857Y-109302380D01*
X168880952Y-109302380D01*
X167976190Y-108302380D02*
X167357142Y-108302380D01*
X167690476Y-108683333D01*
X167547619Y-108683333D01*
X167452380Y-108730952D01*
X167404761Y-108778571D01*
X167357142Y-108873809D01*
X167357142Y-109111904D01*
X167404761Y-109207142D01*
X167452380Y-109254761D01*
X167547619Y-109302380D01*
X167833333Y-109302380D01*
X167928571Y-109254761D01*
X167976190Y-109207142D01*
X190119047Y-69302380D02*
X190595238Y-69302380D01*
X190595238Y-68302380D01*
X189785714Y-68778571D02*
X189452380Y-68778571D01*
X189309523Y-69302380D02*
X189785714Y-69302380D01*
X189785714Y-68302380D01*
X189309523Y-68302380D01*
X188880952Y-69302380D02*
X188880952Y-68302380D01*
X188642857Y-68302380D01*
X188500000Y-68350000D01*
X188404761Y-68445238D01*
X188357142Y-68540476D01*
X188309523Y-68730952D01*
X188309523Y-68873809D01*
X188357142Y-69064285D01*
X188404761Y-69159523D01*
X188500000Y-69254761D01*
X188642857Y-69302380D01*
X188880952Y-69302380D01*
X187928571Y-68397619D02*
X187880952Y-68350000D01*
X187785714Y-68302380D01*
X187547619Y-68302380D01*
X187452380Y-68350000D01*
X187404761Y-68397619D01*
X187357142Y-68492857D01*
X187357142Y-68588095D01*
X187404761Y-68730952D01*
X187976190Y-69302380D01*
X187357142Y-69302380D01*
X190119047Y-109202380D02*
X190595238Y-109202380D01*
X190595238Y-108202380D01*
X189785714Y-108678571D02*
X189452380Y-108678571D01*
X189309523Y-109202380D02*
X189785714Y-109202380D01*
X189785714Y-108202380D01*
X189309523Y-108202380D01*
X188880952Y-109202380D02*
X188880952Y-108202380D01*
X188642857Y-108202380D01*
X188500000Y-108250000D01*
X188404761Y-108345238D01*
X188357142Y-108440476D01*
X188309523Y-108630952D01*
X188309523Y-108773809D01*
X188357142Y-108964285D01*
X188404761Y-109059523D01*
X188500000Y-109154761D01*
X188642857Y-109202380D01*
X188880952Y-109202380D01*
X187357142Y-109202380D02*
X187928571Y-109202380D01*
X187642857Y-109202380D02*
X187642857Y-108202380D01*
X187738095Y-108345238D01*
X187833333Y-108440476D01*
X187928571Y-108488095D01*
X136633333Y-44228571D02*
X136966666Y-44228571D01*
X136966666Y-44752380D02*
X136966666Y-43752380D01*
X136490476Y-43752380D01*
X135585714Y-44752380D02*
X136157142Y-44752380D01*
X135871428Y-44752380D02*
X135871428Y-43752380D01*
X135966666Y-43895238D01*
X136061904Y-43990476D01*
X136157142Y-44038095D01*
X113857380Y-64785714D02*
X112857380Y-64785714D01*
X112857380Y-65023809D01*
X112905000Y-65166666D01*
X113000238Y-65261904D01*
X113095476Y-65309523D01*
X113285952Y-65357142D01*
X113428809Y-65357142D01*
X113619285Y-65309523D01*
X113714523Y-65261904D01*
X113809761Y-65166666D01*
X113857380Y-65023809D01*
X113857380Y-64785714D01*
X112952619Y-65738095D02*
X112905000Y-65785714D01*
X112857380Y-65880952D01*
X112857380Y-66119047D01*
X112905000Y-66214285D01*
X112952619Y-66261904D01*
X113047857Y-66309523D01*
X113143095Y-66309523D01*
X113285952Y-66261904D01*
X113857380Y-65690476D01*
X113857380Y-66309523D01*
X112857380Y-66928571D02*
X112857380Y-67023809D01*
X112905000Y-67119047D01*
X112952619Y-67166666D01*
X113047857Y-67214285D01*
X113238333Y-67261904D01*
X113476428Y-67261904D01*
X113666904Y-67214285D01*
X113762142Y-67166666D01*
X113809761Y-67119047D01*
X113857380Y-67023809D01*
X113857380Y-66928571D01*
X113809761Y-66833333D01*
X113762142Y-66785714D01*
X113666904Y-66738095D01*
X113476428Y-66690476D01*
X113238333Y-66690476D01*
X113047857Y-66738095D01*
X112952619Y-66785714D01*
X112905000Y-66833333D01*
X112857380Y-66928571D01*
X113857380Y-84785714D02*
X112857380Y-84785714D01*
X112857380Y-85023809D01*
X112905000Y-85166666D01*
X113000238Y-85261904D01*
X113095476Y-85309523D01*
X113285952Y-85357142D01*
X113428809Y-85357142D01*
X113619285Y-85309523D01*
X113714523Y-85261904D01*
X113809761Y-85166666D01*
X113857380Y-85023809D01*
X113857380Y-84785714D01*
X113857380Y-86309523D02*
X113857380Y-85738095D01*
X113857380Y-86023809D02*
X112857380Y-86023809D01*
X113000238Y-85928571D01*
X113095476Y-85833333D01*
X113143095Y-85738095D01*
X113857380Y-86785714D02*
X113857380Y-86976190D01*
X113809761Y-87071428D01*
X113762142Y-87119047D01*
X113619285Y-87214285D01*
X113428809Y-87261904D01*
X113047857Y-87261904D01*
X112952619Y-87214285D01*
X112905000Y-87166666D01*
X112857380Y-87071428D01*
X112857380Y-86880952D01*
X112905000Y-86785714D01*
X112952619Y-86738095D01*
X113047857Y-86690476D01*
X113285952Y-86690476D01*
X113381190Y-86738095D01*
X113428809Y-86785714D01*
X113476428Y-86880952D01*
X113476428Y-87071428D01*
X113428809Y-87166666D01*
X113381190Y-87214285D01*
X113285952Y-87261904D01*
X113857380Y-104785714D02*
X112857380Y-104785714D01*
X112857380Y-105023809D01*
X112905000Y-105166666D01*
X113000238Y-105261904D01*
X113095476Y-105309523D01*
X113285952Y-105357142D01*
X113428809Y-105357142D01*
X113619285Y-105309523D01*
X113714523Y-105261904D01*
X113809761Y-105166666D01*
X113857380Y-105023809D01*
X113857380Y-104785714D01*
X113857380Y-106309523D02*
X113857380Y-105738095D01*
X113857380Y-106023809D02*
X112857380Y-106023809D01*
X113000238Y-105928571D01*
X113095476Y-105833333D01*
X113143095Y-105738095D01*
X113285952Y-106880952D02*
X113238333Y-106785714D01*
X113190714Y-106738095D01*
X113095476Y-106690476D01*
X113047857Y-106690476D01*
X112952619Y-106738095D01*
X112905000Y-106785714D01*
X112857380Y-106880952D01*
X112857380Y-107071428D01*
X112905000Y-107166666D01*
X112952619Y-107214285D01*
X113047857Y-107261904D01*
X113095476Y-107261904D01*
X113190714Y-107214285D01*
X113238333Y-107166666D01*
X113285952Y-107071428D01*
X113285952Y-106880952D01*
X113333571Y-106785714D01*
X113381190Y-106738095D01*
X113476428Y-106690476D01*
X113666904Y-106690476D01*
X113762142Y-106738095D01*
X113809761Y-106785714D01*
X113857380Y-106880952D01*
X113857380Y-107071428D01*
X113809761Y-107166666D01*
X113762142Y-107214285D01*
X113666904Y-107261904D01*
X113476428Y-107261904D01*
X113381190Y-107214285D01*
X113333571Y-107166666D01*
X113285952Y-107071428D01*
X113857380Y-124785714D02*
X112857380Y-124785714D01*
X112857380Y-125023809D01*
X112905000Y-125166666D01*
X113000238Y-125261904D01*
X113095476Y-125309523D01*
X113285952Y-125357142D01*
X113428809Y-125357142D01*
X113619285Y-125309523D01*
X113714523Y-125261904D01*
X113809761Y-125166666D01*
X113857380Y-125023809D01*
X113857380Y-124785714D01*
X113857380Y-126309523D02*
X113857380Y-125738095D01*
X113857380Y-126023809D02*
X112857380Y-126023809D01*
X113000238Y-125928571D01*
X113095476Y-125833333D01*
X113143095Y-125738095D01*
X112857380Y-126642857D02*
X112857380Y-127309523D01*
X113857380Y-126880952D01*
X133857380Y-64785714D02*
X132857380Y-64785714D01*
X132857380Y-65023809D01*
X132905000Y-65166666D01*
X133000238Y-65261904D01*
X133095476Y-65309523D01*
X133285952Y-65357142D01*
X133428809Y-65357142D01*
X133619285Y-65309523D01*
X133714523Y-65261904D01*
X133809761Y-65166666D01*
X133857380Y-65023809D01*
X133857380Y-64785714D01*
X133857380Y-66309523D02*
X133857380Y-65738095D01*
X133857380Y-66023809D02*
X132857380Y-66023809D01*
X133000238Y-65928571D01*
X133095476Y-65833333D01*
X133143095Y-65738095D01*
X132857380Y-67166666D02*
X132857380Y-66976190D01*
X132905000Y-66880952D01*
X132952619Y-66833333D01*
X133095476Y-66738095D01*
X133285952Y-66690476D01*
X133666904Y-66690476D01*
X133762142Y-66738095D01*
X133809761Y-66785714D01*
X133857380Y-66880952D01*
X133857380Y-67071428D01*
X133809761Y-67166666D01*
X133762142Y-67214285D01*
X133666904Y-67261904D01*
X133428809Y-67261904D01*
X133333571Y-67214285D01*
X133285952Y-67166666D01*
X133238333Y-67071428D01*
X133238333Y-66880952D01*
X133285952Y-66785714D01*
X133333571Y-66738095D01*
X133428809Y-66690476D01*
X133857380Y-84785714D02*
X132857380Y-84785714D01*
X132857380Y-85023809D01*
X132905000Y-85166666D01*
X133000238Y-85261904D01*
X133095476Y-85309523D01*
X133285952Y-85357142D01*
X133428809Y-85357142D01*
X133619285Y-85309523D01*
X133714523Y-85261904D01*
X133809761Y-85166666D01*
X133857380Y-85023809D01*
X133857380Y-84785714D01*
X133857380Y-86309523D02*
X133857380Y-85738095D01*
X133857380Y-86023809D02*
X132857380Y-86023809D01*
X133000238Y-85928571D01*
X133095476Y-85833333D01*
X133143095Y-85738095D01*
X132857380Y-87214285D02*
X132857380Y-86738095D01*
X133333571Y-86690476D01*
X133285952Y-86738095D01*
X133238333Y-86833333D01*
X133238333Y-87071428D01*
X133285952Y-87166666D01*
X133333571Y-87214285D01*
X133428809Y-87261904D01*
X133666904Y-87261904D01*
X133762142Y-87214285D01*
X133809761Y-87166666D01*
X133857380Y-87071428D01*
X133857380Y-86833333D01*
X133809761Y-86738095D01*
X133762142Y-86690476D01*
X133857380Y-104785714D02*
X132857380Y-104785714D01*
X132857380Y-105023809D01*
X132905000Y-105166666D01*
X133000238Y-105261904D01*
X133095476Y-105309523D01*
X133285952Y-105357142D01*
X133428809Y-105357142D01*
X133619285Y-105309523D01*
X133714523Y-105261904D01*
X133809761Y-105166666D01*
X133857380Y-105023809D01*
X133857380Y-104785714D01*
X133857380Y-106309523D02*
X133857380Y-105738095D01*
X133857380Y-106023809D02*
X132857380Y-106023809D01*
X133000238Y-105928571D01*
X133095476Y-105833333D01*
X133143095Y-105738095D01*
X133190714Y-107166666D02*
X133857380Y-107166666D01*
X132809761Y-106928571D02*
X133524047Y-106690476D01*
X133524047Y-107309523D01*
X133857380Y-124785714D02*
X132857380Y-124785714D01*
X132857380Y-125023809D01*
X132905000Y-125166666D01*
X133000238Y-125261904D01*
X133095476Y-125309523D01*
X133285952Y-125357142D01*
X133428809Y-125357142D01*
X133619285Y-125309523D01*
X133714523Y-125261904D01*
X133809761Y-125166666D01*
X133857380Y-125023809D01*
X133857380Y-124785714D01*
X133857380Y-126309523D02*
X133857380Y-125738095D01*
X133857380Y-126023809D02*
X132857380Y-126023809D01*
X133000238Y-125928571D01*
X133095476Y-125833333D01*
X133143095Y-125738095D01*
X132857380Y-126642857D02*
X132857380Y-127261904D01*
X133238333Y-126928571D01*
X133238333Y-127071428D01*
X133285952Y-127166666D01*
X133333571Y-127214285D01*
X133428809Y-127261904D01*
X133666904Y-127261904D01*
X133762142Y-127214285D01*
X133809761Y-127166666D01*
X133857380Y-127071428D01*
X133857380Y-126785714D01*
X133809761Y-126690476D01*
X133762142Y-126642857D01*
X153857380Y-64785714D02*
X152857380Y-64785714D01*
X152857380Y-65023809D01*
X152905000Y-65166666D01*
X153000238Y-65261904D01*
X153095476Y-65309523D01*
X153285952Y-65357142D01*
X153428809Y-65357142D01*
X153619285Y-65309523D01*
X153714523Y-65261904D01*
X153809761Y-65166666D01*
X153857380Y-65023809D01*
X153857380Y-64785714D01*
X153857380Y-66309523D02*
X153857380Y-65738095D01*
X153857380Y-66023809D02*
X152857380Y-66023809D01*
X153000238Y-65928571D01*
X153095476Y-65833333D01*
X153143095Y-65738095D01*
X152952619Y-66690476D02*
X152905000Y-66738095D01*
X152857380Y-66833333D01*
X152857380Y-67071428D01*
X152905000Y-67166666D01*
X152952619Y-67214285D01*
X153047857Y-67261904D01*
X153143095Y-67261904D01*
X153285952Y-67214285D01*
X153857380Y-66642857D01*
X153857380Y-67261904D01*
X153857380Y-84785714D02*
X152857380Y-84785714D01*
X152857380Y-85023809D01*
X152905000Y-85166666D01*
X153000238Y-85261904D01*
X153095476Y-85309523D01*
X153285952Y-85357142D01*
X153428809Y-85357142D01*
X153619285Y-85309523D01*
X153714523Y-85261904D01*
X153809761Y-85166666D01*
X153857380Y-85023809D01*
X153857380Y-84785714D01*
X153857380Y-86309523D02*
X153857380Y-85738095D01*
X153857380Y-86023809D02*
X152857380Y-86023809D01*
X153000238Y-85928571D01*
X153095476Y-85833333D01*
X153143095Y-85738095D01*
X153857380Y-87261904D02*
X153857380Y-86690476D01*
X153857380Y-86976190D02*
X152857380Y-86976190D01*
X153000238Y-86880952D01*
X153095476Y-86785714D01*
X153143095Y-86690476D01*
X153857380Y-104785714D02*
X152857380Y-104785714D01*
X152857380Y-105023809D01*
X152905000Y-105166666D01*
X153000238Y-105261904D01*
X153095476Y-105309523D01*
X153285952Y-105357142D01*
X153428809Y-105357142D01*
X153619285Y-105309523D01*
X153714523Y-105261904D01*
X153809761Y-105166666D01*
X153857380Y-105023809D01*
X153857380Y-104785714D01*
X153857380Y-106309523D02*
X153857380Y-105738095D01*
X153857380Y-106023809D02*
X152857380Y-106023809D01*
X153000238Y-105928571D01*
X153095476Y-105833333D01*
X153143095Y-105738095D01*
X152857380Y-106928571D02*
X152857380Y-107023809D01*
X152905000Y-107119047D01*
X152952619Y-107166666D01*
X153047857Y-107214285D01*
X153238333Y-107261904D01*
X153476428Y-107261904D01*
X153666904Y-107214285D01*
X153762142Y-107166666D01*
X153809761Y-107119047D01*
X153857380Y-107023809D01*
X153857380Y-106928571D01*
X153809761Y-106833333D01*
X153762142Y-106785714D01*
X153666904Y-106738095D01*
X153476428Y-106690476D01*
X153238333Y-106690476D01*
X153047857Y-106738095D01*
X152952619Y-106785714D01*
X152905000Y-106833333D01*
X152857380Y-106928571D01*
X153857380Y-125261904D02*
X152857380Y-125261904D01*
X152857380Y-125500000D01*
X152905000Y-125642857D01*
X153000238Y-125738095D01*
X153095476Y-125785714D01*
X153285952Y-125833333D01*
X153428809Y-125833333D01*
X153619285Y-125785714D01*
X153714523Y-125738095D01*
X153809761Y-125642857D01*
X153857380Y-125500000D01*
X153857380Y-125261904D01*
X153857380Y-126309523D02*
X153857380Y-126500000D01*
X153809761Y-126595238D01*
X153762142Y-126642857D01*
X153619285Y-126738095D01*
X153428809Y-126785714D01*
X153047857Y-126785714D01*
X152952619Y-126738095D01*
X152905000Y-126690476D01*
X152857380Y-126595238D01*
X152857380Y-126404761D01*
X152905000Y-126309523D01*
X152952619Y-126261904D01*
X153047857Y-126214285D01*
X153285952Y-126214285D01*
X153381190Y-126261904D01*
X153428809Y-126309523D01*
X153476428Y-126404761D01*
X153476428Y-126595238D01*
X153428809Y-126690476D01*
X153381190Y-126738095D01*
X153285952Y-126785714D01*
X173857380Y-65261904D02*
X172857380Y-65261904D01*
X172857380Y-65500000D01*
X172905000Y-65642857D01*
X173000238Y-65738095D01*
X173095476Y-65785714D01*
X173285952Y-65833333D01*
X173428809Y-65833333D01*
X173619285Y-65785714D01*
X173714523Y-65738095D01*
X173809761Y-65642857D01*
X173857380Y-65500000D01*
X173857380Y-65261904D01*
X173285952Y-66404761D02*
X173238333Y-66309523D01*
X173190714Y-66261904D01*
X173095476Y-66214285D01*
X173047857Y-66214285D01*
X172952619Y-66261904D01*
X172905000Y-66309523D01*
X172857380Y-66404761D01*
X172857380Y-66595238D01*
X172905000Y-66690476D01*
X172952619Y-66738095D01*
X173047857Y-66785714D01*
X173095476Y-66785714D01*
X173190714Y-66738095D01*
X173238333Y-66690476D01*
X173285952Y-66595238D01*
X173285952Y-66404761D01*
X173333571Y-66309523D01*
X173381190Y-66261904D01*
X173476428Y-66214285D01*
X173666904Y-66214285D01*
X173762142Y-66261904D01*
X173809761Y-66309523D01*
X173857380Y-66404761D01*
X173857380Y-66595238D01*
X173809761Y-66690476D01*
X173762142Y-66738095D01*
X173666904Y-66785714D01*
X173476428Y-66785714D01*
X173381190Y-66738095D01*
X173333571Y-66690476D01*
X173285952Y-66595238D01*
X173857380Y-85261904D02*
X172857380Y-85261904D01*
X172857380Y-85500000D01*
X172905000Y-85642857D01*
X173000238Y-85738095D01*
X173095476Y-85785714D01*
X173285952Y-85833333D01*
X173428809Y-85833333D01*
X173619285Y-85785714D01*
X173714523Y-85738095D01*
X173809761Y-85642857D01*
X173857380Y-85500000D01*
X173857380Y-85261904D01*
X172857380Y-86166666D02*
X172857380Y-86833333D01*
X173857380Y-86404761D01*
X173857380Y-105261904D02*
X172857380Y-105261904D01*
X172857380Y-105500000D01*
X172905000Y-105642857D01*
X173000238Y-105738095D01*
X173095476Y-105785714D01*
X173285952Y-105833333D01*
X173428809Y-105833333D01*
X173619285Y-105785714D01*
X173714523Y-105738095D01*
X173809761Y-105642857D01*
X173857380Y-105500000D01*
X173857380Y-105261904D01*
X172857380Y-106690476D02*
X172857380Y-106500000D01*
X172905000Y-106404761D01*
X172952619Y-106357142D01*
X173095476Y-106261904D01*
X173285952Y-106214285D01*
X173666904Y-106214285D01*
X173762142Y-106261904D01*
X173809761Y-106309523D01*
X173857380Y-106404761D01*
X173857380Y-106595238D01*
X173809761Y-106690476D01*
X173762142Y-106738095D01*
X173666904Y-106785714D01*
X173428809Y-106785714D01*
X173333571Y-106738095D01*
X173285952Y-106690476D01*
X173238333Y-106595238D01*
X173238333Y-106404761D01*
X173285952Y-106309523D01*
X173333571Y-106261904D01*
X173428809Y-106214285D01*
X173857380Y-125261904D02*
X172857380Y-125261904D01*
X172857380Y-125500000D01*
X172905000Y-125642857D01*
X173000238Y-125738095D01*
X173095476Y-125785714D01*
X173285952Y-125833333D01*
X173428809Y-125833333D01*
X173619285Y-125785714D01*
X173714523Y-125738095D01*
X173809761Y-125642857D01*
X173857380Y-125500000D01*
X173857380Y-125261904D01*
X172857380Y-126738095D02*
X172857380Y-126261904D01*
X173333571Y-126214285D01*
X173285952Y-126261904D01*
X173238333Y-126357142D01*
X173238333Y-126595238D01*
X173285952Y-126690476D01*
X173333571Y-126738095D01*
X173428809Y-126785714D01*
X173666904Y-126785714D01*
X173762142Y-126738095D01*
X173809761Y-126690476D01*
X173857380Y-126595238D01*
X173857380Y-126357142D01*
X173809761Y-126261904D01*
X173762142Y-126214285D01*
X193857380Y-65261904D02*
X192857380Y-65261904D01*
X192857380Y-65500000D01*
X192905000Y-65642857D01*
X193000238Y-65738095D01*
X193095476Y-65785714D01*
X193285952Y-65833333D01*
X193428809Y-65833333D01*
X193619285Y-65785714D01*
X193714523Y-65738095D01*
X193809761Y-65642857D01*
X193857380Y-65500000D01*
X193857380Y-65261904D01*
X193190714Y-66690476D02*
X193857380Y-66690476D01*
X192809761Y-66452380D02*
X193524047Y-66214285D01*
X193524047Y-66833333D01*
X193857380Y-85261904D02*
X192857380Y-85261904D01*
X192857380Y-85500000D01*
X192905000Y-85642857D01*
X193000238Y-85738095D01*
X193095476Y-85785714D01*
X193285952Y-85833333D01*
X193428809Y-85833333D01*
X193619285Y-85785714D01*
X193714523Y-85738095D01*
X193809761Y-85642857D01*
X193857380Y-85500000D01*
X193857380Y-85261904D01*
X192857380Y-86166666D02*
X192857380Y-86785714D01*
X193238333Y-86452380D01*
X193238333Y-86595238D01*
X193285952Y-86690476D01*
X193333571Y-86738095D01*
X193428809Y-86785714D01*
X193666904Y-86785714D01*
X193762142Y-86738095D01*
X193809761Y-86690476D01*
X193857380Y-86595238D01*
X193857380Y-86309523D01*
X193809761Y-86214285D01*
X193762142Y-86166666D01*
X193857380Y-105261904D02*
X192857380Y-105261904D01*
X192857380Y-105500000D01*
X192905000Y-105642857D01*
X193000238Y-105738095D01*
X193095476Y-105785714D01*
X193285952Y-105833333D01*
X193428809Y-105833333D01*
X193619285Y-105785714D01*
X193714523Y-105738095D01*
X193809761Y-105642857D01*
X193857380Y-105500000D01*
X193857380Y-105261904D01*
X192952619Y-106214285D02*
X192905000Y-106261904D01*
X192857380Y-106357142D01*
X192857380Y-106595238D01*
X192905000Y-106690476D01*
X192952619Y-106738095D01*
X193047857Y-106785714D01*
X193143095Y-106785714D01*
X193285952Y-106738095D01*
X193857380Y-106166666D01*
X193857380Y-106785714D01*
X192357380Y-125261904D02*
X191357380Y-125261904D01*
X191357380Y-125500000D01*
X191405000Y-125642857D01*
X191500238Y-125738095D01*
X191595476Y-125785714D01*
X191785952Y-125833333D01*
X191928809Y-125833333D01*
X192119285Y-125785714D01*
X192214523Y-125738095D01*
X192309761Y-125642857D01*
X192357380Y-125500000D01*
X192357380Y-125261904D01*
X192357380Y-126785714D02*
X192357380Y-126214285D01*
X192357380Y-126500000D02*
X191357380Y-126500000D01*
X191500238Y-126404761D01*
X191595476Y-126309523D01*
X191643095Y-126214285D01*
X118357380Y-98952380D02*
X118357380Y-98380952D01*
X118357380Y-98666666D02*
X117357380Y-98666666D01*
X117500238Y-98571428D01*
X117595476Y-98476190D01*
X117643095Y-98380952D01*
X117357380Y-99571428D02*
X117357380Y-99666666D01*
X117405000Y-99761904D01*
X117452619Y-99809523D01*
X117547857Y-99857142D01*
X117738333Y-99904761D01*
X117976428Y-99904761D01*
X118166904Y-99857142D01*
X118262142Y-99809523D01*
X118309761Y-99761904D01*
X118357380Y-99666666D01*
X118357380Y-99571428D01*
X118309761Y-99476190D01*
X118262142Y-99428571D01*
X118166904Y-99380952D01*
X117976428Y-99333333D01*
X117738333Y-99333333D01*
X117547857Y-99380952D01*
X117452619Y-99428571D01*
X117405000Y-99476190D01*
X117357380Y-99571428D01*
X117357380Y-100523809D02*
X117357380Y-100619047D01*
X117405000Y-100714285D01*
X117452619Y-100761904D01*
X117547857Y-100809523D01*
X117738333Y-100857142D01*
X117976428Y-100857142D01*
X118166904Y-100809523D01*
X118262142Y-100761904D01*
X118309761Y-100714285D01*
X118357380Y-100619047D01*
X118357380Y-100523809D01*
X118309761Y-100428571D01*
X118262142Y-100380952D01*
X118166904Y-100333333D01*
X117976428Y-100285714D01*
X117738333Y-100285714D01*
X117547857Y-100333333D01*
X117452619Y-100380952D01*
X117405000Y-100428571D01*
X117357380Y-100523809D01*
X117690714Y-101285714D02*
X118357380Y-101285714D01*
X117785952Y-101285714D02*
X117738333Y-101333333D01*
X117690714Y-101428571D01*
X117690714Y-101571428D01*
X117738333Y-101666666D01*
X117833571Y-101714285D01*
X118357380Y-101714285D01*
X117833571Y-102523809D02*
X117833571Y-102190476D01*
X118357380Y-102190476D02*
X117357380Y-102190476D01*
X117357380Y-102666666D01*
X138357380Y-98952380D02*
X138357380Y-98380952D01*
X138357380Y-98666666D02*
X137357380Y-98666666D01*
X137500238Y-98571428D01*
X137595476Y-98476190D01*
X137643095Y-98380952D01*
X137357380Y-99571428D02*
X137357380Y-99666666D01*
X137405000Y-99761904D01*
X137452619Y-99809523D01*
X137547857Y-99857142D01*
X137738333Y-99904761D01*
X137976428Y-99904761D01*
X138166904Y-99857142D01*
X138262142Y-99809523D01*
X138309761Y-99761904D01*
X138357380Y-99666666D01*
X138357380Y-99571428D01*
X138309761Y-99476190D01*
X138262142Y-99428571D01*
X138166904Y-99380952D01*
X137976428Y-99333333D01*
X137738333Y-99333333D01*
X137547857Y-99380952D01*
X137452619Y-99428571D01*
X137405000Y-99476190D01*
X137357380Y-99571428D01*
X137357380Y-100523809D02*
X137357380Y-100619047D01*
X137405000Y-100714285D01*
X137452619Y-100761904D01*
X137547857Y-100809523D01*
X137738333Y-100857142D01*
X137976428Y-100857142D01*
X138166904Y-100809523D01*
X138262142Y-100761904D01*
X138309761Y-100714285D01*
X138357380Y-100619047D01*
X138357380Y-100523809D01*
X138309761Y-100428571D01*
X138262142Y-100380952D01*
X138166904Y-100333333D01*
X137976428Y-100285714D01*
X137738333Y-100285714D01*
X137547857Y-100333333D01*
X137452619Y-100380952D01*
X137405000Y-100428571D01*
X137357380Y-100523809D01*
X137690714Y-101285714D02*
X138357380Y-101285714D01*
X137785952Y-101285714D02*
X137738333Y-101333333D01*
X137690714Y-101428571D01*
X137690714Y-101571428D01*
X137738333Y-101666666D01*
X137833571Y-101714285D01*
X138357380Y-101714285D01*
X137833571Y-102523809D02*
X137833571Y-102190476D01*
X138357380Y-102190476D02*
X137357380Y-102190476D01*
X137357380Y-102666666D01*
X158202380Y-98952380D02*
X158202380Y-98380952D01*
X158202380Y-98666666D02*
X157202380Y-98666666D01*
X157345238Y-98571428D01*
X157440476Y-98476190D01*
X157488095Y-98380952D01*
X157202380Y-99571428D02*
X157202380Y-99666666D01*
X157250000Y-99761904D01*
X157297619Y-99809523D01*
X157392857Y-99857142D01*
X157583333Y-99904761D01*
X157821428Y-99904761D01*
X158011904Y-99857142D01*
X158107142Y-99809523D01*
X158154761Y-99761904D01*
X158202380Y-99666666D01*
X158202380Y-99571428D01*
X158154761Y-99476190D01*
X158107142Y-99428571D01*
X158011904Y-99380952D01*
X157821428Y-99333333D01*
X157583333Y-99333333D01*
X157392857Y-99380952D01*
X157297619Y-99428571D01*
X157250000Y-99476190D01*
X157202380Y-99571428D01*
X157202380Y-100523809D02*
X157202380Y-100619047D01*
X157250000Y-100714285D01*
X157297619Y-100761904D01*
X157392857Y-100809523D01*
X157583333Y-100857142D01*
X157821428Y-100857142D01*
X158011904Y-100809523D01*
X158107142Y-100761904D01*
X158154761Y-100714285D01*
X158202380Y-100619047D01*
X158202380Y-100523809D01*
X158154761Y-100428571D01*
X158107142Y-100380952D01*
X158011904Y-100333333D01*
X157821428Y-100285714D01*
X157583333Y-100285714D01*
X157392857Y-100333333D01*
X157297619Y-100380952D01*
X157250000Y-100428571D01*
X157202380Y-100523809D01*
X157535714Y-101285714D02*
X158202380Y-101285714D01*
X157630952Y-101285714D02*
X157583333Y-101333333D01*
X157535714Y-101428571D01*
X157535714Y-101571428D01*
X157583333Y-101666666D01*
X157678571Y-101714285D01*
X158202380Y-101714285D01*
X157678571Y-102523809D02*
X157678571Y-102190476D01*
X158202380Y-102190476D02*
X157202380Y-102190476D01*
X157202380Y-102666666D01*
X178202380Y-98952380D02*
X178202380Y-98380952D01*
X178202380Y-98666666D02*
X177202380Y-98666666D01*
X177345238Y-98571428D01*
X177440476Y-98476190D01*
X177488095Y-98380952D01*
X177202380Y-99571428D02*
X177202380Y-99666666D01*
X177250000Y-99761904D01*
X177297619Y-99809523D01*
X177392857Y-99857142D01*
X177583333Y-99904761D01*
X177821428Y-99904761D01*
X178011904Y-99857142D01*
X178107142Y-99809523D01*
X178154761Y-99761904D01*
X178202380Y-99666666D01*
X178202380Y-99571428D01*
X178154761Y-99476190D01*
X178107142Y-99428571D01*
X178011904Y-99380952D01*
X177821428Y-99333333D01*
X177583333Y-99333333D01*
X177392857Y-99380952D01*
X177297619Y-99428571D01*
X177250000Y-99476190D01*
X177202380Y-99571428D01*
X177202380Y-100523809D02*
X177202380Y-100619047D01*
X177250000Y-100714285D01*
X177297619Y-100761904D01*
X177392857Y-100809523D01*
X177583333Y-100857142D01*
X177821428Y-100857142D01*
X178011904Y-100809523D01*
X178107142Y-100761904D01*
X178154761Y-100714285D01*
X178202380Y-100619047D01*
X178202380Y-100523809D01*
X178154761Y-100428571D01*
X178107142Y-100380952D01*
X178011904Y-100333333D01*
X177821428Y-100285714D01*
X177583333Y-100285714D01*
X177392857Y-100333333D01*
X177297619Y-100380952D01*
X177250000Y-100428571D01*
X177202380Y-100523809D01*
X177535714Y-101285714D02*
X178202380Y-101285714D01*
X177630952Y-101285714D02*
X177583333Y-101333333D01*
X177535714Y-101428571D01*
X177535714Y-101571428D01*
X177583333Y-101666666D01*
X177678571Y-101714285D01*
X178202380Y-101714285D01*
X177678571Y-102523809D02*
X177678571Y-102190476D01*
X178202380Y-102190476D02*
X177202380Y-102190476D01*
X177202380Y-102666666D01*
X196502380Y-103852380D02*
X196502380Y-103280952D01*
X196502380Y-103566666D02*
X195502380Y-103566666D01*
X195645238Y-103471428D01*
X195740476Y-103376190D01*
X195788095Y-103280952D01*
X195502380Y-104471428D02*
X195502380Y-104566666D01*
X195550000Y-104661904D01*
X195597619Y-104709523D01*
X195692857Y-104757142D01*
X195883333Y-104804761D01*
X196121428Y-104804761D01*
X196311904Y-104757142D01*
X196407142Y-104709523D01*
X196454761Y-104661904D01*
X196502380Y-104566666D01*
X196502380Y-104471428D01*
X196454761Y-104376190D01*
X196407142Y-104328571D01*
X196311904Y-104280952D01*
X196121428Y-104233333D01*
X195883333Y-104233333D01*
X195692857Y-104280952D01*
X195597619Y-104328571D01*
X195550000Y-104376190D01*
X195502380Y-104471428D01*
X195502380Y-105423809D02*
X195502380Y-105519047D01*
X195550000Y-105614285D01*
X195597619Y-105661904D01*
X195692857Y-105709523D01*
X195883333Y-105757142D01*
X196121428Y-105757142D01*
X196311904Y-105709523D01*
X196407142Y-105661904D01*
X196454761Y-105614285D01*
X196502380Y-105519047D01*
X196502380Y-105423809D01*
X196454761Y-105328571D01*
X196407142Y-105280952D01*
X196311904Y-105233333D01*
X196121428Y-105185714D01*
X195883333Y-105185714D01*
X195692857Y-105233333D01*
X195597619Y-105280952D01*
X195550000Y-105328571D01*
X195502380Y-105423809D01*
X195835714Y-106185714D02*
X196502380Y-106185714D01*
X195930952Y-106185714D02*
X195883333Y-106233333D01*
X195835714Y-106328571D01*
X195835714Y-106471428D01*
X195883333Y-106566666D01*
X195978571Y-106614285D01*
X196502380Y-106614285D01*
X195978571Y-107423809D02*
X195978571Y-107090476D01*
X196502380Y-107090476D02*
X195502380Y-107090476D01*
X195502380Y-107566666D01*
X195142857Y-42297619D02*
X195095238Y-42250000D01*
X195000000Y-42202380D01*
X194761904Y-42202380D01*
X194666666Y-42250000D01*
X194619047Y-42297619D01*
X194571428Y-42392857D01*
X194571428Y-42488095D01*
X194619047Y-42630952D01*
X195190476Y-43202380D01*
X194571428Y-43202380D01*
X194190476Y-42297619D02*
X194142857Y-42250000D01*
X194047619Y-42202380D01*
X193809523Y-42202380D01*
X193714285Y-42250000D01*
X193666666Y-42297619D01*
X193619047Y-42392857D01*
X193619047Y-42488095D01*
X193666666Y-42630952D01*
X194238095Y-43202380D01*
X193619047Y-43202380D01*
X193190476Y-42535714D02*
X193190476Y-43535714D01*
X193190476Y-42583333D02*
X193095238Y-42535714D01*
X192904761Y-42535714D01*
X192809523Y-42583333D01*
X192761904Y-42630952D01*
X192714285Y-42726190D01*
X192714285Y-43011904D01*
X192761904Y-43107142D01*
X192809523Y-43154761D01*
X192904761Y-43202380D01*
X193095238Y-43202380D01*
X193190476Y-43154761D01*
X191952380Y-42678571D02*
X192285714Y-42678571D01*
X192285714Y-43202380D02*
X192285714Y-42202380D01*
X191809523Y-42202380D01*
X184797619Y-34407142D02*
X184750000Y-34454761D01*
X184702380Y-34550000D01*
X184702380Y-34788095D01*
X184750000Y-34883333D01*
X184797619Y-34930952D01*
X184892857Y-34978571D01*
X184988095Y-34978571D01*
X185130952Y-34930952D01*
X185702380Y-34359523D01*
X185702380Y-34978571D01*
X184797619Y-35359523D02*
X184750000Y-35407142D01*
X184702380Y-35502380D01*
X184702380Y-35740476D01*
X184750000Y-35835714D01*
X184797619Y-35883333D01*
X184892857Y-35930952D01*
X184988095Y-35930952D01*
X185130952Y-35883333D01*
X185702380Y-35311904D01*
X185702380Y-35930952D01*
X185035714Y-36359523D02*
X186035714Y-36359523D01*
X185083333Y-36359523D02*
X185035714Y-36454761D01*
X185035714Y-36645238D01*
X185083333Y-36740476D01*
X185130952Y-36788095D01*
X185226190Y-36835714D01*
X185511904Y-36835714D01*
X185607142Y-36788095D01*
X185654761Y-36740476D01*
X185702380Y-36645238D01*
X185702380Y-36454761D01*
X185654761Y-36359523D01*
X185178571Y-37597619D02*
X185178571Y-37264285D01*
X185702380Y-37264285D02*
X184702380Y-37264285D01*
X184702380Y-37740476D01*
X137695238Y-36497380D02*
X138266666Y-36497380D01*
X137980952Y-36497380D02*
X137980952Y-35497380D01*
X138076190Y-35640238D01*
X138171428Y-35735476D01*
X138266666Y-35783095D01*
X136838095Y-35830714D02*
X136838095Y-36497380D01*
X137266666Y-35830714D02*
X137266666Y-36354523D01*
X137219047Y-36449761D01*
X137123809Y-36497380D01*
X136980952Y-36497380D01*
X136885714Y-36449761D01*
X136838095Y-36402142D01*
X136028571Y-35973571D02*
X136361904Y-35973571D01*
X136361904Y-36497380D02*
X136361904Y-35497380D01*
X135885714Y-35497380D01*
X164702380Y-38654761D02*
X164702380Y-38083333D01*
X164702380Y-38369047D02*
X163702380Y-38369047D01*
X163845238Y-38273809D01*
X163940476Y-38178571D01*
X163988095Y-38083333D01*
X164035714Y-39511904D02*
X164702380Y-39511904D01*
X164035714Y-39083333D02*
X164559523Y-39083333D01*
X164654761Y-39130952D01*
X164702380Y-39226190D01*
X164702380Y-39369047D01*
X164654761Y-39464285D01*
X164607142Y-39511904D01*
X164178571Y-40321428D02*
X164178571Y-39988095D01*
X164702380Y-39988095D02*
X163702380Y-39988095D01*
X163702380Y-40464285D01*
X164547380Y-43202380D02*
X164547380Y-42630952D01*
X164547380Y-42916666D02*
X163547380Y-42916666D01*
X163690238Y-42821428D01*
X163785476Y-42726190D01*
X163833095Y-42630952D01*
X163547380Y-43821428D02*
X163547380Y-43916666D01*
X163595000Y-44011904D01*
X163642619Y-44059523D01*
X163737857Y-44107142D01*
X163928333Y-44154761D01*
X164166428Y-44154761D01*
X164356904Y-44107142D01*
X164452142Y-44059523D01*
X164499761Y-44011904D01*
X164547380Y-43916666D01*
X164547380Y-43821428D01*
X164499761Y-43726190D01*
X164452142Y-43678571D01*
X164356904Y-43630952D01*
X164166428Y-43583333D01*
X163928333Y-43583333D01*
X163737857Y-43630952D01*
X163642619Y-43678571D01*
X163595000Y-43726190D01*
X163547380Y-43821428D01*
X163547380Y-44773809D02*
X163547380Y-44869047D01*
X163595000Y-44964285D01*
X163642619Y-45011904D01*
X163737857Y-45059523D01*
X163928333Y-45107142D01*
X164166428Y-45107142D01*
X164356904Y-45059523D01*
X164452142Y-45011904D01*
X164499761Y-44964285D01*
X164547380Y-44869047D01*
X164547380Y-44773809D01*
X164499761Y-44678571D01*
X164452142Y-44630952D01*
X164356904Y-44583333D01*
X164166428Y-44535714D01*
X163928333Y-44535714D01*
X163737857Y-44583333D01*
X163642619Y-44630952D01*
X163595000Y-44678571D01*
X163547380Y-44773809D01*
X163880714Y-45535714D02*
X164547380Y-45535714D01*
X163975952Y-45535714D02*
X163928333Y-45583333D01*
X163880714Y-45678571D01*
X163880714Y-45821428D01*
X163928333Y-45916666D01*
X164023571Y-45964285D01*
X164547380Y-45964285D01*
X164023571Y-46773809D02*
X164023571Y-46440476D01*
X164547380Y-46440476D02*
X163547380Y-46440476D01*
X163547380Y-46916666D01*
M02*
