G04 #@! TF.GenerationSoftware,KiCad,Pcbnew,(5.1.9)-1*
G04 #@! TF.CreationDate,2021-02-04T21:44:09+01:00*
G04 #@! TF.ProjectId,Makrokeyboard,4d616b72-6f6b-4657-9962-6f6172642e6b,rev?*
G04 #@! TF.SameCoordinates,Original*
G04 #@! TF.FileFunction,Copper,L1,Top*
G04 #@! TF.FilePolarity,Positive*
%FSLAX46Y46*%
G04 Gerber Fmt 4.6, Leading zero omitted, Abs format (unit mm)*
G04 Created by KiCad (PCBNEW (5.1.9)-1) date 2021-02-04 21:44:09*
%MOMM*%
%LPD*%
G01*
G04 APERTURE LIST*
G04 #@! TA.AperFunction,ComponentPad*
%ADD10C,1.700000*%
G04 #@! TD*
G04 #@! TA.AperFunction,SMDPad,CuDef*
%ADD11R,1.000000X1.500000*%
G04 #@! TD*
G04 #@! TA.AperFunction,ComponentPad*
%ADD12C,3.000000*%
G04 #@! TD*
G04 #@! TA.AperFunction,ViaPad*
%ADD13C,0.800000*%
G04 #@! TD*
G04 #@! TA.AperFunction,Conductor*
%ADD14C,0.300000*%
G04 #@! TD*
G04 #@! TA.AperFunction,Conductor*
%ADD15C,0.250000*%
G04 #@! TD*
G04 #@! TA.AperFunction,Conductor*
%ADD16C,0.400000*%
G04 #@! TD*
G04 #@! TA.AperFunction,Conductor*
%ADD17C,0.254000*%
G04 #@! TD*
G04 #@! TA.AperFunction,Conductor*
%ADD18C,0.100000*%
G04 #@! TD*
G04 APERTURE END LIST*
D10*
X148670000Y-38150000D03*
X146130000Y-35610000D03*
X148670000Y-35610000D03*
X148670000Y-40690000D03*
X146130000Y-40690000D03*
X146130000Y-38150000D03*
D11*
X124900000Y-43150000D03*
X122900000Y-43150000D03*
X127950000Y-43100000D03*
X129950000Y-43100000D03*
D12*
X106460000Y-63580000D03*
X112810000Y-61040000D03*
X106460000Y-83580000D03*
X112810000Y-81040000D03*
X106460000Y-103580000D03*
X112810000Y-101040000D03*
X106460000Y-123580000D03*
X112810000Y-121040000D03*
X126460000Y-63580000D03*
X132810000Y-61040000D03*
X126460000Y-83580000D03*
X132810000Y-81040000D03*
X126460000Y-103580000D03*
X132810000Y-101040000D03*
X126460000Y-123580000D03*
X132810000Y-121040000D03*
X146460000Y-63580000D03*
X152810000Y-61040000D03*
X146460000Y-83580000D03*
X152810000Y-81040000D03*
X146460000Y-103580000D03*
X152810000Y-101040000D03*
X146460000Y-123580000D03*
X152810000Y-121040000D03*
X166460000Y-63580000D03*
X172810000Y-61040000D03*
X166460000Y-83580000D03*
X172810000Y-81040000D03*
X166460000Y-103580000D03*
X172810000Y-101040000D03*
X166460000Y-123580000D03*
X172810000Y-121040000D03*
X186460000Y-63580000D03*
X192810000Y-61040000D03*
X186460000Y-83580000D03*
X192810000Y-81040000D03*
X186460000Y-103580000D03*
X192810000Y-101040000D03*
X186460000Y-123580000D03*
X192810000Y-121040000D03*
D13*
X117250000Y-36500000D03*
X156500000Y-34750000D03*
X163750000Y-42750000D03*
X168500000Y-37750000D03*
X182250000Y-91750000D03*
X104000000Y-92750000D03*
X116750000Y-76000000D03*
X183750000Y-34250000D03*
X172750000Y-43750000D03*
X116250000Y-115750000D03*
X195500000Y-106000000D03*
X194750000Y-117500000D03*
X194000000Y-77000000D03*
X185750000Y-43750000D03*
X116000000Y-42250000D03*
X186000000Y-50250000D03*
X191500000Y-75750000D03*
X122750000Y-52250000D03*
X122000000Y-58000000D03*
X115250000Y-53750000D03*
X110500000Y-45250000D03*
X146800000Y-45600000D03*
X182250000Y-52750000D03*
X181250000Y-52750000D03*
X179500000Y-53000000D03*
X177000000Y-51500000D03*
X185500000Y-48000000D03*
X182000000Y-124750000D03*
X189250000Y-48000000D03*
X194250000Y-105250000D03*
X194500000Y-50750000D03*
X194500000Y-86750000D03*
X108500000Y-42250000D03*
X195250000Y-114000000D03*
X160800000Y-36600000D03*
X161200000Y-37950000D03*
X127800000Y-41300000D03*
X124700000Y-41250000D03*
D14*
X122750000Y-52250000D02*
X122000000Y-53000000D01*
X122000000Y-53000000D02*
X122000000Y-58000000D01*
X114850001Y-53350001D02*
X114850001Y-49600001D01*
X115250000Y-53750000D02*
X114850001Y-53350001D01*
X114850001Y-49600001D02*
X110500000Y-45250000D01*
D15*
X148670000Y-43730000D02*
X146800000Y-45600000D01*
X148670000Y-40690000D02*
X148670000Y-43730000D01*
D16*
X192810000Y-61040000D02*
X192810000Y-81040000D01*
X192810000Y-81040000D02*
X192810000Y-101040000D01*
X192810000Y-101040000D02*
X192810000Y-121040000D01*
X172810000Y-61040000D02*
X172810000Y-81040000D01*
X172810000Y-81040000D02*
X172810000Y-101040000D01*
X172810000Y-101040000D02*
X172810000Y-121040000D01*
D14*
X174210000Y-61040000D02*
X172810000Y-61040000D01*
X182250000Y-52750000D02*
X182250000Y-53000000D01*
X182250000Y-53000000D02*
X174210000Y-61040000D01*
D16*
X152810000Y-61040000D02*
X152810000Y-81040000D01*
X152810000Y-101040000D02*
X152810000Y-81040000D01*
X152810000Y-101040000D02*
X152810000Y-121040000D01*
D14*
X152810000Y-61040000D02*
X157849220Y-56000780D01*
X180850001Y-53149999D02*
X181250000Y-52750000D01*
X177999220Y-56000780D02*
X180850001Y-53149999D01*
X157849220Y-56000780D02*
X177999220Y-56000780D01*
D16*
X132810000Y-61040000D02*
X132810000Y-81040000D01*
X132810000Y-81040000D02*
X132810000Y-101040000D01*
X132810000Y-101040000D02*
X132810000Y-121040000D01*
D14*
X176250000Y-53000000D02*
X179500000Y-53000000D01*
X142500000Y-47500000D02*
X170750000Y-47500000D01*
X170750000Y-47500000D02*
X176250000Y-53000000D01*
X132810000Y-61040000D02*
X132810000Y-57190000D01*
X132810000Y-57190000D02*
X142500000Y-47500000D01*
D16*
X112810000Y-121040000D02*
X112810000Y-101040000D01*
X112810000Y-101040000D02*
X112810000Y-81040000D01*
X112810000Y-81040000D02*
X112810000Y-61040000D01*
D14*
X112810000Y-58190000D02*
X112810000Y-61040000D01*
X124250000Y-46750000D02*
X112810000Y-58190000D01*
X171000000Y-46750000D02*
X124250000Y-46750000D01*
X177000000Y-51500000D02*
X175750000Y-51500000D01*
X175750000Y-51500000D02*
X171000000Y-46750000D01*
X183000001Y-50499999D02*
X183000001Y-124499999D01*
X185500000Y-48000000D02*
X183000001Y-50499999D01*
X183000001Y-124499999D02*
X182750000Y-124750000D01*
X182750000Y-124750000D02*
X182000000Y-124750000D01*
X195250000Y-104250000D02*
X194250000Y-105250000D01*
X195250000Y-99500000D02*
X195250000Y-104250000D01*
X193500000Y-97750000D02*
X195250000Y-99500000D01*
X189250000Y-48000000D02*
X190250000Y-48000000D01*
X195750000Y-53500000D02*
X195750000Y-84389998D01*
X195750000Y-84389998D02*
X193500000Y-86639998D01*
X190250000Y-48000000D02*
X195750000Y-53500000D01*
X193500000Y-86639998D02*
X193500000Y-97750000D01*
X194899999Y-86350001D02*
X194500000Y-86750000D01*
X196500000Y-84750000D02*
X194899999Y-86350001D01*
X194500000Y-50750000D02*
X196500000Y-52750000D01*
X196500000Y-52750000D02*
X196500000Y-84750000D01*
X196000000Y-114750000D02*
X195250000Y-114000000D01*
X192250000Y-127250000D02*
X196000000Y-123500000D01*
X104000000Y-127250000D02*
X192250000Y-127250000D01*
X108100001Y-42649999D02*
X108100001Y-47899999D01*
X108100001Y-47899999D02*
X102000000Y-54000000D01*
X102000000Y-54000000D02*
X102000000Y-125250000D01*
X108500000Y-42250000D02*
X108100001Y-42649999D01*
X196000000Y-123500000D02*
X196000000Y-114750000D01*
X102000000Y-125250000D02*
X104000000Y-127250000D01*
D15*
X159250000Y-38150000D02*
X148670000Y-38150000D01*
X160800000Y-36600000D02*
X159250000Y-38150000D01*
X147380000Y-39400000D02*
X146130000Y-38150000D01*
X159750000Y-39400000D02*
X147380000Y-39400000D01*
X161200000Y-37950000D02*
X159750000Y-39400000D01*
X127800000Y-42950000D02*
X127950000Y-43100000D01*
X127800000Y-41300000D02*
X127800000Y-42950000D01*
X124700000Y-42950000D02*
X124900000Y-43150000D01*
X124700000Y-41250000D02*
X124700000Y-42950000D01*
D17*
X196340001Y-51479843D02*
X195535000Y-50674843D01*
X195535000Y-50648061D01*
X195495226Y-50448102D01*
X195417205Y-50259744D01*
X195303937Y-50090226D01*
X195159774Y-49946063D01*
X194990256Y-49832795D01*
X194801898Y-49754774D01*
X194601939Y-49715000D01*
X194398061Y-49715000D01*
X194198102Y-49754774D01*
X194009744Y-49832795D01*
X193840226Y-49946063D01*
X193696063Y-50090226D01*
X193597658Y-50237501D01*
X192011694Y-48651537D01*
X192377244Y-48802953D01*
X192789721Y-48885000D01*
X193210279Y-48885000D01*
X193622756Y-48802953D01*
X194011302Y-48642012D01*
X194360983Y-48408363D01*
X194658363Y-48110983D01*
X194892012Y-47761302D01*
X195052953Y-47372756D01*
X195135000Y-46960279D01*
X195135000Y-46539721D01*
X195052953Y-46127244D01*
X194892012Y-45738698D01*
X194658363Y-45389017D01*
X194360983Y-45091637D01*
X194011302Y-44857988D01*
X193622756Y-44697047D01*
X193210279Y-44615000D01*
X192789721Y-44615000D01*
X192377244Y-44697047D01*
X191988698Y-44857988D01*
X191639017Y-45091637D01*
X191341637Y-45389017D01*
X191107988Y-45738698D01*
X190947047Y-46127244D01*
X190865000Y-46539721D01*
X190865000Y-46960279D01*
X190947047Y-47372756D01*
X191098463Y-47738306D01*
X190832347Y-47472190D01*
X190807764Y-47442236D01*
X190688233Y-47344138D01*
X190551860Y-47271246D01*
X190403887Y-47226359D01*
X190288561Y-47215000D01*
X190288553Y-47215000D01*
X190250000Y-47211203D01*
X190211447Y-47215000D01*
X189928711Y-47215000D01*
X189909774Y-47196063D01*
X189740256Y-47082795D01*
X189551898Y-47004774D01*
X189351939Y-46965000D01*
X189148061Y-46965000D01*
X188948102Y-47004774D01*
X188759744Y-47082795D01*
X188590226Y-47196063D01*
X188446063Y-47340226D01*
X188332795Y-47509744D01*
X188254774Y-47698102D01*
X188215000Y-47898061D01*
X188215000Y-48101939D01*
X188254774Y-48301898D01*
X188332795Y-48490256D01*
X188446063Y-48659774D01*
X188590226Y-48803937D01*
X188759744Y-48917205D01*
X188948102Y-48995226D01*
X189148061Y-49035000D01*
X189351939Y-49035000D01*
X189551898Y-48995226D01*
X189740256Y-48917205D01*
X189909774Y-48803937D01*
X189926777Y-48786934D01*
X194965000Y-53825157D01*
X194965001Y-84064840D01*
X193645000Y-85384841D01*
X193645000Y-83005039D01*
X193821302Y-82932012D01*
X194170983Y-82698363D01*
X194468363Y-82400983D01*
X194702012Y-82051302D01*
X194862953Y-81662756D01*
X194945000Y-81250279D01*
X194945000Y-80829721D01*
X194862953Y-80417244D01*
X194702012Y-80028698D01*
X194468363Y-79679017D01*
X194170983Y-79381637D01*
X193821302Y-79147988D01*
X193645000Y-79074961D01*
X193645000Y-63005039D01*
X193821302Y-62932012D01*
X194170983Y-62698363D01*
X194468363Y-62400983D01*
X194702012Y-62051302D01*
X194862953Y-61662756D01*
X194945000Y-61250279D01*
X194945000Y-60829721D01*
X194862953Y-60417244D01*
X194702012Y-60028698D01*
X194468363Y-59679017D01*
X194170983Y-59381637D01*
X193821302Y-59147988D01*
X193432756Y-58987047D01*
X193020279Y-58905000D01*
X192599721Y-58905000D01*
X192187244Y-58987047D01*
X191798698Y-59147988D01*
X191501422Y-59346621D01*
X191533739Y-59268601D01*
X191635000Y-58759525D01*
X191635000Y-58240475D01*
X191533739Y-57731399D01*
X191335107Y-57251859D01*
X191046738Y-56820285D01*
X190679715Y-56453262D01*
X190248141Y-56164893D01*
X189826825Y-55990378D01*
X189907502Y-55965905D01*
X190317489Y-55746763D01*
X190676846Y-55451846D01*
X190971763Y-55092490D01*
X191190905Y-54682503D01*
X191325853Y-54237641D01*
X191360000Y-53890939D01*
X191360000Y-51609061D01*
X191325853Y-51262359D01*
X191190905Y-50817497D01*
X190971763Y-50407510D01*
X190676846Y-50048154D01*
X190317490Y-49753237D01*
X189907503Y-49534095D01*
X189462641Y-49399147D01*
X189000000Y-49353581D01*
X188537360Y-49399147D01*
X188092498Y-49534095D01*
X187682511Y-49753237D01*
X187323155Y-50048154D01*
X187028238Y-50407510D01*
X186809095Y-50817497D01*
X186674147Y-51262359D01*
X186640000Y-51609061D01*
X186640000Y-53890938D01*
X186674147Y-54237640D01*
X186809095Y-54682502D01*
X187028237Y-55092489D01*
X187323154Y-55451846D01*
X187682510Y-55746763D01*
X188092497Y-55965905D01*
X188173175Y-55990378D01*
X187751859Y-56164893D01*
X187320285Y-56453262D01*
X186953262Y-56820285D01*
X186664893Y-57251859D01*
X186466261Y-57731399D01*
X186365000Y-58240475D01*
X186365000Y-58759525D01*
X186466261Y-59268601D01*
X186664893Y-59748141D01*
X186953262Y-60179715D01*
X187320285Y-60546738D01*
X187751859Y-60835107D01*
X188231399Y-61033739D01*
X188740475Y-61135000D01*
X189259525Y-61135000D01*
X189768601Y-61033739D01*
X190248141Y-60835107D01*
X190679715Y-60546738D01*
X190744095Y-60482358D01*
X190675000Y-60829721D01*
X190675000Y-61250279D01*
X190757047Y-61662756D01*
X190917988Y-62051302D01*
X191151637Y-62400983D01*
X191449017Y-62698363D01*
X191798698Y-62932012D01*
X191975000Y-63005039D01*
X191975001Y-79074961D01*
X191798698Y-79147988D01*
X191501422Y-79346621D01*
X191533739Y-79268601D01*
X191635000Y-78759525D01*
X191635000Y-78240475D01*
X191533739Y-77731399D01*
X191335107Y-77251859D01*
X191046738Y-76820285D01*
X190679715Y-76453262D01*
X190248141Y-76164893D01*
X189826825Y-75990378D01*
X189907503Y-75965905D01*
X190317490Y-75746763D01*
X190676846Y-75451846D01*
X190971763Y-75092490D01*
X191190905Y-74682503D01*
X191325853Y-74237641D01*
X191360000Y-73890939D01*
X191360000Y-71609061D01*
X191325853Y-71262359D01*
X191190905Y-70817497D01*
X190971763Y-70407510D01*
X190676846Y-70048154D01*
X190317489Y-69753237D01*
X189907502Y-69534095D01*
X189462640Y-69399147D01*
X189000000Y-69353581D01*
X188537359Y-69399147D01*
X188092497Y-69534095D01*
X187682510Y-69753237D01*
X187323154Y-70048154D01*
X187028237Y-70407511D01*
X186809095Y-70817498D01*
X186674147Y-71262360D01*
X186640000Y-71609062D01*
X186640000Y-73890939D01*
X186674147Y-74237641D01*
X186809095Y-74682503D01*
X187028238Y-75092490D01*
X187323155Y-75451846D01*
X187682511Y-75746763D01*
X188092498Y-75965905D01*
X188173175Y-75990378D01*
X187751859Y-76164893D01*
X187320285Y-76453262D01*
X186953262Y-76820285D01*
X186664893Y-77251859D01*
X186466261Y-77731399D01*
X186365000Y-78240475D01*
X186365000Y-78759525D01*
X186466261Y-79268601D01*
X186664893Y-79748141D01*
X186953262Y-80179715D01*
X187320285Y-80546738D01*
X187751859Y-80835107D01*
X188231399Y-81033739D01*
X188740475Y-81135000D01*
X189259525Y-81135000D01*
X189768601Y-81033739D01*
X190248141Y-80835107D01*
X190679715Y-80546738D01*
X190744095Y-80482358D01*
X190675000Y-80829721D01*
X190675000Y-81250279D01*
X190757047Y-81662756D01*
X190917988Y-82051302D01*
X191151637Y-82400983D01*
X191449017Y-82698363D01*
X191798698Y-82932012D01*
X191975000Y-83005039D01*
X191975001Y-99074961D01*
X191798698Y-99147988D01*
X191501422Y-99346621D01*
X191533739Y-99268601D01*
X191635000Y-98759525D01*
X191635000Y-98240475D01*
X191533739Y-97731399D01*
X191335107Y-97251859D01*
X191046738Y-96820285D01*
X190679715Y-96453262D01*
X190248141Y-96164893D01*
X189826825Y-95990378D01*
X189907502Y-95965905D01*
X190317489Y-95746763D01*
X190676846Y-95451846D01*
X190971763Y-95092490D01*
X191190905Y-94682503D01*
X191325853Y-94237641D01*
X191360000Y-93890939D01*
X191360000Y-91609061D01*
X191325853Y-91262359D01*
X191190905Y-90817497D01*
X190971763Y-90407510D01*
X190676846Y-90048154D01*
X190317490Y-89753237D01*
X189907503Y-89534095D01*
X189462641Y-89399147D01*
X189000000Y-89353581D01*
X188537360Y-89399147D01*
X188092498Y-89534095D01*
X187682511Y-89753237D01*
X187323155Y-90048154D01*
X187028238Y-90407510D01*
X186809095Y-90817497D01*
X186674147Y-91262359D01*
X186640000Y-91609061D01*
X186640000Y-93890938D01*
X186674147Y-94237640D01*
X186809095Y-94682502D01*
X187028237Y-95092489D01*
X187323154Y-95451846D01*
X187682510Y-95746763D01*
X188092497Y-95965905D01*
X188173175Y-95990378D01*
X187751859Y-96164893D01*
X187320285Y-96453262D01*
X186953262Y-96820285D01*
X186664893Y-97251859D01*
X186466261Y-97731399D01*
X186365000Y-98240475D01*
X186365000Y-98759525D01*
X186466261Y-99268601D01*
X186664893Y-99748141D01*
X186953262Y-100179715D01*
X187320285Y-100546738D01*
X187751859Y-100835107D01*
X188231399Y-101033739D01*
X188740475Y-101135000D01*
X189259525Y-101135000D01*
X189768601Y-101033739D01*
X190248141Y-100835107D01*
X190679715Y-100546738D01*
X190744095Y-100482358D01*
X190675000Y-100829721D01*
X190675000Y-101250279D01*
X190757047Y-101662756D01*
X190917988Y-102051302D01*
X191151637Y-102400983D01*
X191449017Y-102698363D01*
X191798698Y-102932012D01*
X191975000Y-103005039D01*
X191975001Y-119074961D01*
X191798698Y-119147988D01*
X191501422Y-119346621D01*
X191533739Y-119268601D01*
X191635000Y-118759525D01*
X191635000Y-118240475D01*
X191533739Y-117731399D01*
X191335107Y-117251859D01*
X191046738Y-116820285D01*
X190679715Y-116453262D01*
X190248141Y-116164893D01*
X189826825Y-115990378D01*
X189907503Y-115965905D01*
X190317490Y-115746763D01*
X190676846Y-115451846D01*
X190971763Y-115092490D01*
X191190905Y-114682503D01*
X191325853Y-114237641D01*
X191360000Y-113890939D01*
X191360000Y-111609061D01*
X191325853Y-111262359D01*
X191190905Y-110817497D01*
X190971763Y-110407510D01*
X190676846Y-110048154D01*
X190317489Y-109753237D01*
X189907502Y-109534095D01*
X189462640Y-109399147D01*
X189000000Y-109353581D01*
X188537359Y-109399147D01*
X188092497Y-109534095D01*
X187682510Y-109753237D01*
X187323154Y-110048154D01*
X187028237Y-110407511D01*
X186809095Y-110817498D01*
X186674147Y-111262360D01*
X186640000Y-111609062D01*
X186640000Y-113890939D01*
X186674147Y-114237641D01*
X186809095Y-114682503D01*
X187028238Y-115092490D01*
X187323155Y-115451846D01*
X187682511Y-115746763D01*
X188092498Y-115965905D01*
X188173175Y-115990378D01*
X187751859Y-116164893D01*
X187320285Y-116453262D01*
X186953262Y-116820285D01*
X186664893Y-117251859D01*
X186466261Y-117731399D01*
X186365000Y-118240475D01*
X186365000Y-118759525D01*
X186466261Y-119268601D01*
X186664893Y-119748141D01*
X186953262Y-120179715D01*
X187320285Y-120546738D01*
X187751859Y-120835107D01*
X188231399Y-121033739D01*
X188740475Y-121135000D01*
X189259525Y-121135000D01*
X189768601Y-121033739D01*
X190248141Y-120835107D01*
X190679715Y-120546738D01*
X190744095Y-120482358D01*
X190675000Y-120829721D01*
X190675000Y-121250279D01*
X190757047Y-121662756D01*
X190917988Y-122051302D01*
X191151637Y-122400983D01*
X191449017Y-122698363D01*
X191798698Y-122932012D01*
X192187244Y-123092953D01*
X192599721Y-123175000D01*
X193020279Y-123175000D01*
X193432756Y-123092953D01*
X193821302Y-122932012D01*
X194170983Y-122698363D01*
X194468363Y-122400983D01*
X194702012Y-122051302D01*
X194862953Y-121662756D01*
X194945000Y-121250279D01*
X194945000Y-120829721D01*
X194862953Y-120417244D01*
X194702012Y-120028698D01*
X194468363Y-119679017D01*
X194170983Y-119381637D01*
X193821302Y-119147988D01*
X193645000Y-119074961D01*
X193645000Y-106090536D01*
X193759744Y-106167205D01*
X193948102Y-106245226D01*
X194148061Y-106285000D01*
X194351939Y-106285000D01*
X194551898Y-106245226D01*
X194740256Y-106167205D01*
X194909774Y-106053937D01*
X195053937Y-105909774D01*
X195167205Y-105740256D01*
X195245226Y-105551898D01*
X195285000Y-105351939D01*
X195285000Y-105325157D01*
X195777810Y-104832347D01*
X195807764Y-104807764D01*
X195905862Y-104688233D01*
X195978754Y-104551860D01*
X196023642Y-104403887D01*
X196031020Y-104328974D01*
X196035000Y-104288561D01*
X196035000Y-104288556D01*
X196038797Y-104250000D01*
X196035000Y-104211444D01*
X196035000Y-99538556D01*
X196038797Y-99500000D01*
X196035000Y-99461440D01*
X196035000Y-99461439D01*
X196027140Y-99381637D01*
X196023642Y-99346113D01*
X195978754Y-99198140D01*
X195905862Y-99061767D01*
X195807764Y-98942236D01*
X195777811Y-98917654D01*
X194285000Y-97424843D01*
X194285000Y-87762511D01*
X194398061Y-87785000D01*
X194601939Y-87785000D01*
X194801898Y-87745226D01*
X194990256Y-87667205D01*
X195159774Y-87553937D01*
X195303937Y-87409774D01*
X195417205Y-87240256D01*
X195495226Y-87051898D01*
X195535000Y-86851939D01*
X195535000Y-86825157D01*
X196340000Y-86020157D01*
X196340000Y-113979842D01*
X196285000Y-113924842D01*
X196285000Y-113898061D01*
X196245226Y-113698102D01*
X196167205Y-113509744D01*
X196053937Y-113340226D01*
X195909774Y-113196063D01*
X195740256Y-113082795D01*
X195551898Y-113004774D01*
X195351939Y-112965000D01*
X195148061Y-112965000D01*
X194948102Y-113004774D01*
X194759744Y-113082795D01*
X194590226Y-113196063D01*
X194446063Y-113340226D01*
X194332795Y-113509744D01*
X194254774Y-113698102D01*
X194215000Y-113898061D01*
X194215000Y-114101939D01*
X194254774Y-114301898D01*
X194332795Y-114490256D01*
X194446063Y-114659774D01*
X194590226Y-114803937D01*
X194759744Y-114917205D01*
X194948102Y-114995226D01*
X195148061Y-115035000D01*
X195174842Y-115035000D01*
X195215001Y-115075159D01*
X195215000Y-123174843D01*
X191924843Y-126465000D01*
X104325158Y-126465000D01*
X102785000Y-124924843D01*
X102785000Y-123369721D01*
X104325000Y-123369721D01*
X104325000Y-123790279D01*
X104407047Y-124202756D01*
X104567988Y-124591302D01*
X104801637Y-124940983D01*
X105099017Y-125238363D01*
X105448698Y-125472012D01*
X105837244Y-125632953D01*
X106249721Y-125715000D01*
X106670279Y-125715000D01*
X107082756Y-125632953D01*
X107471302Y-125472012D01*
X107820983Y-125238363D01*
X108118363Y-124940983D01*
X108352012Y-124591302D01*
X108512953Y-124202756D01*
X108595000Y-123790279D01*
X108595000Y-123369721D01*
X124325000Y-123369721D01*
X124325000Y-123790279D01*
X124407047Y-124202756D01*
X124567988Y-124591302D01*
X124801637Y-124940983D01*
X125099017Y-125238363D01*
X125448698Y-125472012D01*
X125837244Y-125632953D01*
X126249721Y-125715000D01*
X126670279Y-125715000D01*
X127082756Y-125632953D01*
X127471302Y-125472012D01*
X127820983Y-125238363D01*
X128118363Y-124940983D01*
X128352012Y-124591302D01*
X128512953Y-124202756D01*
X128595000Y-123790279D01*
X128595000Y-123369721D01*
X144325000Y-123369721D01*
X144325000Y-123790279D01*
X144407047Y-124202756D01*
X144567988Y-124591302D01*
X144801637Y-124940983D01*
X145099017Y-125238363D01*
X145448698Y-125472012D01*
X145837244Y-125632953D01*
X146249721Y-125715000D01*
X146670279Y-125715000D01*
X147082756Y-125632953D01*
X147471302Y-125472012D01*
X147820983Y-125238363D01*
X148118363Y-124940983D01*
X148352012Y-124591302D01*
X148512953Y-124202756D01*
X148595000Y-123790279D01*
X148595000Y-123369721D01*
X164325000Y-123369721D01*
X164325000Y-123790279D01*
X164407047Y-124202756D01*
X164567988Y-124591302D01*
X164801637Y-124940983D01*
X165099017Y-125238363D01*
X165448698Y-125472012D01*
X165837244Y-125632953D01*
X166249721Y-125715000D01*
X166670279Y-125715000D01*
X167082756Y-125632953D01*
X167471302Y-125472012D01*
X167820983Y-125238363D01*
X168118363Y-124940983D01*
X168352012Y-124591302D01*
X168512953Y-124202756D01*
X168595000Y-123790279D01*
X168595000Y-123369721D01*
X168512953Y-122957244D01*
X168352012Y-122568698D01*
X168118363Y-122219017D01*
X167820983Y-121921637D01*
X167471302Y-121687988D01*
X167082756Y-121527047D01*
X166670279Y-121445000D01*
X166249721Y-121445000D01*
X165837244Y-121527047D01*
X165448698Y-121687988D01*
X165099017Y-121921637D01*
X164801637Y-122219017D01*
X164567988Y-122568698D01*
X164407047Y-122957244D01*
X164325000Y-123369721D01*
X148595000Y-123369721D01*
X148512953Y-122957244D01*
X148352012Y-122568698D01*
X148118363Y-122219017D01*
X147820983Y-121921637D01*
X147471302Y-121687988D01*
X147082756Y-121527047D01*
X146670279Y-121445000D01*
X146249721Y-121445000D01*
X145837244Y-121527047D01*
X145448698Y-121687988D01*
X145099017Y-121921637D01*
X144801637Y-122219017D01*
X144567988Y-122568698D01*
X144407047Y-122957244D01*
X144325000Y-123369721D01*
X128595000Y-123369721D01*
X128512953Y-122957244D01*
X128352012Y-122568698D01*
X128118363Y-122219017D01*
X127820983Y-121921637D01*
X127471302Y-121687988D01*
X127082756Y-121527047D01*
X126670279Y-121445000D01*
X126249721Y-121445000D01*
X125837244Y-121527047D01*
X125448698Y-121687988D01*
X125099017Y-121921637D01*
X124801637Y-122219017D01*
X124567988Y-122568698D01*
X124407047Y-122957244D01*
X124325000Y-123369721D01*
X108595000Y-123369721D01*
X108512953Y-122957244D01*
X108352012Y-122568698D01*
X108118363Y-122219017D01*
X107820983Y-121921637D01*
X107471302Y-121687988D01*
X107082756Y-121527047D01*
X106670279Y-121445000D01*
X106249721Y-121445000D01*
X105837244Y-121527047D01*
X105448698Y-121687988D01*
X105099017Y-121921637D01*
X104801637Y-122219017D01*
X104567988Y-122568698D01*
X104407047Y-122957244D01*
X104325000Y-123369721D01*
X102785000Y-123369721D01*
X102785000Y-103369721D01*
X104325000Y-103369721D01*
X104325000Y-103790279D01*
X104407047Y-104202756D01*
X104567988Y-104591302D01*
X104801637Y-104940983D01*
X105099017Y-105238363D01*
X105448698Y-105472012D01*
X105837244Y-105632953D01*
X106249721Y-105715000D01*
X106670279Y-105715000D01*
X107082756Y-105632953D01*
X107471302Y-105472012D01*
X107820983Y-105238363D01*
X108118363Y-104940983D01*
X108352012Y-104591302D01*
X108512953Y-104202756D01*
X108595000Y-103790279D01*
X108595000Y-103369721D01*
X108512953Y-102957244D01*
X108352012Y-102568698D01*
X108118363Y-102219017D01*
X107820983Y-101921637D01*
X107471302Y-101687988D01*
X107082756Y-101527047D01*
X106670279Y-101445000D01*
X106249721Y-101445000D01*
X105837244Y-101527047D01*
X105448698Y-101687988D01*
X105099017Y-101921637D01*
X104801637Y-102219017D01*
X104567988Y-102568698D01*
X104407047Y-102957244D01*
X104325000Y-103369721D01*
X102785000Y-103369721D01*
X102785000Y-83369721D01*
X104325000Y-83369721D01*
X104325000Y-83790279D01*
X104407047Y-84202756D01*
X104567988Y-84591302D01*
X104801637Y-84940983D01*
X105099017Y-85238363D01*
X105448698Y-85472012D01*
X105837244Y-85632953D01*
X106249721Y-85715000D01*
X106670279Y-85715000D01*
X107082756Y-85632953D01*
X107471302Y-85472012D01*
X107820983Y-85238363D01*
X108118363Y-84940983D01*
X108352012Y-84591302D01*
X108512953Y-84202756D01*
X108595000Y-83790279D01*
X108595000Y-83369721D01*
X108512953Y-82957244D01*
X108352012Y-82568698D01*
X108118363Y-82219017D01*
X107820983Y-81921637D01*
X107471302Y-81687988D01*
X107082756Y-81527047D01*
X106670279Y-81445000D01*
X106249721Y-81445000D01*
X105837244Y-81527047D01*
X105448698Y-81687988D01*
X105099017Y-81921637D01*
X104801637Y-82219017D01*
X104567988Y-82568698D01*
X104407047Y-82957244D01*
X104325000Y-83369721D01*
X102785000Y-83369721D01*
X102785000Y-63369721D01*
X104325000Y-63369721D01*
X104325000Y-63790279D01*
X104407047Y-64202756D01*
X104567988Y-64591302D01*
X104801637Y-64940983D01*
X105099017Y-65238363D01*
X105448698Y-65472012D01*
X105837244Y-65632953D01*
X106249721Y-65715000D01*
X106670279Y-65715000D01*
X107082756Y-65632953D01*
X107471302Y-65472012D01*
X107820983Y-65238363D01*
X108118363Y-64940983D01*
X108352012Y-64591302D01*
X108512953Y-64202756D01*
X108595000Y-63790279D01*
X108595000Y-63369721D01*
X108512953Y-62957244D01*
X108352012Y-62568698D01*
X108118363Y-62219017D01*
X107820983Y-61921637D01*
X107471302Y-61687988D01*
X107082756Y-61527047D01*
X106670279Y-61445000D01*
X106249721Y-61445000D01*
X105837244Y-61527047D01*
X105448698Y-61687988D01*
X105099017Y-61921637D01*
X104801637Y-62219017D01*
X104567988Y-62568698D01*
X104407047Y-62957244D01*
X104325000Y-63369721D01*
X102785000Y-63369721D01*
X102785000Y-58240475D01*
X106365000Y-58240475D01*
X106365000Y-58759525D01*
X106466261Y-59268601D01*
X106664893Y-59748141D01*
X106953262Y-60179715D01*
X107320285Y-60546738D01*
X107751859Y-60835107D01*
X108231399Y-61033739D01*
X108740475Y-61135000D01*
X109259525Y-61135000D01*
X109768601Y-61033739D01*
X110248141Y-60835107D01*
X110679715Y-60546738D01*
X110744095Y-60482358D01*
X110675000Y-60829721D01*
X110675000Y-61250279D01*
X110757047Y-61662756D01*
X110917988Y-62051302D01*
X111151637Y-62400983D01*
X111449017Y-62698363D01*
X111798698Y-62932012D01*
X111975001Y-63005039D01*
X111975000Y-79074961D01*
X111798698Y-79147988D01*
X111501422Y-79346621D01*
X111533739Y-79268601D01*
X111635000Y-78759525D01*
X111635000Y-78240475D01*
X111533739Y-77731399D01*
X111335107Y-77251859D01*
X111046738Y-76820285D01*
X110679715Y-76453262D01*
X110248141Y-76164893D01*
X109826825Y-75990378D01*
X109907503Y-75965905D01*
X110317490Y-75746763D01*
X110676846Y-75451846D01*
X110971763Y-75092490D01*
X111190905Y-74682503D01*
X111325853Y-74237641D01*
X111360000Y-73890939D01*
X111360000Y-71609061D01*
X111325853Y-71262359D01*
X111190905Y-70817497D01*
X110971763Y-70407510D01*
X110676846Y-70048154D01*
X110317489Y-69753237D01*
X109907502Y-69534095D01*
X109462640Y-69399147D01*
X109000000Y-69353581D01*
X108537359Y-69399147D01*
X108092497Y-69534095D01*
X107682510Y-69753237D01*
X107323154Y-70048154D01*
X107028237Y-70407511D01*
X106809095Y-70817498D01*
X106674147Y-71262360D01*
X106640000Y-71609062D01*
X106640000Y-73890939D01*
X106674147Y-74237641D01*
X106809095Y-74682503D01*
X107028238Y-75092490D01*
X107323155Y-75451846D01*
X107682511Y-75746763D01*
X108092498Y-75965905D01*
X108173175Y-75990378D01*
X107751859Y-76164893D01*
X107320285Y-76453262D01*
X106953262Y-76820285D01*
X106664893Y-77251859D01*
X106466261Y-77731399D01*
X106365000Y-78240475D01*
X106365000Y-78759525D01*
X106466261Y-79268601D01*
X106664893Y-79748141D01*
X106953262Y-80179715D01*
X107320285Y-80546738D01*
X107751859Y-80835107D01*
X108231399Y-81033739D01*
X108740475Y-81135000D01*
X109259525Y-81135000D01*
X109768601Y-81033739D01*
X110248141Y-80835107D01*
X110679715Y-80546738D01*
X110744095Y-80482358D01*
X110675000Y-80829721D01*
X110675000Y-81250279D01*
X110757047Y-81662756D01*
X110917988Y-82051302D01*
X111151637Y-82400983D01*
X111449017Y-82698363D01*
X111798698Y-82932012D01*
X111975001Y-83005039D01*
X111975000Y-99074961D01*
X111798698Y-99147988D01*
X111501422Y-99346621D01*
X111533739Y-99268601D01*
X111635000Y-98759525D01*
X111635000Y-98240475D01*
X111533739Y-97731399D01*
X111335107Y-97251859D01*
X111046738Y-96820285D01*
X110679715Y-96453262D01*
X110248141Y-96164893D01*
X109826825Y-95990378D01*
X109907502Y-95965905D01*
X110317489Y-95746763D01*
X110676846Y-95451846D01*
X110971763Y-95092490D01*
X111190905Y-94682503D01*
X111325853Y-94237641D01*
X111360000Y-93890939D01*
X111360000Y-91609061D01*
X111325853Y-91262359D01*
X111190905Y-90817497D01*
X110971763Y-90407510D01*
X110676846Y-90048154D01*
X110317490Y-89753237D01*
X109907503Y-89534095D01*
X109462641Y-89399147D01*
X109000000Y-89353581D01*
X108537360Y-89399147D01*
X108092498Y-89534095D01*
X107682511Y-89753237D01*
X107323155Y-90048154D01*
X107028238Y-90407510D01*
X106809095Y-90817497D01*
X106674147Y-91262359D01*
X106640000Y-91609061D01*
X106640000Y-93890938D01*
X106674147Y-94237640D01*
X106809095Y-94682502D01*
X107028237Y-95092489D01*
X107323154Y-95451846D01*
X107682510Y-95746763D01*
X108092497Y-95965905D01*
X108173175Y-95990378D01*
X107751859Y-96164893D01*
X107320285Y-96453262D01*
X106953262Y-96820285D01*
X106664893Y-97251859D01*
X106466261Y-97731399D01*
X106365000Y-98240475D01*
X106365000Y-98759525D01*
X106466261Y-99268601D01*
X106664893Y-99748141D01*
X106953262Y-100179715D01*
X107320285Y-100546738D01*
X107751859Y-100835107D01*
X108231399Y-101033739D01*
X108740475Y-101135000D01*
X109259525Y-101135000D01*
X109768601Y-101033739D01*
X110248141Y-100835107D01*
X110679715Y-100546738D01*
X110744095Y-100482358D01*
X110675000Y-100829721D01*
X110675000Y-101250279D01*
X110757047Y-101662756D01*
X110917988Y-102051302D01*
X111151637Y-102400983D01*
X111449017Y-102698363D01*
X111798698Y-102932012D01*
X111975001Y-103005039D01*
X111975000Y-119074961D01*
X111798698Y-119147988D01*
X111501422Y-119346621D01*
X111533739Y-119268601D01*
X111635000Y-118759525D01*
X111635000Y-118240475D01*
X111533739Y-117731399D01*
X111335107Y-117251859D01*
X111046738Y-116820285D01*
X110679715Y-116453262D01*
X110248141Y-116164893D01*
X109826825Y-115990378D01*
X109907503Y-115965905D01*
X110317490Y-115746763D01*
X110676846Y-115451846D01*
X110971763Y-115092490D01*
X111190905Y-114682503D01*
X111325853Y-114237641D01*
X111360000Y-113890939D01*
X111360000Y-111609061D01*
X111325853Y-111262359D01*
X111190905Y-110817497D01*
X110971763Y-110407510D01*
X110676846Y-110048154D01*
X110317489Y-109753237D01*
X109907502Y-109534095D01*
X109462640Y-109399147D01*
X109000000Y-109353581D01*
X108537359Y-109399147D01*
X108092497Y-109534095D01*
X107682510Y-109753237D01*
X107323154Y-110048154D01*
X107028237Y-110407511D01*
X106809095Y-110817498D01*
X106674147Y-111262360D01*
X106640000Y-111609062D01*
X106640000Y-113890939D01*
X106674147Y-114237641D01*
X106809095Y-114682503D01*
X107028238Y-115092490D01*
X107323155Y-115451846D01*
X107682511Y-115746763D01*
X108092498Y-115965905D01*
X108173175Y-115990378D01*
X107751859Y-116164893D01*
X107320285Y-116453262D01*
X106953262Y-116820285D01*
X106664893Y-117251859D01*
X106466261Y-117731399D01*
X106365000Y-118240475D01*
X106365000Y-118759525D01*
X106466261Y-119268601D01*
X106664893Y-119748141D01*
X106953262Y-120179715D01*
X107320285Y-120546738D01*
X107751859Y-120835107D01*
X108231399Y-121033739D01*
X108740475Y-121135000D01*
X109259525Y-121135000D01*
X109768601Y-121033739D01*
X110248141Y-120835107D01*
X110679715Y-120546738D01*
X110744095Y-120482358D01*
X110675000Y-120829721D01*
X110675000Y-121250279D01*
X110757047Y-121662756D01*
X110917988Y-122051302D01*
X111151637Y-122400983D01*
X111449017Y-122698363D01*
X111798698Y-122932012D01*
X112187244Y-123092953D01*
X112599721Y-123175000D01*
X113020279Y-123175000D01*
X113432756Y-123092953D01*
X113821302Y-122932012D01*
X114170983Y-122698363D01*
X114468363Y-122400983D01*
X114702012Y-122051302D01*
X114862953Y-121662756D01*
X114945000Y-121250279D01*
X114945000Y-120829721D01*
X114862953Y-120417244D01*
X114702012Y-120028698D01*
X114468363Y-119679017D01*
X114170983Y-119381637D01*
X113821302Y-119147988D01*
X113645000Y-119074961D01*
X113645000Y-108039721D01*
X116865000Y-108039721D01*
X116865000Y-108460279D01*
X116947047Y-108872756D01*
X117107988Y-109261302D01*
X117341637Y-109610983D01*
X117639017Y-109908363D01*
X117988698Y-110142012D01*
X118377244Y-110302953D01*
X118789721Y-110385000D01*
X119210279Y-110385000D01*
X119622756Y-110302953D01*
X120011302Y-110142012D01*
X120360983Y-109908363D01*
X120658363Y-109610983D01*
X120892012Y-109261302D01*
X121052953Y-108872756D01*
X121135000Y-108460279D01*
X121135000Y-108039721D01*
X121052953Y-107627244D01*
X120892012Y-107238698D01*
X120658363Y-106889017D01*
X120360983Y-106591637D01*
X120011302Y-106357988D01*
X119622756Y-106197047D01*
X119210279Y-106115000D01*
X118789721Y-106115000D01*
X118377244Y-106197047D01*
X117988698Y-106357988D01*
X117639017Y-106591637D01*
X117341637Y-106889017D01*
X117107988Y-107238698D01*
X116947047Y-107627244D01*
X116865000Y-108039721D01*
X113645000Y-108039721D01*
X113645000Y-103369721D01*
X124325000Y-103369721D01*
X124325000Y-103790279D01*
X124407047Y-104202756D01*
X124567988Y-104591302D01*
X124801637Y-104940983D01*
X125099017Y-105238363D01*
X125448698Y-105472012D01*
X125837244Y-105632953D01*
X126249721Y-105715000D01*
X126670279Y-105715000D01*
X127082756Y-105632953D01*
X127471302Y-105472012D01*
X127820983Y-105238363D01*
X128118363Y-104940983D01*
X128352012Y-104591302D01*
X128512953Y-104202756D01*
X128595000Y-103790279D01*
X128595000Y-103369721D01*
X128512953Y-102957244D01*
X128352012Y-102568698D01*
X128118363Y-102219017D01*
X127820983Y-101921637D01*
X127471302Y-101687988D01*
X127082756Y-101527047D01*
X126670279Y-101445000D01*
X126249721Y-101445000D01*
X125837244Y-101527047D01*
X125448698Y-101687988D01*
X125099017Y-101921637D01*
X124801637Y-102219017D01*
X124567988Y-102568698D01*
X124407047Y-102957244D01*
X124325000Y-103369721D01*
X113645000Y-103369721D01*
X113645000Y-103005039D01*
X113821302Y-102932012D01*
X114170983Y-102698363D01*
X114468363Y-102400983D01*
X114702012Y-102051302D01*
X114862953Y-101662756D01*
X114945000Y-101250279D01*
X114945000Y-100829721D01*
X114862953Y-100417244D01*
X114702012Y-100028698D01*
X114468363Y-99679017D01*
X114170983Y-99381637D01*
X113821302Y-99147988D01*
X113645000Y-99074961D01*
X113645000Y-83369721D01*
X124325000Y-83369721D01*
X124325000Y-83790279D01*
X124407047Y-84202756D01*
X124567988Y-84591302D01*
X124801637Y-84940983D01*
X125099017Y-85238363D01*
X125448698Y-85472012D01*
X125837244Y-85632953D01*
X126249721Y-85715000D01*
X126670279Y-85715000D01*
X127082756Y-85632953D01*
X127471302Y-85472012D01*
X127820983Y-85238363D01*
X128118363Y-84940983D01*
X128352012Y-84591302D01*
X128512953Y-84202756D01*
X128595000Y-83790279D01*
X128595000Y-83369721D01*
X128512953Y-82957244D01*
X128352012Y-82568698D01*
X128118363Y-82219017D01*
X127820983Y-81921637D01*
X127471302Y-81687988D01*
X127082756Y-81527047D01*
X126670279Y-81445000D01*
X126249721Y-81445000D01*
X125837244Y-81527047D01*
X125448698Y-81687988D01*
X125099017Y-81921637D01*
X124801637Y-82219017D01*
X124567988Y-82568698D01*
X124407047Y-82957244D01*
X124325000Y-83369721D01*
X113645000Y-83369721D01*
X113645000Y-83005039D01*
X113821302Y-82932012D01*
X114170983Y-82698363D01*
X114468363Y-82400983D01*
X114702012Y-82051302D01*
X114862953Y-81662756D01*
X114945000Y-81250279D01*
X114945000Y-80829721D01*
X114862953Y-80417244D01*
X114702012Y-80028698D01*
X114468363Y-79679017D01*
X114170983Y-79381637D01*
X113821302Y-79147988D01*
X113645000Y-79074961D01*
X113645000Y-63369721D01*
X124325000Y-63369721D01*
X124325000Y-63790279D01*
X124407047Y-64202756D01*
X124567988Y-64591302D01*
X124801637Y-64940983D01*
X125099017Y-65238363D01*
X125448698Y-65472012D01*
X125837244Y-65632953D01*
X126249721Y-65715000D01*
X126670279Y-65715000D01*
X127082756Y-65632953D01*
X127471302Y-65472012D01*
X127820983Y-65238363D01*
X128118363Y-64940983D01*
X128352012Y-64591302D01*
X128512953Y-64202756D01*
X128595000Y-63790279D01*
X128595000Y-63369721D01*
X128512953Y-62957244D01*
X128352012Y-62568698D01*
X128118363Y-62219017D01*
X127820983Y-61921637D01*
X127471302Y-61687988D01*
X127082756Y-61527047D01*
X126670279Y-61445000D01*
X126249721Y-61445000D01*
X125837244Y-61527047D01*
X125448698Y-61687988D01*
X125099017Y-61921637D01*
X124801637Y-62219017D01*
X124567988Y-62568698D01*
X124407047Y-62957244D01*
X124325000Y-63369721D01*
X113645000Y-63369721D01*
X113645000Y-63005039D01*
X113821302Y-62932012D01*
X114170983Y-62698363D01*
X114468363Y-62400983D01*
X114702012Y-62051302D01*
X114862953Y-61662756D01*
X114945000Y-61250279D01*
X114945000Y-60829721D01*
X114862953Y-60417244D01*
X114702012Y-60028698D01*
X114468363Y-59679017D01*
X114170983Y-59381637D01*
X113821302Y-59147988D01*
X113595000Y-59054251D01*
X113595000Y-58515157D01*
X124575158Y-47535000D01*
X141354842Y-47535000D01*
X132282185Y-56607658D01*
X132252237Y-56632236D01*
X132227659Y-56662184D01*
X132227655Y-56662188D01*
X132194690Y-56702356D01*
X132154139Y-56751767D01*
X132117516Y-56820285D01*
X132081246Y-56888141D01*
X132036359Y-57036114D01*
X132021203Y-57190000D01*
X132025001Y-57228563D01*
X132025001Y-59054250D01*
X131798698Y-59147988D01*
X131501422Y-59346621D01*
X131533739Y-59268601D01*
X131635000Y-58759525D01*
X131635000Y-58240475D01*
X131533739Y-57731399D01*
X131335107Y-57251859D01*
X131046738Y-56820285D01*
X130679715Y-56453262D01*
X130248141Y-56164893D01*
X129826825Y-55990378D01*
X129907502Y-55965905D01*
X130317489Y-55746763D01*
X130676846Y-55451846D01*
X130971763Y-55092490D01*
X131190905Y-54682503D01*
X131325853Y-54237641D01*
X131360000Y-53890939D01*
X131360000Y-51609061D01*
X131325853Y-51262359D01*
X131190905Y-50817497D01*
X130971763Y-50407510D01*
X130676846Y-50048154D01*
X130317490Y-49753237D01*
X129907503Y-49534095D01*
X129462641Y-49399147D01*
X129000000Y-49353581D01*
X128537360Y-49399147D01*
X128092498Y-49534095D01*
X127682511Y-49753237D01*
X127323155Y-50048154D01*
X127028238Y-50407510D01*
X126809095Y-50817497D01*
X126674147Y-51262359D01*
X126640000Y-51609061D01*
X126640000Y-53890938D01*
X126674147Y-54237640D01*
X126809095Y-54682502D01*
X127028237Y-55092489D01*
X127323154Y-55451846D01*
X127682510Y-55746763D01*
X128092497Y-55965905D01*
X128173175Y-55990378D01*
X127751859Y-56164893D01*
X127320285Y-56453262D01*
X126953262Y-56820285D01*
X126664893Y-57251859D01*
X126466261Y-57731399D01*
X126365000Y-58240475D01*
X126365000Y-58759525D01*
X126466261Y-59268601D01*
X126664893Y-59748141D01*
X126953262Y-60179715D01*
X127320285Y-60546738D01*
X127751859Y-60835107D01*
X128231399Y-61033739D01*
X128740475Y-61135000D01*
X129259525Y-61135000D01*
X129768601Y-61033739D01*
X130248141Y-60835107D01*
X130679715Y-60546738D01*
X130744095Y-60482358D01*
X130675000Y-60829721D01*
X130675000Y-61250279D01*
X130757047Y-61662756D01*
X130917988Y-62051302D01*
X131151637Y-62400983D01*
X131449017Y-62698363D01*
X131798698Y-62932012D01*
X131975000Y-63005039D01*
X131975001Y-79074961D01*
X131798698Y-79147988D01*
X131501422Y-79346621D01*
X131533739Y-79268601D01*
X131635000Y-78759525D01*
X131635000Y-78240475D01*
X131533739Y-77731399D01*
X131335107Y-77251859D01*
X131046738Y-76820285D01*
X130679715Y-76453262D01*
X130248141Y-76164893D01*
X129826825Y-75990378D01*
X129907503Y-75965905D01*
X130317490Y-75746763D01*
X130676846Y-75451846D01*
X130971763Y-75092490D01*
X131190905Y-74682503D01*
X131325853Y-74237641D01*
X131360000Y-73890939D01*
X131360000Y-71609061D01*
X131325853Y-71262359D01*
X131190905Y-70817497D01*
X130971763Y-70407510D01*
X130676846Y-70048154D01*
X130317489Y-69753237D01*
X129907502Y-69534095D01*
X129462640Y-69399147D01*
X129000000Y-69353581D01*
X128537359Y-69399147D01*
X128092497Y-69534095D01*
X127682510Y-69753237D01*
X127323154Y-70048154D01*
X127028237Y-70407511D01*
X126809095Y-70817498D01*
X126674147Y-71262360D01*
X126640000Y-71609062D01*
X126640000Y-73890939D01*
X126674147Y-74237641D01*
X126809095Y-74682503D01*
X127028238Y-75092490D01*
X127323155Y-75451846D01*
X127682511Y-75746763D01*
X128092498Y-75965905D01*
X128173175Y-75990378D01*
X127751859Y-76164893D01*
X127320285Y-76453262D01*
X126953262Y-76820285D01*
X126664893Y-77251859D01*
X126466261Y-77731399D01*
X126365000Y-78240475D01*
X126365000Y-78759525D01*
X126466261Y-79268601D01*
X126664893Y-79748141D01*
X126953262Y-80179715D01*
X127320285Y-80546738D01*
X127751859Y-80835107D01*
X128231399Y-81033739D01*
X128740475Y-81135000D01*
X129259525Y-81135000D01*
X129768601Y-81033739D01*
X130248141Y-80835107D01*
X130679715Y-80546738D01*
X130744095Y-80482358D01*
X130675000Y-80829721D01*
X130675000Y-81250279D01*
X130757047Y-81662756D01*
X130917988Y-82051302D01*
X131151637Y-82400983D01*
X131449017Y-82698363D01*
X131798698Y-82932012D01*
X131975000Y-83005039D01*
X131975001Y-99074961D01*
X131798698Y-99147988D01*
X131501422Y-99346621D01*
X131533739Y-99268601D01*
X131635000Y-98759525D01*
X131635000Y-98240475D01*
X131533739Y-97731399D01*
X131335107Y-97251859D01*
X131046738Y-96820285D01*
X130679715Y-96453262D01*
X130248141Y-96164893D01*
X129826825Y-95990378D01*
X129907502Y-95965905D01*
X130317489Y-95746763D01*
X130676846Y-95451846D01*
X130971763Y-95092490D01*
X131190905Y-94682503D01*
X131325853Y-94237641D01*
X131360000Y-93890939D01*
X131360000Y-91609061D01*
X131325853Y-91262359D01*
X131190905Y-90817497D01*
X130971763Y-90407510D01*
X130676846Y-90048154D01*
X130317490Y-89753237D01*
X129907503Y-89534095D01*
X129462641Y-89399147D01*
X129000000Y-89353581D01*
X128537360Y-89399147D01*
X128092498Y-89534095D01*
X127682511Y-89753237D01*
X127323155Y-90048154D01*
X127028238Y-90407510D01*
X126809095Y-90817497D01*
X126674147Y-91262359D01*
X126640000Y-91609061D01*
X126640000Y-93890938D01*
X126674147Y-94237640D01*
X126809095Y-94682502D01*
X127028237Y-95092489D01*
X127323154Y-95451846D01*
X127682510Y-95746763D01*
X128092497Y-95965905D01*
X128173175Y-95990378D01*
X127751859Y-96164893D01*
X127320285Y-96453262D01*
X126953262Y-96820285D01*
X126664893Y-97251859D01*
X126466261Y-97731399D01*
X126365000Y-98240475D01*
X126365000Y-98759525D01*
X126466261Y-99268601D01*
X126664893Y-99748141D01*
X126953262Y-100179715D01*
X127320285Y-100546738D01*
X127751859Y-100835107D01*
X128231399Y-101033739D01*
X128740475Y-101135000D01*
X129259525Y-101135000D01*
X129768601Y-101033739D01*
X130248141Y-100835107D01*
X130679715Y-100546738D01*
X130744095Y-100482358D01*
X130675000Y-100829721D01*
X130675000Y-101250279D01*
X130757047Y-101662756D01*
X130917988Y-102051302D01*
X131151637Y-102400983D01*
X131449017Y-102698363D01*
X131798698Y-102932012D01*
X131975000Y-103005039D01*
X131975001Y-119074961D01*
X131798698Y-119147988D01*
X131501422Y-119346621D01*
X131533739Y-119268601D01*
X131635000Y-118759525D01*
X131635000Y-118240475D01*
X131533739Y-117731399D01*
X131335107Y-117251859D01*
X131046738Y-116820285D01*
X130679715Y-116453262D01*
X130248141Y-116164893D01*
X129826825Y-115990378D01*
X129907503Y-115965905D01*
X130317490Y-115746763D01*
X130676846Y-115451846D01*
X130971763Y-115092490D01*
X131190905Y-114682503D01*
X131325853Y-114237641D01*
X131360000Y-113890939D01*
X131360000Y-111609061D01*
X131325853Y-111262359D01*
X131190905Y-110817497D01*
X130971763Y-110407510D01*
X130676846Y-110048154D01*
X130317489Y-109753237D01*
X129907502Y-109534095D01*
X129462640Y-109399147D01*
X129000000Y-109353581D01*
X128537359Y-109399147D01*
X128092497Y-109534095D01*
X127682510Y-109753237D01*
X127323154Y-110048154D01*
X127028237Y-110407511D01*
X126809095Y-110817498D01*
X126674147Y-111262360D01*
X126640000Y-111609062D01*
X126640000Y-113890939D01*
X126674147Y-114237641D01*
X126809095Y-114682503D01*
X127028238Y-115092490D01*
X127323155Y-115451846D01*
X127682511Y-115746763D01*
X128092498Y-115965905D01*
X128173175Y-115990378D01*
X127751859Y-116164893D01*
X127320285Y-116453262D01*
X126953262Y-116820285D01*
X126664893Y-117251859D01*
X126466261Y-117731399D01*
X126365000Y-118240475D01*
X126365000Y-118759525D01*
X126466261Y-119268601D01*
X126664893Y-119748141D01*
X126953262Y-120179715D01*
X127320285Y-120546738D01*
X127751859Y-120835107D01*
X128231399Y-121033739D01*
X128740475Y-121135000D01*
X129259525Y-121135000D01*
X129768601Y-121033739D01*
X130248141Y-120835107D01*
X130679715Y-120546738D01*
X130744095Y-120482358D01*
X130675000Y-120829721D01*
X130675000Y-121250279D01*
X130757047Y-121662756D01*
X130917988Y-122051302D01*
X131151637Y-122400983D01*
X131449017Y-122698363D01*
X131798698Y-122932012D01*
X132187244Y-123092953D01*
X132599721Y-123175000D01*
X133020279Y-123175000D01*
X133432756Y-123092953D01*
X133821302Y-122932012D01*
X134170983Y-122698363D01*
X134468363Y-122400983D01*
X134702012Y-122051302D01*
X134862953Y-121662756D01*
X134945000Y-121250279D01*
X134945000Y-120829721D01*
X134862953Y-120417244D01*
X134702012Y-120028698D01*
X134468363Y-119679017D01*
X134170983Y-119381637D01*
X133821302Y-119147988D01*
X133645000Y-119074961D01*
X133645000Y-103369721D01*
X144325000Y-103369721D01*
X144325000Y-103790279D01*
X144407047Y-104202756D01*
X144567988Y-104591302D01*
X144801637Y-104940983D01*
X145099017Y-105238363D01*
X145448698Y-105472012D01*
X145837244Y-105632953D01*
X146249721Y-105715000D01*
X146670279Y-105715000D01*
X147082756Y-105632953D01*
X147471302Y-105472012D01*
X147820983Y-105238363D01*
X148118363Y-104940983D01*
X148352012Y-104591302D01*
X148512953Y-104202756D01*
X148595000Y-103790279D01*
X148595000Y-103369721D01*
X148512953Y-102957244D01*
X148352012Y-102568698D01*
X148118363Y-102219017D01*
X147820983Y-101921637D01*
X147471302Y-101687988D01*
X147082756Y-101527047D01*
X146670279Y-101445000D01*
X146249721Y-101445000D01*
X145837244Y-101527047D01*
X145448698Y-101687988D01*
X145099017Y-101921637D01*
X144801637Y-102219017D01*
X144567988Y-102568698D01*
X144407047Y-102957244D01*
X144325000Y-103369721D01*
X133645000Y-103369721D01*
X133645000Y-103005039D01*
X133821302Y-102932012D01*
X134170983Y-102698363D01*
X134468363Y-102400983D01*
X134702012Y-102051302D01*
X134862953Y-101662756D01*
X134945000Y-101250279D01*
X134945000Y-100829721D01*
X134862953Y-100417244D01*
X134702012Y-100028698D01*
X134468363Y-99679017D01*
X134170983Y-99381637D01*
X133821302Y-99147988D01*
X133645000Y-99074961D01*
X133645000Y-83369721D01*
X144325000Y-83369721D01*
X144325000Y-83790279D01*
X144407047Y-84202756D01*
X144567988Y-84591302D01*
X144801637Y-84940983D01*
X145099017Y-85238363D01*
X145448698Y-85472012D01*
X145837244Y-85632953D01*
X146249721Y-85715000D01*
X146670279Y-85715000D01*
X147082756Y-85632953D01*
X147471302Y-85472012D01*
X147820983Y-85238363D01*
X148118363Y-84940983D01*
X148352012Y-84591302D01*
X148512953Y-84202756D01*
X148595000Y-83790279D01*
X148595000Y-83369721D01*
X148512953Y-82957244D01*
X148352012Y-82568698D01*
X148118363Y-82219017D01*
X147820983Y-81921637D01*
X147471302Y-81687988D01*
X147082756Y-81527047D01*
X146670279Y-81445000D01*
X146249721Y-81445000D01*
X145837244Y-81527047D01*
X145448698Y-81687988D01*
X145099017Y-81921637D01*
X144801637Y-82219017D01*
X144567988Y-82568698D01*
X144407047Y-82957244D01*
X144325000Y-83369721D01*
X133645000Y-83369721D01*
X133645000Y-83005039D01*
X133821302Y-82932012D01*
X134170983Y-82698363D01*
X134468363Y-82400983D01*
X134702012Y-82051302D01*
X134862953Y-81662756D01*
X134945000Y-81250279D01*
X134945000Y-80829721D01*
X134862953Y-80417244D01*
X134702012Y-80028698D01*
X134468363Y-79679017D01*
X134170983Y-79381637D01*
X133821302Y-79147988D01*
X133645000Y-79074961D01*
X133645000Y-63369721D01*
X144325000Y-63369721D01*
X144325000Y-63790279D01*
X144407047Y-64202756D01*
X144567988Y-64591302D01*
X144801637Y-64940983D01*
X145099017Y-65238363D01*
X145448698Y-65472012D01*
X145837244Y-65632953D01*
X146249721Y-65715000D01*
X146670279Y-65715000D01*
X147082756Y-65632953D01*
X147471302Y-65472012D01*
X147820983Y-65238363D01*
X148118363Y-64940983D01*
X148352012Y-64591302D01*
X148512953Y-64202756D01*
X148595000Y-63790279D01*
X148595000Y-63369721D01*
X148512953Y-62957244D01*
X148352012Y-62568698D01*
X148118363Y-62219017D01*
X147820983Y-61921637D01*
X147471302Y-61687988D01*
X147082756Y-61527047D01*
X146670279Y-61445000D01*
X146249721Y-61445000D01*
X145837244Y-61527047D01*
X145448698Y-61687988D01*
X145099017Y-61921637D01*
X144801637Y-62219017D01*
X144567988Y-62568698D01*
X144407047Y-62957244D01*
X144325000Y-63369721D01*
X133645000Y-63369721D01*
X133645000Y-63005039D01*
X133821302Y-62932012D01*
X134170983Y-62698363D01*
X134468363Y-62400983D01*
X134702012Y-62051302D01*
X134862953Y-61662756D01*
X134945000Y-61250279D01*
X134945000Y-60829721D01*
X134862953Y-60417244D01*
X134702012Y-60028698D01*
X134468363Y-59679017D01*
X134170983Y-59381637D01*
X133821302Y-59147988D01*
X133595000Y-59054251D01*
X133595000Y-57515157D01*
X142825158Y-48285000D01*
X170424843Y-48285000D01*
X175667653Y-53527810D01*
X175692236Y-53557764D01*
X175811767Y-53655862D01*
X175948140Y-53728754D01*
X176096113Y-53773642D01*
X176171026Y-53781020D01*
X176211439Y-53785000D01*
X176211444Y-53785000D01*
X176250000Y-53788797D01*
X176288556Y-53785000D01*
X178821289Y-53785000D01*
X178840226Y-53803937D01*
X178987500Y-53902342D01*
X177674063Y-55215780D01*
X170870581Y-55215780D01*
X170971763Y-55092490D01*
X171190905Y-54682503D01*
X171325853Y-54237641D01*
X171360000Y-53890939D01*
X171360000Y-51609061D01*
X171325853Y-51262359D01*
X171190905Y-50817497D01*
X170971763Y-50407510D01*
X170676846Y-50048154D01*
X170317490Y-49753237D01*
X169907503Y-49534095D01*
X169462641Y-49399147D01*
X169000000Y-49353581D01*
X168537360Y-49399147D01*
X168092498Y-49534095D01*
X167682511Y-49753237D01*
X167323155Y-50048154D01*
X167028238Y-50407510D01*
X166809095Y-50817497D01*
X166674147Y-51262359D01*
X166640000Y-51609061D01*
X166640000Y-53890938D01*
X166674147Y-54237640D01*
X166809095Y-54682502D01*
X167028237Y-55092489D01*
X167129419Y-55215780D01*
X157887772Y-55215780D01*
X157849219Y-55211983D01*
X157810666Y-55215780D01*
X157810659Y-55215780D01*
X157709710Y-55225723D01*
X157695332Y-55227139D01*
X157660892Y-55237586D01*
X157547360Y-55272026D01*
X157410987Y-55344918D01*
X157350779Y-55394330D01*
X157321407Y-55418435D01*
X157321404Y-55418438D01*
X157291456Y-55443016D01*
X157266878Y-55472964D01*
X153659058Y-59080784D01*
X153432756Y-58987047D01*
X153020279Y-58905000D01*
X152599721Y-58905000D01*
X152187244Y-58987047D01*
X151798698Y-59147988D01*
X151501422Y-59346621D01*
X151533739Y-59268601D01*
X151635000Y-58759525D01*
X151635000Y-58240475D01*
X151533739Y-57731399D01*
X151335107Y-57251859D01*
X151046738Y-56820285D01*
X150679715Y-56453262D01*
X150248141Y-56164893D01*
X149826825Y-55990378D01*
X149907502Y-55965905D01*
X150317489Y-55746763D01*
X150676846Y-55451846D01*
X150971763Y-55092490D01*
X151190905Y-54682503D01*
X151325853Y-54237641D01*
X151360000Y-53890939D01*
X151360000Y-51609061D01*
X151325853Y-51262359D01*
X151190905Y-50817497D01*
X150971763Y-50407510D01*
X150676846Y-50048154D01*
X150317490Y-49753237D01*
X149907503Y-49534095D01*
X149462641Y-49399147D01*
X149000000Y-49353581D01*
X148537360Y-49399147D01*
X148092498Y-49534095D01*
X147682511Y-49753237D01*
X147323155Y-50048154D01*
X147028238Y-50407510D01*
X146809095Y-50817497D01*
X146674147Y-51262359D01*
X146640000Y-51609061D01*
X146640000Y-53890938D01*
X146674147Y-54237640D01*
X146809095Y-54682502D01*
X147028237Y-55092489D01*
X147323154Y-55451846D01*
X147682510Y-55746763D01*
X148092497Y-55965905D01*
X148173175Y-55990378D01*
X147751859Y-56164893D01*
X147320285Y-56453262D01*
X146953262Y-56820285D01*
X146664893Y-57251859D01*
X146466261Y-57731399D01*
X146365000Y-58240475D01*
X146365000Y-58759525D01*
X146466261Y-59268601D01*
X146664893Y-59748141D01*
X146953262Y-60179715D01*
X147320285Y-60546738D01*
X147751859Y-60835107D01*
X148231399Y-61033739D01*
X148740475Y-61135000D01*
X149259525Y-61135000D01*
X149768601Y-61033739D01*
X150248141Y-60835107D01*
X150679715Y-60546738D01*
X150744095Y-60482358D01*
X150675000Y-60829721D01*
X150675000Y-61250279D01*
X150757047Y-61662756D01*
X150917988Y-62051302D01*
X151151637Y-62400983D01*
X151449017Y-62698363D01*
X151798698Y-62932012D01*
X151975000Y-63005039D01*
X151975001Y-79074961D01*
X151798698Y-79147988D01*
X151501422Y-79346621D01*
X151533739Y-79268601D01*
X151635000Y-78759525D01*
X151635000Y-78240475D01*
X151533739Y-77731399D01*
X151335107Y-77251859D01*
X151046738Y-76820285D01*
X150679715Y-76453262D01*
X150248141Y-76164893D01*
X149826825Y-75990378D01*
X149907503Y-75965905D01*
X150317490Y-75746763D01*
X150676846Y-75451846D01*
X150971763Y-75092490D01*
X151190905Y-74682503D01*
X151325853Y-74237641D01*
X151360000Y-73890939D01*
X151360000Y-71609061D01*
X151325853Y-71262359D01*
X151190905Y-70817497D01*
X150971763Y-70407510D01*
X150676846Y-70048154D01*
X150317489Y-69753237D01*
X149907502Y-69534095D01*
X149462640Y-69399147D01*
X149000000Y-69353581D01*
X148537359Y-69399147D01*
X148092497Y-69534095D01*
X147682510Y-69753237D01*
X147323154Y-70048154D01*
X147028237Y-70407511D01*
X146809095Y-70817498D01*
X146674147Y-71262360D01*
X146640000Y-71609062D01*
X146640000Y-73890939D01*
X146674147Y-74237641D01*
X146809095Y-74682503D01*
X147028238Y-75092490D01*
X147323155Y-75451846D01*
X147682511Y-75746763D01*
X148092498Y-75965905D01*
X148173175Y-75990378D01*
X147751859Y-76164893D01*
X147320285Y-76453262D01*
X146953262Y-76820285D01*
X146664893Y-77251859D01*
X146466261Y-77731399D01*
X146365000Y-78240475D01*
X146365000Y-78759525D01*
X146466261Y-79268601D01*
X146664893Y-79748141D01*
X146953262Y-80179715D01*
X147320285Y-80546738D01*
X147751859Y-80835107D01*
X148231399Y-81033739D01*
X148740475Y-81135000D01*
X149259525Y-81135000D01*
X149768601Y-81033739D01*
X150248141Y-80835107D01*
X150679715Y-80546738D01*
X150744095Y-80482358D01*
X150675000Y-80829721D01*
X150675000Y-81250279D01*
X150757047Y-81662756D01*
X150917988Y-82051302D01*
X151151637Y-82400983D01*
X151449017Y-82698363D01*
X151798698Y-82932012D01*
X151975001Y-83005039D01*
X151975000Y-99074961D01*
X151798698Y-99147988D01*
X151501422Y-99346621D01*
X151533739Y-99268601D01*
X151635000Y-98759525D01*
X151635000Y-98240475D01*
X151533739Y-97731399D01*
X151335107Y-97251859D01*
X151046738Y-96820285D01*
X150679715Y-96453262D01*
X150248141Y-96164893D01*
X149826825Y-95990378D01*
X149907502Y-95965905D01*
X150317489Y-95746763D01*
X150676846Y-95451846D01*
X150971763Y-95092490D01*
X151190905Y-94682503D01*
X151325853Y-94237641D01*
X151360000Y-93890939D01*
X151360000Y-91609061D01*
X151325853Y-91262359D01*
X151190905Y-90817497D01*
X150971763Y-90407510D01*
X150676846Y-90048154D01*
X150317490Y-89753237D01*
X149907503Y-89534095D01*
X149462641Y-89399147D01*
X149000000Y-89353581D01*
X148537360Y-89399147D01*
X148092498Y-89534095D01*
X147682511Y-89753237D01*
X147323155Y-90048154D01*
X147028238Y-90407510D01*
X146809095Y-90817497D01*
X146674147Y-91262359D01*
X146640000Y-91609061D01*
X146640000Y-93890938D01*
X146674147Y-94237640D01*
X146809095Y-94682502D01*
X147028237Y-95092489D01*
X147323154Y-95451846D01*
X147682510Y-95746763D01*
X148092497Y-95965905D01*
X148173175Y-95990378D01*
X147751859Y-96164893D01*
X147320285Y-96453262D01*
X146953262Y-96820285D01*
X146664893Y-97251859D01*
X146466261Y-97731399D01*
X146365000Y-98240475D01*
X146365000Y-98759525D01*
X146466261Y-99268601D01*
X146664893Y-99748141D01*
X146953262Y-100179715D01*
X147320285Y-100546738D01*
X147751859Y-100835107D01*
X148231399Y-101033739D01*
X148740475Y-101135000D01*
X149259525Y-101135000D01*
X149768601Y-101033739D01*
X150248141Y-100835107D01*
X150679715Y-100546738D01*
X150744095Y-100482358D01*
X150675000Y-100829721D01*
X150675000Y-101250279D01*
X150757047Y-101662756D01*
X150917988Y-102051302D01*
X151151637Y-102400983D01*
X151449017Y-102698363D01*
X151798698Y-102932012D01*
X151975000Y-103005039D01*
X151975001Y-119074961D01*
X151798698Y-119147988D01*
X151501422Y-119346621D01*
X151533739Y-119268601D01*
X151635000Y-118759525D01*
X151635000Y-118240475D01*
X151533739Y-117731399D01*
X151335107Y-117251859D01*
X151046738Y-116820285D01*
X150679715Y-116453262D01*
X150248141Y-116164893D01*
X149826825Y-115990378D01*
X149907503Y-115965905D01*
X150317490Y-115746763D01*
X150676846Y-115451846D01*
X150971763Y-115092490D01*
X151190905Y-114682503D01*
X151325853Y-114237641D01*
X151360000Y-113890939D01*
X151360000Y-111609061D01*
X151325853Y-111262359D01*
X151190905Y-110817497D01*
X150971763Y-110407510D01*
X150676846Y-110048154D01*
X150317489Y-109753237D01*
X149907502Y-109534095D01*
X149462640Y-109399147D01*
X149000000Y-109353581D01*
X148537359Y-109399147D01*
X148092497Y-109534095D01*
X147682510Y-109753237D01*
X147323154Y-110048154D01*
X147028237Y-110407511D01*
X146809095Y-110817498D01*
X146674147Y-111262360D01*
X146640000Y-111609062D01*
X146640000Y-113890939D01*
X146674147Y-114237641D01*
X146809095Y-114682503D01*
X147028238Y-115092490D01*
X147323155Y-115451846D01*
X147682511Y-115746763D01*
X148092498Y-115965905D01*
X148173175Y-115990378D01*
X147751859Y-116164893D01*
X147320285Y-116453262D01*
X146953262Y-116820285D01*
X146664893Y-117251859D01*
X146466261Y-117731399D01*
X146365000Y-118240475D01*
X146365000Y-118759525D01*
X146466261Y-119268601D01*
X146664893Y-119748141D01*
X146953262Y-120179715D01*
X147320285Y-120546738D01*
X147751859Y-120835107D01*
X148231399Y-121033739D01*
X148740475Y-121135000D01*
X149259525Y-121135000D01*
X149768601Y-121033739D01*
X150248141Y-120835107D01*
X150679715Y-120546738D01*
X150744095Y-120482358D01*
X150675000Y-120829721D01*
X150675000Y-121250279D01*
X150757047Y-121662756D01*
X150917988Y-122051302D01*
X151151637Y-122400983D01*
X151449017Y-122698363D01*
X151798698Y-122932012D01*
X152187244Y-123092953D01*
X152599721Y-123175000D01*
X153020279Y-123175000D01*
X153432756Y-123092953D01*
X153821302Y-122932012D01*
X154170983Y-122698363D01*
X154468363Y-122400983D01*
X154702012Y-122051302D01*
X154862953Y-121662756D01*
X154945000Y-121250279D01*
X154945000Y-120829721D01*
X154862953Y-120417244D01*
X154702012Y-120028698D01*
X154468363Y-119679017D01*
X154170983Y-119381637D01*
X153821302Y-119147988D01*
X153645000Y-119074961D01*
X153645000Y-103369721D01*
X164325000Y-103369721D01*
X164325000Y-103790279D01*
X164407047Y-104202756D01*
X164567988Y-104591302D01*
X164801637Y-104940983D01*
X165099017Y-105238363D01*
X165448698Y-105472012D01*
X165837244Y-105632953D01*
X166249721Y-105715000D01*
X166670279Y-105715000D01*
X167082756Y-105632953D01*
X167471302Y-105472012D01*
X167820983Y-105238363D01*
X168118363Y-104940983D01*
X168352012Y-104591302D01*
X168512953Y-104202756D01*
X168595000Y-103790279D01*
X168595000Y-103369721D01*
X168512953Y-102957244D01*
X168352012Y-102568698D01*
X168118363Y-102219017D01*
X167820983Y-101921637D01*
X167471302Y-101687988D01*
X167082756Y-101527047D01*
X166670279Y-101445000D01*
X166249721Y-101445000D01*
X165837244Y-101527047D01*
X165448698Y-101687988D01*
X165099017Y-101921637D01*
X164801637Y-102219017D01*
X164567988Y-102568698D01*
X164407047Y-102957244D01*
X164325000Y-103369721D01*
X153645000Y-103369721D01*
X153645000Y-103005039D01*
X153821302Y-102932012D01*
X154170983Y-102698363D01*
X154468363Y-102400983D01*
X154702012Y-102051302D01*
X154862953Y-101662756D01*
X154945000Y-101250279D01*
X154945000Y-100829721D01*
X154862953Y-100417244D01*
X154702012Y-100028698D01*
X154468363Y-99679017D01*
X154170983Y-99381637D01*
X153821302Y-99147988D01*
X153645000Y-99074961D01*
X153645000Y-83369721D01*
X164325000Y-83369721D01*
X164325000Y-83790279D01*
X164407047Y-84202756D01*
X164567988Y-84591302D01*
X164801637Y-84940983D01*
X165099017Y-85238363D01*
X165448698Y-85472012D01*
X165837244Y-85632953D01*
X166249721Y-85715000D01*
X166670279Y-85715000D01*
X167082756Y-85632953D01*
X167471302Y-85472012D01*
X167820983Y-85238363D01*
X168118363Y-84940983D01*
X168352012Y-84591302D01*
X168512953Y-84202756D01*
X168595000Y-83790279D01*
X168595000Y-83369721D01*
X168512953Y-82957244D01*
X168352012Y-82568698D01*
X168118363Y-82219017D01*
X167820983Y-81921637D01*
X167471302Y-81687988D01*
X167082756Y-81527047D01*
X166670279Y-81445000D01*
X166249721Y-81445000D01*
X165837244Y-81527047D01*
X165448698Y-81687988D01*
X165099017Y-81921637D01*
X164801637Y-82219017D01*
X164567988Y-82568698D01*
X164407047Y-82957244D01*
X164325000Y-83369721D01*
X153645000Y-83369721D01*
X153645000Y-83005039D01*
X153821302Y-82932012D01*
X154170983Y-82698363D01*
X154468363Y-82400983D01*
X154702012Y-82051302D01*
X154862953Y-81662756D01*
X154945000Y-81250279D01*
X154945000Y-80829721D01*
X154862953Y-80417244D01*
X154702012Y-80028698D01*
X154468363Y-79679017D01*
X154170983Y-79381637D01*
X153821302Y-79147988D01*
X153645000Y-79074961D01*
X153645000Y-63369721D01*
X164325000Y-63369721D01*
X164325000Y-63790279D01*
X164407047Y-64202756D01*
X164567988Y-64591302D01*
X164801637Y-64940983D01*
X165099017Y-65238363D01*
X165448698Y-65472012D01*
X165837244Y-65632953D01*
X166249721Y-65715000D01*
X166670279Y-65715000D01*
X167082756Y-65632953D01*
X167471302Y-65472012D01*
X167820983Y-65238363D01*
X168118363Y-64940983D01*
X168352012Y-64591302D01*
X168512953Y-64202756D01*
X168595000Y-63790279D01*
X168595000Y-63369721D01*
X168512953Y-62957244D01*
X168352012Y-62568698D01*
X168118363Y-62219017D01*
X167820983Y-61921637D01*
X167471302Y-61687988D01*
X167082756Y-61527047D01*
X166670279Y-61445000D01*
X166249721Y-61445000D01*
X165837244Y-61527047D01*
X165448698Y-61687988D01*
X165099017Y-61921637D01*
X164801637Y-62219017D01*
X164567988Y-62568698D01*
X164407047Y-62957244D01*
X164325000Y-63369721D01*
X153645000Y-63369721D01*
X153645000Y-63005039D01*
X153821302Y-62932012D01*
X154170983Y-62698363D01*
X154468363Y-62400983D01*
X154702012Y-62051302D01*
X154862953Y-61662756D01*
X154945000Y-61250279D01*
X154945000Y-60829721D01*
X154862953Y-60417244D01*
X154769216Y-60190942D01*
X158174378Y-56785780D01*
X166987767Y-56785780D01*
X166953262Y-56820285D01*
X166664893Y-57251859D01*
X166466261Y-57731399D01*
X166365000Y-58240475D01*
X166365000Y-58759525D01*
X166466261Y-59268601D01*
X166664893Y-59748141D01*
X166953262Y-60179715D01*
X167320285Y-60546738D01*
X167751859Y-60835107D01*
X168231399Y-61033739D01*
X168740475Y-61135000D01*
X169259525Y-61135000D01*
X169768601Y-61033739D01*
X170248141Y-60835107D01*
X170679715Y-60546738D01*
X170744095Y-60482358D01*
X170675000Y-60829721D01*
X170675000Y-61250279D01*
X170757047Y-61662756D01*
X170917988Y-62051302D01*
X171151637Y-62400983D01*
X171449017Y-62698363D01*
X171798698Y-62932012D01*
X171975000Y-63005039D01*
X171975001Y-79074961D01*
X171798698Y-79147988D01*
X171501422Y-79346621D01*
X171533739Y-79268601D01*
X171635000Y-78759525D01*
X171635000Y-78240475D01*
X171533739Y-77731399D01*
X171335107Y-77251859D01*
X171046738Y-76820285D01*
X170679715Y-76453262D01*
X170248141Y-76164893D01*
X169826825Y-75990378D01*
X169907503Y-75965905D01*
X170317490Y-75746763D01*
X170676846Y-75451846D01*
X170971763Y-75092490D01*
X171190905Y-74682503D01*
X171325853Y-74237641D01*
X171360000Y-73890939D01*
X171360000Y-71609061D01*
X171325853Y-71262359D01*
X171190905Y-70817497D01*
X170971763Y-70407510D01*
X170676846Y-70048154D01*
X170317489Y-69753237D01*
X169907502Y-69534095D01*
X169462640Y-69399147D01*
X169000000Y-69353581D01*
X168537359Y-69399147D01*
X168092497Y-69534095D01*
X167682510Y-69753237D01*
X167323154Y-70048154D01*
X167028237Y-70407511D01*
X166809095Y-70817498D01*
X166674147Y-71262360D01*
X166640000Y-71609062D01*
X166640000Y-73890939D01*
X166674147Y-74237641D01*
X166809095Y-74682503D01*
X167028238Y-75092490D01*
X167323155Y-75451846D01*
X167682511Y-75746763D01*
X168092498Y-75965905D01*
X168173175Y-75990378D01*
X167751859Y-76164893D01*
X167320285Y-76453262D01*
X166953262Y-76820285D01*
X166664893Y-77251859D01*
X166466261Y-77731399D01*
X166365000Y-78240475D01*
X166365000Y-78759525D01*
X166466261Y-79268601D01*
X166664893Y-79748141D01*
X166953262Y-80179715D01*
X167320285Y-80546738D01*
X167751859Y-80835107D01*
X168231399Y-81033739D01*
X168740475Y-81135000D01*
X169259525Y-81135000D01*
X169768601Y-81033739D01*
X170248141Y-80835107D01*
X170679715Y-80546738D01*
X170744095Y-80482358D01*
X170675000Y-80829721D01*
X170675000Y-81250279D01*
X170757047Y-81662756D01*
X170917988Y-82051302D01*
X171151637Y-82400983D01*
X171449017Y-82698363D01*
X171798698Y-82932012D01*
X171975000Y-83005039D01*
X171975001Y-99074961D01*
X171798698Y-99147988D01*
X171501422Y-99346621D01*
X171533739Y-99268601D01*
X171635000Y-98759525D01*
X171635000Y-98240475D01*
X171533739Y-97731399D01*
X171335107Y-97251859D01*
X171046738Y-96820285D01*
X170679715Y-96453262D01*
X170248141Y-96164893D01*
X169826825Y-95990378D01*
X169907502Y-95965905D01*
X170317489Y-95746763D01*
X170676846Y-95451846D01*
X170971763Y-95092490D01*
X171190905Y-94682503D01*
X171325853Y-94237641D01*
X171360000Y-93890939D01*
X171360000Y-91609061D01*
X171325853Y-91262359D01*
X171190905Y-90817497D01*
X170971763Y-90407510D01*
X170676846Y-90048154D01*
X170317490Y-89753237D01*
X169907503Y-89534095D01*
X169462641Y-89399147D01*
X169000000Y-89353581D01*
X168537360Y-89399147D01*
X168092498Y-89534095D01*
X167682511Y-89753237D01*
X167323155Y-90048154D01*
X167028238Y-90407510D01*
X166809095Y-90817497D01*
X166674147Y-91262359D01*
X166640000Y-91609061D01*
X166640000Y-93890938D01*
X166674147Y-94237640D01*
X166809095Y-94682502D01*
X167028237Y-95092489D01*
X167323154Y-95451846D01*
X167682510Y-95746763D01*
X168092497Y-95965905D01*
X168173175Y-95990378D01*
X167751859Y-96164893D01*
X167320285Y-96453262D01*
X166953262Y-96820285D01*
X166664893Y-97251859D01*
X166466261Y-97731399D01*
X166365000Y-98240475D01*
X166365000Y-98759525D01*
X166466261Y-99268601D01*
X166664893Y-99748141D01*
X166953262Y-100179715D01*
X167320285Y-100546738D01*
X167751859Y-100835107D01*
X168231399Y-101033739D01*
X168740475Y-101135000D01*
X169259525Y-101135000D01*
X169768601Y-101033739D01*
X170248141Y-100835107D01*
X170679715Y-100546738D01*
X170744095Y-100482358D01*
X170675000Y-100829721D01*
X170675000Y-101250279D01*
X170757047Y-101662756D01*
X170917988Y-102051302D01*
X171151637Y-102400983D01*
X171449017Y-102698363D01*
X171798698Y-102932012D01*
X171975000Y-103005039D01*
X171975001Y-119074961D01*
X171798698Y-119147988D01*
X171501422Y-119346621D01*
X171533739Y-119268601D01*
X171635000Y-118759525D01*
X171635000Y-118240475D01*
X171533739Y-117731399D01*
X171335107Y-117251859D01*
X171046738Y-116820285D01*
X170679715Y-116453262D01*
X170248141Y-116164893D01*
X169826825Y-115990378D01*
X169907503Y-115965905D01*
X170317490Y-115746763D01*
X170676846Y-115451846D01*
X170971763Y-115092490D01*
X171190905Y-114682503D01*
X171325853Y-114237641D01*
X171360000Y-113890939D01*
X171360000Y-111609061D01*
X171325853Y-111262359D01*
X171190905Y-110817497D01*
X170971763Y-110407510D01*
X170676846Y-110048154D01*
X170317489Y-109753237D01*
X169907502Y-109534095D01*
X169462640Y-109399147D01*
X169000000Y-109353581D01*
X168537359Y-109399147D01*
X168092497Y-109534095D01*
X167682510Y-109753237D01*
X167323154Y-110048154D01*
X167028237Y-110407511D01*
X166809095Y-110817498D01*
X166674147Y-111262360D01*
X166640000Y-111609062D01*
X166640000Y-113890939D01*
X166674147Y-114237641D01*
X166809095Y-114682503D01*
X167028238Y-115092490D01*
X167323155Y-115451846D01*
X167682511Y-115746763D01*
X168092498Y-115965905D01*
X168173175Y-115990378D01*
X167751859Y-116164893D01*
X167320285Y-116453262D01*
X166953262Y-116820285D01*
X166664893Y-117251859D01*
X166466261Y-117731399D01*
X166365000Y-118240475D01*
X166365000Y-118759525D01*
X166466261Y-119268601D01*
X166664893Y-119748141D01*
X166953262Y-120179715D01*
X167320285Y-120546738D01*
X167751859Y-120835107D01*
X168231399Y-121033739D01*
X168740475Y-121135000D01*
X169259525Y-121135000D01*
X169768601Y-121033739D01*
X170248141Y-120835107D01*
X170679715Y-120546738D01*
X170744095Y-120482358D01*
X170675000Y-120829721D01*
X170675000Y-121250279D01*
X170757047Y-121662756D01*
X170917988Y-122051302D01*
X171151637Y-122400983D01*
X171449017Y-122698363D01*
X171798698Y-122932012D01*
X172187244Y-123092953D01*
X172599721Y-123175000D01*
X173020279Y-123175000D01*
X173432756Y-123092953D01*
X173821302Y-122932012D01*
X174170983Y-122698363D01*
X174468363Y-122400983D01*
X174702012Y-122051302D01*
X174862953Y-121662756D01*
X174945000Y-121250279D01*
X174945000Y-120829721D01*
X174862953Y-120417244D01*
X174702012Y-120028698D01*
X174468363Y-119679017D01*
X174170983Y-119381637D01*
X173821302Y-119147988D01*
X173645000Y-119074961D01*
X173645000Y-108289721D01*
X176865000Y-108289721D01*
X176865000Y-108710279D01*
X176947047Y-109122756D01*
X177107988Y-109511302D01*
X177341637Y-109860983D01*
X177639017Y-110158363D01*
X177988698Y-110392012D01*
X178377244Y-110552953D01*
X178789721Y-110635000D01*
X179210279Y-110635000D01*
X179622756Y-110552953D01*
X180011302Y-110392012D01*
X180360983Y-110158363D01*
X180658363Y-109860983D01*
X180892012Y-109511302D01*
X181052953Y-109122756D01*
X181135000Y-108710279D01*
X181135000Y-108289721D01*
X181052953Y-107877244D01*
X180892012Y-107488698D01*
X180658363Y-107139017D01*
X180360983Y-106841637D01*
X180011302Y-106607988D01*
X179622756Y-106447047D01*
X179210279Y-106365000D01*
X178789721Y-106365000D01*
X178377244Y-106447047D01*
X177988698Y-106607988D01*
X177639017Y-106841637D01*
X177341637Y-107139017D01*
X177107988Y-107488698D01*
X176947047Y-107877244D01*
X176865000Y-108289721D01*
X173645000Y-108289721D01*
X173645000Y-103005039D01*
X173821302Y-102932012D01*
X174170983Y-102698363D01*
X174468363Y-102400983D01*
X174702012Y-102051302D01*
X174862953Y-101662756D01*
X174945000Y-101250279D01*
X174945000Y-100829721D01*
X174862953Y-100417244D01*
X174702012Y-100028698D01*
X174468363Y-99679017D01*
X174170983Y-99381637D01*
X173821302Y-99147988D01*
X173645000Y-99074961D01*
X173645000Y-83005039D01*
X173821302Y-82932012D01*
X174170983Y-82698363D01*
X174468363Y-82400983D01*
X174702012Y-82051302D01*
X174862953Y-81662756D01*
X174945000Y-81250279D01*
X174945000Y-80829721D01*
X174862953Y-80417244D01*
X174702012Y-80028698D01*
X174468363Y-79679017D01*
X174170983Y-79381637D01*
X173821302Y-79147988D01*
X173645000Y-79074961D01*
X173645000Y-63005039D01*
X173821302Y-62932012D01*
X174170983Y-62698363D01*
X174468363Y-62400983D01*
X174702012Y-62051302D01*
X174862953Y-61662756D01*
X174904060Y-61456097D01*
X182215001Y-54145157D01*
X182215002Y-123737489D01*
X182101939Y-123715000D01*
X181898061Y-123715000D01*
X181698102Y-123754774D01*
X181509744Y-123832795D01*
X181340226Y-123946063D01*
X181196063Y-124090226D01*
X181082795Y-124259744D01*
X181004774Y-124448102D01*
X180965000Y-124648061D01*
X180965000Y-124851939D01*
X181004774Y-125051898D01*
X181082795Y-125240256D01*
X181196063Y-125409774D01*
X181340226Y-125553937D01*
X181509744Y-125667205D01*
X181698102Y-125745226D01*
X181898061Y-125785000D01*
X182101939Y-125785000D01*
X182301898Y-125745226D01*
X182490256Y-125667205D01*
X182659774Y-125553937D01*
X182678711Y-125535000D01*
X182711447Y-125535000D01*
X182750000Y-125538797D01*
X182788553Y-125535000D01*
X182788561Y-125535000D01*
X182903887Y-125523641D01*
X183051860Y-125478754D01*
X183188233Y-125405862D01*
X183307764Y-125307764D01*
X183332348Y-125277809D01*
X183527807Y-125082350D01*
X183557765Y-125057763D01*
X183655863Y-124938232D01*
X183728755Y-124801859D01*
X183762009Y-124692236D01*
X183773643Y-124653886D01*
X183781021Y-124578973D01*
X183785001Y-124538560D01*
X183785001Y-124538555D01*
X183788798Y-124499999D01*
X183785001Y-124461443D01*
X183785001Y-123369721D01*
X184325000Y-123369721D01*
X184325000Y-123790279D01*
X184407047Y-124202756D01*
X184567988Y-124591302D01*
X184801637Y-124940983D01*
X185099017Y-125238363D01*
X185448698Y-125472012D01*
X185837244Y-125632953D01*
X186249721Y-125715000D01*
X186670279Y-125715000D01*
X187082756Y-125632953D01*
X187471302Y-125472012D01*
X187820983Y-125238363D01*
X188118363Y-124940983D01*
X188352012Y-124591302D01*
X188512953Y-124202756D01*
X188595000Y-123790279D01*
X188595000Y-123369721D01*
X188512953Y-122957244D01*
X188352012Y-122568698D01*
X188118363Y-122219017D01*
X187820983Y-121921637D01*
X187471302Y-121687988D01*
X187082756Y-121527047D01*
X186670279Y-121445000D01*
X186249721Y-121445000D01*
X185837244Y-121527047D01*
X185448698Y-121687988D01*
X185099017Y-121921637D01*
X184801637Y-122219017D01*
X184567988Y-122568698D01*
X184407047Y-122957244D01*
X184325000Y-123369721D01*
X183785001Y-123369721D01*
X183785001Y-103369721D01*
X184325000Y-103369721D01*
X184325000Y-103790279D01*
X184407047Y-104202756D01*
X184567988Y-104591302D01*
X184801637Y-104940983D01*
X185099017Y-105238363D01*
X185448698Y-105472012D01*
X185837244Y-105632953D01*
X186249721Y-105715000D01*
X186670279Y-105715000D01*
X187082756Y-105632953D01*
X187471302Y-105472012D01*
X187820983Y-105238363D01*
X188118363Y-104940983D01*
X188352012Y-104591302D01*
X188512953Y-104202756D01*
X188595000Y-103790279D01*
X188595000Y-103369721D01*
X188512953Y-102957244D01*
X188352012Y-102568698D01*
X188118363Y-102219017D01*
X187820983Y-101921637D01*
X187471302Y-101687988D01*
X187082756Y-101527047D01*
X186670279Y-101445000D01*
X186249721Y-101445000D01*
X185837244Y-101527047D01*
X185448698Y-101687988D01*
X185099017Y-101921637D01*
X184801637Y-102219017D01*
X184567988Y-102568698D01*
X184407047Y-102957244D01*
X184325000Y-103369721D01*
X183785001Y-103369721D01*
X183785001Y-83369721D01*
X184325000Y-83369721D01*
X184325000Y-83790279D01*
X184407047Y-84202756D01*
X184567988Y-84591302D01*
X184801637Y-84940983D01*
X185099017Y-85238363D01*
X185448698Y-85472012D01*
X185837244Y-85632953D01*
X186249721Y-85715000D01*
X186670279Y-85715000D01*
X187082756Y-85632953D01*
X187471302Y-85472012D01*
X187820983Y-85238363D01*
X188118363Y-84940983D01*
X188352012Y-84591302D01*
X188512953Y-84202756D01*
X188595000Y-83790279D01*
X188595000Y-83369721D01*
X188512953Y-82957244D01*
X188352012Y-82568698D01*
X188118363Y-82219017D01*
X187820983Y-81921637D01*
X187471302Y-81687988D01*
X187082756Y-81527047D01*
X186670279Y-81445000D01*
X186249721Y-81445000D01*
X185837244Y-81527047D01*
X185448698Y-81687988D01*
X185099017Y-81921637D01*
X184801637Y-82219017D01*
X184567988Y-82568698D01*
X184407047Y-82957244D01*
X184325000Y-83369721D01*
X183785001Y-83369721D01*
X183785001Y-63369721D01*
X184325000Y-63369721D01*
X184325000Y-63790279D01*
X184407047Y-64202756D01*
X184567988Y-64591302D01*
X184801637Y-64940983D01*
X185099017Y-65238363D01*
X185448698Y-65472012D01*
X185837244Y-65632953D01*
X186249721Y-65715000D01*
X186670279Y-65715000D01*
X187082756Y-65632953D01*
X187471302Y-65472012D01*
X187820983Y-65238363D01*
X188118363Y-64940983D01*
X188352012Y-64591302D01*
X188512953Y-64202756D01*
X188595000Y-63790279D01*
X188595000Y-63369721D01*
X188512953Y-62957244D01*
X188352012Y-62568698D01*
X188118363Y-62219017D01*
X187820983Y-61921637D01*
X187471302Y-61687988D01*
X187082756Y-61527047D01*
X186670279Y-61445000D01*
X186249721Y-61445000D01*
X185837244Y-61527047D01*
X185448698Y-61687988D01*
X185099017Y-61921637D01*
X184801637Y-62219017D01*
X184567988Y-62568698D01*
X184407047Y-62957244D01*
X184325000Y-63369721D01*
X183785001Y-63369721D01*
X183785001Y-50825156D01*
X185575158Y-49035000D01*
X185601939Y-49035000D01*
X185801898Y-48995226D01*
X185990256Y-48917205D01*
X186159774Y-48803937D01*
X186303937Y-48659774D01*
X186417205Y-48490256D01*
X186495226Y-48301898D01*
X186535000Y-48101939D01*
X186535000Y-47898061D01*
X186495226Y-47698102D01*
X186417205Y-47509744D01*
X186303937Y-47340226D01*
X186159774Y-47196063D01*
X185990256Y-47082795D01*
X185801898Y-47004774D01*
X185601939Y-46965000D01*
X185398061Y-46965000D01*
X185198102Y-47004774D01*
X185009744Y-47082795D01*
X184840226Y-47196063D01*
X184696063Y-47340226D01*
X184582795Y-47509744D01*
X184504774Y-47698102D01*
X184465000Y-47898061D01*
X184465000Y-47924842D01*
X182472191Y-49917652D01*
X182442237Y-49942235D01*
X182344139Y-50061767D01*
X182271247Y-50198140D01*
X182226360Y-50346113D01*
X182215001Y-50461439D01*
X182215001Y-50461446D01*
X182211204Y-50499999D01*
X182215001Y-50538552D01*
X182215001Y-51715000D01*
X182148061Y-51715000D01*
X181948102Y-51754774D01*
X181759744Y-51832795D01*
X181750000Y-51839306D01*
X181740256Y-51832795D01*
X181551898Y-51754774D01*
X181351939Y-51715000D01*
X181148061Y-51715000D01*
X180948102Y-51754774D01*
X180759744Y-51832795D01*
X180590226Y-51946063D01*
X180446063Y-52090226D01*
X180332795Y-52259744D01*
X180300770Y-52337059D01*
X180159774Y-52196063D01*
X179990256Y-52082795D01*
X179801898Y-52004774D01*
X179601939Y-51965000D01*
X179398061Y-51965000D01*
X179198102Y-52004774D01*
X179009744Y-52082795D01*
X178840226Y-52196063D01*
X178821289Y-52215000D01*
X177748711Y-52215000D01*
X177803937Y-52159774D01*
X177917205Y-51990256D01*
X177995226Y-51801898D01*
X178035000Y-51601939D01*
X178035000Y-51398061D01*
X177995226Y-51198102D01*
X177917205Y-51009744D01*
X177803937Y-50840226D01*
X177659774Y-50696063D01*
X177490256Y-50582795D01*
X177301898Y-50504774D01*
X177101939Y-50465000D01*
X176898061Y-50465000D01*
X176698102Y-50504774D01*
X176509744Y-50582795D01*
X176340226Y-50696063D01*
X176321289Y-50715000D01*
X176075158Y-50715000D01*
X171582347Y-46222190D01*
X171557764Y-46192236D01*
X171438233Y-46094138D01*
X171301860Y-46021246D01*
X171153887Y-45976359D01*
X171038561Y-45965000D01*
X171038553Y-45965000D01*
X171000000Y-45961203D01*
X170961447Y-45965000D01*
X147769088Y-45965000D01*
X147795226Y-45901898D01*
X147835000Y-45701939D01*
X147835000Y-45639801D01*
X149181003Y-44293799D01*
X149210001Y-44270001D01*
X149304974Y-44154276D01*
X149375546Y-44022247D01*
X149419003Y-43878986D01*
X149430000Y-43767333D01*
X149430000Y-43767324D01*
X149433676Y-43730001D01*
X149430000Y-43692678D01*
X149430000Y-42413589D01*
X154515000Y-42413589D01*
X154515000Y-42686411D01*
X154568225Y-42953989D01*
X154672629Y-43206043D01*
X154824201Y-43432886D01*
X155017114Y-43625799D01*
X155243957Y-43777371D01*
X155496011Y-43881775D01*
X155763589Y-43935000D01*
X156036411Y-43935000D01*
X156303989Y-43881775D01*
X156556043Y-43777371D01*
X156782886Y-43625799D01*
X156975799Y-43432886D01*
X157127371Y-43206043D01*
X157231775Y-42953989D01*
X157285000Y-42686411D01*
X157285000Y-42413589D01*
X157231775Y-42146011D01*
X157127371Y-41893957D01*
X156975799Y-41667114D01*
X156782886Y-41474201D01*
X156556043Y-41322629D01*
X156303989Y-41218225D01*
X156036411Y-41165000D01*
X155763589Y-41165000D01*
X155496011Y-41218225D01*
X155243957Y-41322629D01*
X155017114Y-41474201D01*
X154824201Y-41667114D01*
X154672629Y-41893957D01*
X154568225Y-42146011D01*
X154515000Y-42413589D01*
X149430000Y-42413589D01*
X149430000Y-41968178D01*
X149616632Y-41843475D01*
X149823475Y-41636632D01*
X149985990Y-41393411D01*
X150097932Y-41123158D01*
X150155000Y-40836260D01*
X150155000Y-40543740D01*
X150097932Y-40256842D01*
X150057819Y-40160000D01*
X159712678Y-40160000D01*
X159750000Y-40163676D01*
X159787322Y-40160000D01*
X159787333Y-40160000D01*
X159898986Y-40149003D01*
X160042247Y-40105546D01*
X160174276Y-40034974D01*
X160290001Y-39940001D01*
X160313804Y-39910997D01*
X161239802Y-38985000D01*
X161301939Y-38985000D01*
X161501898Y-38945226D01*
X161690256Y-38867205D01*
X161859774Y-38753937D01*
X162003937Y-38609774D01*
X162117205Y-38440256D01*
X162195226Y-38251898D01*
X162235000Y-38051939D01*
X162235000Y-37848061D01*
X162195226Y-37648102D01*
X162117205Y-37459744D01*
X162003937Y-37290226D01*
X161859774Y-37146063D01*
X161730005Y-37059354D01*
X161795226Y-36901898D01*
X161835000Y-36701939D01*
X161835000Y-36498061D01*
X161795226Y-36298102D01*
X161717205Y-36109744D01*
X161603937Y-35940226D01*
X161459774Y-35796063D01*
X161290256Y-35682795D01*
X161101898Y-35604774D01*
X160901939Y-35565000D01*
X160698061Y-35565000D01*
X160498102Y-35604774D01*
X160309744Y-35682795D01*
X160140226Y-35796063D01*
X159996063Y-35940226D01*
X159882795Y-36109744D01*
X159804774Y-36298102D01*
X159765000Y-36498061D01*
X159765000Y-36560198D01*
X158935199Y-37390000D01*
X149948178Y-37390000D01*
X149823475Y-37203368D01*
X149616632Y-36996525D01*
X149443271Y-36880689D01*
X149518792Y-36638397D01*
X148670000Y-35789605D01*
X147821208Y-36638397D01*
X147896729Y-36880689D01*
X147723368Y-36996525D01*
X147516525Y-37203368D01*
X147400000Y-37377760D01*
X147283475Y-37203368D01*
X147076632Y-36996525D01*
X146902240Y-36880000D01*
X147076632Y-36763475D01*
X147283475Y-36556632D01*
X147399311Y-36383271D01*
X147641603Y-36458792D01*
X148490395Y-35610000D01*
X148849605Y-35610000D01*
X149698397Y-36458792D01*
X149947472Y-36381157D01*
X150073371Y-36117117D01*
X150145339Y-35833589D01*
X150160611Y-35541469D01*
X150118599Y-35251981D01*
X150020919Y-34976253D01*
X149950009Y-34843589D01*
X151815000Y-34843589D01*
X151815000Y-35116411D01*
X151868225Y-35383989D01*
X151972629Y-35636043D01*
X152124201Y-35862886D01*
X152317114Y-36055799D01*
X152543957Y-36207371D01*
X152796011Y-36311775D01*
X153063589Y-36365000D01*
X153336411Y-36365000D01*
X153603989Y-36311775D01*
X153856043Y-36207371D01*
X154082886Y-36055799D01*
X154275799Y-35862886D01*
X154427371Y-35636043D01*
X154531775Y-35383989D01*
X154585000Y-35116411D01*
X154585000Y-34843589D01*
X157215000Y-34843589D01*
X157215000Y-35116411D01*
X157268225Y-35383989D01*
X157372629Y-35636043D01*
X157524201Y-35862886D01*
X157717114Y-36055799D01*
X157943957Y-36207371D01*
X158196011Y-36311775D01*
X158463589Y-36365000D01*
X158736411Y-36365000D01*
X159003989Y-36311775D01*
X159256043Y-36207371D01*
X159482886Y-36055799D01*
X159675799Y-35862886D01*
X159827371Y-35636043D01*
X159931775Y-35383989D01*
X159985000Y-35116411D01*
X159985000Y-34843589D01*
X159931775Y-34576011D01*
X159827371Y-34323957D01*
X159675799Y-34097114D01*
X159482886Y-33904201D01*
X159256043Y-33752629D01*
X159003989Y-33648225D01*
X158736411Y-33595000D01*
X158463589Y-33595000D01*
X158196011Y-33648225D01*
X157943957Y-33752629D01*
X157717114Y-33904201D01*
X157524201Y-34097114D01*
X157372629Y-34323957D01*
X157268225Y-34576011D01*
X157215000Y-34843589D01*
X154585000Y-34843589D01*
X154531775Y-34576011D01*
X154427371Y-34323957D01*
X154275799Y-34097114D01*
X154082886Y-33904201D01*
X153856043Y-33752629D01*
X153603989Y-33648225D01*
X153336411Y-33595000D01*
X153063589Y-33595000D01*
X152796011Y-33648225D01*
X152543957Y-33752629D01*
X152317114Y-33904201D01*
X152124201Y-34097114D01*
X151972629Y-34323957D01*
X151868225Y-34576011D01*
X151815000Y-34843589D01*
X149950009Y-34843589D01*
X149947472Y-34838843D01*
X149698397Y-34761208D01*
X148849605Y-35610000D01*
X148490395Y-35610000D01*
X147641603Y-34761208D01*
X147399311Y-34836729D01*
X147283475Y-34663368D01*
X147201710Y-34581603D01*
X147821208Y-34581603D01*
X148670000Y-35430395D01*
X149518792Y-34581603D01*
X149441157Y-34332528D01*
X149177117Y-34206629D01*
X148893589Y-34134661D01*
X148601469Y-34119389D01*
X148311981Y-34161401D01*
X148036253Y-34259081D01*
X147898843Y-34332528D01*
X147821208Y-34581603D01*
X147201710Y-34581603D01*
X147076632Y-34456525D01*
X146833411Y-34294010D01*
X146563158Y-34182068D01*
X146276260Y-34125000D01*
X145983740Y-34125000D01*
X145696842Y-34182068D01*
X145426589Y-34294010D01*
X145183368Y-34456525D01*
X144976525Y-34663368D01*
X144814010Y-34906589D01*
X144702068Y-35176842D01*
X144645000Y-35463740D01*
X144645000Y-35756260D01*
X144702068Y-36043158D01*
X144814010Y-36313411D01*
X144976525Y-36556632D01*
X145183368Y-36763475D01*
X145357760Y-36880000D01*
X145183368Y-36996525D01*
X144976525Y-37203368D01*
X144814010Y-37446589D01*
X144702068Y-37716842D01*
X144645000Y-38003740D01*
X144645000Y-38296260D01*
X144702068Y-38583158D01*
X144814010Y-38853411D01*
X144976525Y-39096632D01*
X145183368Y-39303475D01*
X145357760Y-39420000D01*
X145183368Y-39536525D01*
X144976525Y-39743368D01*
X144814010Y-39986589D01*
X144702068Y-40256842D01*
X144645000Y-40543740D01*
X144645000Y-40836260D01*
X144702068Y-41123158D01*
X144814010Y-41393411D01*
X144976525Y-41636632D01*
X145183368Y-41843475D01*
X145426589Y-42005990D01*
X145696842Y-42117932D01*
X145983740Y-42175000D01*
X146276260Y-42175000D01*
X146563158Y-42117932D01*
X146833411Y-42005990D01*
X147076632Y-41843475D01*
X147283475Y-41636632D01*
X147400000Y-41462240D01*
X147516525Y-41636632D01*
X147723368Y-41843475D01*
X147910000Y-41968179D01*
X147910001Y-43415197D01*
X146760199Y-44565000D01*
X146698061Y-44565000D01*
X146498102Y-44604774D01*
X146309744Y-44682795D01*
X146140226Y-44796063D01*
X145996063Y-44940226D01*
X145882795Y-45109744D01*
X145804774Y-45298102D01*
X145765000Y-45498061D01*
X145765000Y-45701939D01*
X145804774Y-45901898D01*
X145830912Y-45965000D01*
X124288552Y-45965000D01*
X124249999Y-45961203D01*
X124211446Y-45965000D01*
X124211439Y-45965000D01*
X124110490Y-45974943D01*
X124096112Y-45976359D01*
X123948140Y-46021246D01*
X123811767Y-46094138D01*
X123771428Y-46127244D01*
X123722187Y-46167655D01*
X123722184Y-46167658D01*
X123692236Y-46192236D01*
X123667658Y-46222184D01*
X116277830Y-53612013D01*
X116245226Y-53448102D01*
X116167205Y-53259744D01*
X116053937Y-53090226D01*
X115909774Y-52946063D01*
X115740256Y-52832795D01*
X115635001Y-52789197D01*
X115635001Y-49638553D01*
X115638798Y-49600000D01*
X115635001Y-49561447D01*
X115635001Y-49561440D01*
X115623642Y-49446114D01*
X115578755Y-49298141D01*
X115505863Y-49161768D01*
X115407765Y-49042237D01*
X115377817Y-49017659D01*
X111535000Y-45174843D01*
X111535000Y-45148061D01*
X111495226Y-44948102D01*
X111417205Y-44759744D01*
X111303937Y-44590226D01*
X111159774Y-44446063D01*
X110990256Y-44332795D01*
X110801898Y-44254774D01*
X110601939Y-44215000D01*
X110398061Y-44215000D01*
X110198102Y-44254774D01*
X110009744Y-44332795D01*
X109840226Y-44446063D01*
X109696063Y-44590226D01*
X109582795Y-44759744D01*
X109504774Y-44948102D01*
X109465000Y-45148061D01*
X109465000Y-45351939D01*
X109504774Y-45551898D01*
X109582795Y-45740256D01*
X109696063Y-45909774D01*
X109840226Y-46053937D01*
X110009744Y-46167205D01*
X110198102Y-46245226D01*
X110398061Y-46285000D01*
X110424843Y-46285000D01*
X114065002Y-49925160D01*
X114065001Y-53311448D01*
X114061204Y-53350001D01*
X114065001Y-53388554D01*
X114065001Y-53388561D01*
X114076360Y-53503887D01*
X114121247Y-53651860D01*
X114194139Y-53788233D01*
X114215000Y-53813652D01*
X114215000Y-53851939D01*
X114254774Y-54051898D01*
X114332795Y-54240256D01*
X114446063Y-54409774D01*
X114590226Y-54553937D01*
X114759744Y-54667205D01*
X114948102Y-54745226D01*
X115112013Y-54777830D01*
X112282190Y-57607653D01*
X112252236Y-57632236D01*
X112154138Y-57751768D01*
X112081246Y-57888141D01*
X112036359Y-58036114D01*
X112025000Y-58151440D01*
X112025000Y-58151447D01*
X112021203Y-58190000D01*
X112025000Y-58228553D01*
X112025000Y-59054251D01*
X111798698Y-59147988D01*
X111501422Y-59346621D01*
X111533739Y-59268601D01*
X111635000Y-58759525D01*
X111635000Y-58240475D01*
X111533739Y-57731399D01*
X111335107Y-57251859D01*
X111046738Y-56820285D01*
X110679715Y-56453262D01*
X110248141Y-56164893D01*
X109826825Y-55990378D01*
X109907502Y-55965905D01*
X110317489Y-55746763D01*
X110676846Y-55451846D01*
X110971763Y-55092490D01*
X111190905Y-54682503D01*
X111325853Y-54237641D01*
X111360000Y-53890939D01*
X111360000Y-51609061D01*
X111325853Y-51262359D01*
X111190905Y-50817497D01*
X110971763Y-50407510D01*
X110676846Y-50048154D01*
X110317490Y-49753237D01*
X109907503Y-49534095D01*
X109462641Y-49399147D01*
X109000000Y-49353581D01*
X108537360Y-49399147D01*
X108092498Y-49534095D01*
X107682511Y-49753237D01*
X107323155Y-50048154D01*
X107028238Y-50407510D01*
X106809095Y-50817497D01*
X106674147Y-51262359D01*
X106640000Y-51609061D01*
X106640000Y-53890938D01*
X106674147Y-54237640D01*
X106809095Y-54682502D01*
X107028237Y-55092489D01*
X107323154Y-55451846D01*
X107682510Y-55746763D01*
X108092497Y-55965905D01*
X108173175Y-55990378D01*
X107751859Y-56164893D01*
X107320285Y-56453262D01*
X106953262Y-56820285D01*
X106664893Y-57251859D01*
X106466261Y-57731399D01*
X106365000Y-58240475D01*
X102785000Y-58240475D01*
X102785000Y-54325157D01*
X108627817Y-48482341D01*
X108657765Y-48457763D01*
X108755863Y-48338232D01*
X108828755Y-48201859D01*
X108843307Y-48153887D01*
X108873642Y-48053887D01*
X108878949Y-48000000D01*
X108885001Y-47938560D01*
X108885001Y-47938553D01*
X108888798Y-47900000D01*
X108885001Y-47861447D01*
X108885001Y-43900000D01*
X121761928Y-43900000D01*
X121774188Y-44024482D01*
X121810498Y-44144180D01*
X121869463Y-44254494D01*
X121948815Y-44351185D01*
X122045506Y-44430537D01*
X122155820Y-44489502D01*
X122275518Y-44525812D01*
X122400000Y-44538072D01*
X122614250Y-44535000D01*
X122773000Y-44376250D01*
X122773000Y-43277000D01*
X121923750Y-43277000D01*
X121765000Y-43435750D01*
X121761928Y-43900000D01*
X108885001Y-43900000D01*
X108885001Y-43210803D01*
X108990256Y-43167205D01*
X109159774Y-43053937D01*
X109303937Y-42909774D01*
X109417205Y-42740256D01*
X109495226Y-42551898D01*
X109535000Y-42351939D01*
X109535000Y-42148061D01*
X109495226Y-41948102D01*
X109417205Y-41759744D01*
X109303937Y-41590226D01*
X109159774Y-41446063D01*
X108990256Y-41332795D01*
X108801898Y-41254774D01*
X108601939Y-41215000D01*
X108398061Y-41215000D01*
X108198102Y-41254774D01*
X108009744Y-41332795D01*
X107840226Y-41446063D01*
X107696063Y-41590226D01*
X107582795Y-41759744D01*
X107504774Y-41948102D01*
X107465000Y-42148061D01*
X107465000Y-42186348D01*
X107444139Y-42211767D01*
X107371247Y-42348140D01*
X107326360Y-42496113D01*
X107315001Y-42611439D01*
X107315001Y-42611446D01*
X107311204Y-42649999D01*
X107315001Y-42688552D01*
X107315002Y-47574840D01*
X101660000Y-53229843D01*
X101660000Y-46539721D01*
X102865000Y-46539721D01*
X102865000Y-46960279D01*
X102947047Y-47372756D01*
X103107988Y-47761302D01*
X103341637Y-48110983D01*
X103639017Y-48408363D01*
X103988698Y-48642012D01*
X104377244Y-48802953D01*
X104789721Y-48885000D01*
X105210279Y-48885000D01*
X105622756Y-48802953D01*
X106011302Y-48642012D01*
X106360983Y-48408363D01*
X106658363Y-48110983D01*
X106892012Y-47761302D01*
X107052953Y-47372756D01*
X107135000Y-46960279D01*
X107135000Y-46539721D01*
X107052953Y-46127244D01*
X106892012Y-45738698D01*
X106658363Y-45389017D01*
X106360983Y-45091637D01*
X106011302Y-44857988D01*
X105622756Y-44697047D01*
X105210279Y-44615000D01*
X104789721Y-44615000D01*
X104377244Y-44697047D01*
X103988698Y-44857988D01*
X103639017Y-45091637D01*
X103341637Y-45389017D01*
X103107988Y-45738698D01*
X102947047Y-46127244D01*
X102865000Y-46539721D01*
X101660000Y-46539721D01*
X101660000Y-38009062D01*
X109240000Y-38009062D01*
X109240000Y-40290939D01*
X109274147Y-40637641D01*
X109409095Y-41082503D01*
X109628238Y-41492490D01*
X109923155Y-41851846D01*
X110282511Y-42146763D01*
X110692498Y-42365905D01*
X111137360Y-42500853D01*
X111600000Y-42546419D01*
X112062641Y-42500853D01*
X112395107Y-42400000D01*
X121761928Y-42400000D01*
X121765000Y-42864250D01*
X121923750Y-43023000D01*
X122773000Y-43023000D01*
X122773000Y-41923750D01*
X123027000Y-41923750D01*
X123027000Y-43023000D01*
X123047000Y-43023000D01*
X123047000Y-43277000D01*
X123027000Y-43277000D01*
X123027000Y-44376250D01*
X123185750Y-44535000D01*
X123400000Y-44538072D01*
X123524482Y-44525812D01*
X123644180Y-44489502D01*
X123754494Y-44430537D01*
X123851185Y-44351185D01*
X123900000Y-44291704D01*
X123948815Y-44351185D01*
X124045506Y-44430537D01*
X124155820Y-44489502D01*
X124275518Y-44525812D01*
X124400000Y-44538072D01*
X125400000Y-44538072D01*
X125524482Y-44525812D01*
X125644180Y-44489502D01*
X125754494Y-44430537D01*
X125851185Y-44351185D01*
X125930537Y-44254494D01*
X125989502Y-44144180D01*
X126025812Y-44024482D01*
X126038072Y-43900000D01*
X126038072Y-42400000D01*
X126025812Y-42275518D01*
X125989502Y-42155820D01*
X125930537Y-42045506D01*
X125851185Y-41948815D01*
X125754494Y-41869463D01*
X125644180Y-41810498D01*
X125582727Y-41791856D01*
X125617205Y-41740256D01*
X125695226Y-41551898D01*
X125735000Y-41351939D01*
X125735000Y-41198061D01*
X126765000Y-41198061D01*
X126765000Y-41401939D01*
X126804774Y-41601898D01*
X126882795Y-41790256D01*
X126974846Y-41928021D01*
X126919463Y-41995506D01*
X126860498Y-42105820D01*
X126824188Y-42225518D01*
X126811928Y-42350000D01*
X126811928Y-43850000D01*
X126824188Y-43974482D01*
X126860498Y-44094180D01*
X126919463Y-44204494D01*
X126998815Y-44301185D01*
X127095506Y-44380537D01*
X127205820Y-44439502D01*
X127325518Y-44475812D01*
X127450000Y-44488072D01*
X128450000Y-44488072D01*
X128574482Y-44475812D01*
X128694180Y-44439502D01*
X128804494Y-44380537D01*
X128901185Y-44301185D01*
X128950000Y-44241704D01*
X128998815Y-44301185D01*
X129095506Y-44380537D01*
X129205820Y-44439502D01*
X129325518Y-44475812D01*
X129450000Y-44488072D01*
X129664250Y-44485000D01*
X129823000Y-44326250D01*
X129823000Y-43227000D01*
X130077000Y-43227000D01*
X130077000Y-44326250D01*
X130235750Y-44485000D01*
X130450000Y-44488072D01*
X130574482Y-44475812D01*
X130694180Y-44439502D01*
X130804494Y-44380537D01*
X130901185Y-44301185D01*
X130980537Y-44204494D01*
X131039502Y-44094180D01*
X131075812Y-43974482D01*
X131088072Y-43850000D01*
X131085000Y-43385750D01*
X130926250Y-43227000D01*
X130077000Y-43227000D01*
X129823000Y-43227000D01*
X129803000Y-43227000D01*
X129803000Y-42973000D01*
X129823000Y-42973000D01*
X129823000Y-41873750D01*
X130077000Y-41873750D01*
X130077000Y-42973000D01*
X130926250Y-42973000D01*
X131085000Y-42814250D01*
X131088072Y-42350000D01*
X131075812Y-42225518D01*
X131039502Y-42105820D01*
X130980537Y-41995506D01*
X130901185Y-41898815D01*
X130804494Y-41819463D01*
X130694180Y-41760498D01*
X130574482Y-41724188D01*
X130450000Y-41711928D01*
X130235750Y-41715000D01*
X130077000Y-41873750D01*
X129823000Y-41873750D01*
X129664250Y-41715000D01*
X129450000Y-41711928D01*
X129325518Y-41724188D01*
X129205820Y-41760498D01*
X129095506Y-41819463D01*
X128998815Y-41898815D01*
X128950000Y-41958296D01*
X128901185Y-41898815D01*
X128804494Y-41819463D01*
X128723123Y-41775969D01*
X128795226Y-41601898D01*
X128835000Y-41401939D01*
X128835000Y-41198061D01*
X128795226Y-40998102D01*
X128717205Y-40809744D01*
X128603937Y-40640226D01*
X128459774Y-40496063D01*
X128290256Y-40382795D01*
X128101898Y-40304774D01*
X127901939Y-40265000D01*
X127698061Y-40265000D01*
X127498102Y-40304774D01*
X127309744Y-40382795D01*
X127140226Y-40496063D01*
X126996063Y-40640226D01*
X126882795Y-40809744D01*
X126804774Y-40998102D01*
X126765000Y-41198061D01*
X125735000Y-41198061D01*
X125735000Y-41148061D01*
X125695226Y-40948102D01*
X125617205Y-40759744D01*
X125503937Y-40590226D01*
X125359774Y-40446063D01*
X125190256Y-40332795D01*
X125001898Y-40254774D01*
X124801939Y-40215000D01*
X124598061Y-40215000D01*
X124398102Y-40254774D01*
X124209744Y-40332795D01*
X124040226Y-40446063D01*
X123896063Y-40590226D01*
X123782795Y-40759744D01*
X123704774Y-40948102D01*
X123665000Y-41148061D01*
X123665000Y-41351939D01*
X123704774Y-41551898D01*
X123782795Y-41740256D01*
X123896063Y-41909774D01*
X123940000Y-41953711D01*
X123940000Y-41959556D01*
X123900000Y-42008296D01*
X123851185Y-41948815D01*
X123754494Y-41869463D01*
X123644180Y-41810498D01*
X123524482Y-41774188D01*
X123400000Y-41761928D01*
X123185750Y-41765000D01*
X123027000Y-41923750D01*
X122773000Y-41923750D01*
X122614250Y-41765000D01*
X122400000Y-41761928D01*
X122275518Y-41774188D01*
X122155820Y-41810498D01*
X122045506Y-41869463D01*
X121948815Y-41948815D01*
X121869463Y-42045506D01*
X121810498Y-42155820D01*
X121774188Y-42275518D01*
X121761928Y-42400000D01*
X112395107Y-42400000D01*
X112507503Y-42365905D01*
X112917490Y-42146763D01*
X113276846Y-41851846D01*
X113571763Y-41492490D01*
X113790905Y-41082503D01*
X113925853Y-40637641D01*
X113960000Y-40290939D01*
X113960000Y-38009061D01*
X113925853Y-37662359D01*
X113857021Y-37435448D01*
X122350000Y-37435448D01*
X122350000Y-37624552D01*
X122386892Y-37810022D01*
X122459259Y-37984731D01*
X122564319Y-38141964D01*
X122698036Y-38275681D01*
X122855269Y-38380741D01*
X123029978Y-38453108D01*
X123215448Y-38490000D01*
X123404552Y-38490000D01*
X123590022Y-38453108D01*
X123764731Y-38380741D01*
X123921964Y-38275681D01*
X124055681Y-38141964D01*
X124160741Y-37984731D01*
X124233108Y-37810022D01*
X124270000Y-37624552D01*
X124270000Y-37435448D01*
X128130000Y-37435448D01*
X128130000Y-37624552D01*
X128166892Y-37810022D01*
X128239259Y-37984731D01*
X128344319Y-38141964D01*
X128478036Y-38275681D01*
X128635269Y-38380741D01*
X128809978Y-38453108D01*
X128995448Y-38490000D01*
X129184552Y-38490000D01*
X129370022Y-38453108D01*
X129544731Y-38380741D01*
X129701964Y-38275681D01*
X129835681Y-38141964D01*
X129940741Y-37984731D01*
X130013108Y-37810022D01*
X130050000Y-37624552D01*
X130050000Y-37435448D01*
X130013108Y-37249978D01*
X129940741Y-37075269D01*
X129835681Y-36918036D01*
X129701964Y-36784319D01*
X129544731Y-36679259D01*
X129370022Y-36606892D01*
X129184552Y-36570000D01*
X128995448Y-36570000D01*
X128809978Y-36606892D01*
X128635269Y-36679259D01*
X128478036Y-36784319D01*
X128344319Y-36918036D01*
X128239259Y-37075269D01*
X128166892Y-37249978D01*
X128130000Y-37435448D01*
X124270000Y-37435448D01*
X124233108Y-37249978D01*
X124160741Y-37075269D01*
X124055681Y-36918036D01*
X123921964Y-36784319D01*
X123764731Y-36679259D01*
X123590022Y-36606892D01*
X123404552Y-36570000D01*
X123215448Y-36570000D01*
X123029978Y-36606892D01*
X122855269Y-36679259D01*
X122698036Y-36784319D01*
X122564319Y-36918036D01*
X122459259Y-37075269D01*
X122386892Y-37249978D01*
X122350000Y-37435448D01*
X113857021Y-37435448D01*
X113790905Y-37217497D01*
X113571763Y-36807510D01*
X113276846Y-36448154D01*
X112917489Y-36153237D01*
X112507502Y-35934095D01*
X112062640Y-35799147D01*
X111600000Y-35753581D01*
X111137359Y-35799147D01*
X110692497Y-35934095D01*
X110282510Y-36153237D01*
X109923154Y-36448154D01*
X109628237Y-36807511D01*
X109409095Y-37217498D01*
X109274147Y-37662360D01*
X109240000Y-38009062D01*
X101660000Y-38009062D01*
X101660000Y-33160000D01*
X196340001Y-33160000D01*
X196340001Y-51479843D01*
G04 #@! TA.AperFunction,Conductor*
D18*
G36*
X196340001Y-51479843D02*
G01*
X195535000Y-50674843D01*
X195535000Y-50648061D01*
X195495226Y-50448102D01*
X195417205Y-50259744D01*
X195303937Y-50090226D01*
X195159774Y-49946063D01*
X194990256Y-49832795D01*
X194801898Y-49754774D01*
X194601939Y-49715000D01*
X194398061Y-49715000D01*
X194198102Y-49754774D01*
X194009744Y-49832795D01*
X193840226Y-49946063D01*
X193696063Y-50090226D01*
X193597658Y-50237501D01*
X192011694Y-48651537D01*
X192377244Y-48802953D01*
X192789721Y-48885000D01*
X193210279Y-48885000D01*
X193622756Y-48802953D01*
X194011302Y-48642012D01*
X194360983Y-48408363D01*
X194658363Y-48110983D01*
X194892012Y-47761302D01*
X195052953Y-47372756D01*
X195135000Y-46960279D01*
X195135000Y-46539721D01*
X195052953Y-46127244D01*
X194892012Y-45738698D01*
X194658363Y-45389017D01*
X194360983Y-45091637D01*
X194011302Y-44857988D01*
X193622756Y-44697047D01*
X193210279Y-44615000D01*
X192789721Y-44615000D01*
X192377244Y-44697047D01*
X191988698Y-44857988D01*
X191639017Y-45091637D01*
X191341637Y-45389017D01*
X191107988Y-45738698D01*
X190947047Y-46127244D01*
X190865000Y-46539721D01*
X190865000Y-46960279D01*
X190947047Y-47372756D01*
X191098463Y-47738306D01*
X190832347Y-47472190D01*
X190807764Y-47442236D01*
X190688233Y-47344138D01*
X190551860Y-47271246D01*
X190403887Y-47226359D01*
X190288561Y-47215000D01*
X190288553Y-47215000D01*
X190250000Y-47211203D01*
X190211447Y-47215000D01*
X189928711Y-47215000D01*
X189909774Y-47196063D01*
X189740256Y-47082795D01*
X189551898Y-47004774D01*
X189351939Y-46965000D01*
X189148061Y-46965000D01*
X188948102Y-47004774D01*
X188759744Y-47082795D01*
X188590226Y-47196063D01*
X188446063Y-47340226D01*
X188332795Y-47509744D01*
X188254774Y-47698102D01*
X188215000Y-47898061D01*
X188215000Y-48101939D01*
X188254774Y-48301898D01*
X188332795Y-48490256D01*
X188446063Y-48659774D01*
X188590226Y-48803937D01*
X188759744Y-48917205D01*
X188948102Y-48995226D01*
X189148061Y-49035000D01*
X189351939Y-49035000D01*
X189551898Y-48995226D01*
X189740256Y-48917205D01*
X189909774Y-48803937D01*
X189926777Y-48786934D01*
X194965000Y-53825157D01*
X194965001Y-84064840D01*
X193645000Y-85384841D01*
X193645000Y-83005039D01*
X193821302Y-82932012D01*
X194170983Y-82698363D01*
X194468363Y-82400983D01*
X194702012Y-82051302D01*
X194862953Y-81662756D01*
X194945000Y-81250279D01*
X194945000Y-80829721D01*
X194862953Y-80417244D01*
X194702012Y-80028698D01*
X194468363Y-79679017D01*
X194170983Y-79381637D01*
X193821302Y-79147988D01*
X193645000Y-79074961D01*
X193645000Y-63005039D01*
X193821302Y-62932012D01*
X194170983Y-62698363D01*
X194468363Y-62400983D01*
X194702012Y-62051302D01*
X194862953Y-61662756D01*
X194945000Y-61250279D01*
X194945000Y-60829721D01*
X194862953Y-60417244D01*
X194702012Y-60028698D01*
X194468363Y-59679017D01*
X194170983Y-59381637D01*
X193821302Y-59147988D01*
X193432756Y-58987047D01*
X193020279Y-58905000D01*
X192599721Y-58905000D01*
X192187244Y-58987047D01*
X191798698Y-59147988D01*
X191501422Y-59346621D01*
X191533739Y-59268601D01*
X191635000Y-58759525D01*
X191635000Y-58240475D01*
X191533739Y-57731399D01*
X191335107Y-57251859D01*
X191046738Y-56820285D01*
X190679715Y-56453262D01*
X190248141Y-56164893D01*
X189826825Y-55990378D01*
X189907502Y-55965905D01*
X190317489Y-55746763D01*
X190676846Y-55451846D01*
X190971763Y-55092490D01*
X191190905Y-54682503D01*
X191325853Y-54237641D01*
X191360000Y-53890939D01*
X191360000Y-51609061D01*
X191325853Y-51262359D01*
X191190905Y-50817497D01*
X190971763Y-50407510D01*
X190676846Y-50048154D01*
X190317490Y-49753237D01*
X189907503Y-49534095D01*
X189462641Y-49399147D01*
X189000000Y-49353581D01*
X188537360Y-49399147D01*
X188092498Y-49534095D01*
X187682511Y-49753237D01*
X187323155Y-50048154D01*
X187028238Y-50407510D01*
X186809095Y-50817497D01*
X186674147Y-51262359D01*
X186640000Y-51609061D01*
X186640000Y-53890938D01*
X186674147Y-54237640D01*
X186809095Y-54682502D01*
X187028237Y-55092489D01*
X187323154Y-55451846D01*
X187682510Y-55746763D01*
X188092497Y-55965905D01*
X188173175Y-55990378D01*
X187751859Y-56164893D01*
X187320285Y-56453262D01*
X186953262Y-56820285D01*
X186664893Y-57251859D01*
X186466261Y-57731399D01*
X186365000Y-58240475D01*
X186365000Y-58759525D01*
X186466261Y-59268601D01*
X186664893Y-59748141D01*
X186953262Y-60179715D01*
X187320285Y-60546738D01*
X187751859Y-60835107D01*
X188231399Y-61033739D01*
X188740475Y-61135000D01*
X189259525Y-61135000D01*
X189768601Y-61033739D01*
X190248141Y-60835107D01*
X190679715Y-60546738D01*
X190744095Y-60482358D01*
X190675000Y-60829721D01*
X190675000Y-61250279D01*
X190757047Y-61662756D01*
X190917988Y-62051302D01*
X191151637Y-62400983D01*
X191449017Y-62698363D01*
X191798698Y-62932012D01*
X191975000Y-63005039D01*
X191975001Y-79074961D01*
X191798698Y-79147988D01*
X191501422Y-79346621D01*
X191533739Y-79268601D01*
X191635000Y-78759525D01*
X191635000Y-78240475D01*
X191533739Y-77731399D01*
X191335107Y-77251859D01*
X191046738Y-76820285D01*
X190679715Y-76453262D01*
X190248141Y-76164893D01*
X189826825Y-75990378D01*
X189907503Y-75965905D01*
X190317490Y-75746763D01*
X190676846Y-75451846D01*
X190971763Y-75092490D01*
X191190905Y-74682503D01*
X191325853Y-74237641D01*
X191360000Y-73890939D01*
X191360000Y-71609061D01*
X191325853Y-71262359D01*
X191190905Y-70817497D01*
X190971763Y-70407510D01*
X190676846Y-70048154D01*
X190317489Y-69753237D01*
X189907502Y-69534095D01*
X189462640Y-69399147D01*
X189000000Y-69353581D01*
X188537359Y-69399147D01*
X188092497Y-69534095D01*
X187682510Y-69753237D01*
X187323154Y-70048154D01*
X187028237Y-70407511D01*
X186809095Y-70817498D01*
X186674147Y-71262360D01*
X186640000Y-71609062D01*
X186640000Y-73890939D01*
X186674147Y-74237641D01*
X186809095Y-74682503D01*
X187028238Y-75092490D01*
X187323155Y-75451846D01*
X187682511Y-75746763D01*
X188092498Y-75965905D01*
X188173175Y-75990378D01*
X187751859Y-76164893D01*
X187320285Y-76453262D01*
X186953262Y-76820285D01*
X186664893Y-77251859D01*
X186466261Y-77731399D01*
X186365000Y-78240475D01*
X186365000Y-78759525D01*
X186466261Y-79268601D01*
X186664893Y-79748141D01*
X186953262Y-80179715D01*
X187320285Y-80546738D01*
X187751859Y-80835107D01*
X188231399Y-81033739D01*
X188740475Y-81135000D01*
X189259525Y-81135000D01*
X189768601Y-81033739D01*
X190248141Y-80835107D01*
X190679715Y-80546738D01*
X190744095Y-80482358D01*
X190675000Y-80829721D01*
X190675000Y-81250279D01*
X190757047Y-81662756D01*
X190917988Y-82051302D01*
X191151637Y-82400983D01*
X191449017Y-82698363D01*
X191798698Y-82932012D01*
X191975000Y-83005039D01*
X191975001Y-99074961D01*
X191798698Y-99147988D01*
X191501422Y-99346621D01*
X191533739Y-99268601D01*
X191635000Y-98759525D01*
X191635000Y-98240475D01*
X191533739Y-97731399D01*
X191335107Y-97251859D01*
X191046738Y-96820285D01*
X190679715Y-96453262D01*
X190248141Y-96164893D01*
X189826825Y-95990378D01*
X189907502Y-95965905D01*
X190317489Y-95746763D01*
X190676846Y-95451846D01*
X190971763Y-95092490D01*
X191190905Y-94682503D01*
X191325853Y-94237641D01*
X191360000Y-93890939D01*
X191360000Y-91609061D01*
X191325853Y-91262359D01*
X191190905Y-90817497D01*
X190971763Y-90407510D01*
X190676846Y-90048154D01*
X190317490Y-89753237D01*
X189907503Y-89534095D01*
X189462641Y-89399147D01*
X189000000Y-89353581D01*
X188537360Y-89399147D01*
X188092498Y-89534095D01*
X187682511Y-89753237D01*
X187323155Y-90048154D01*
X187028238Y-90407510D01*
X186809095Y-90817497D01*
X186674147Y-91262359D01*
X186640000Y-91609061D01*
X186640000Y-93890938D01*
X186674147Y-94237640D01*
X186809095Y-94682502D01*
X187028237Y-95092489D01*
X187323154Y-95451846D01*
X187682510Y-95746763D01*
X188092497Y-95965905D01*
X188173175Y-95990378D01*
X187751859Y-96164893D01*
X187320285Y-96453262D01*
X186953262Y-96820285D01*
X186664893Y-97251859D01*
X186466261Y-97731399D01*
X186365000Y-98240475D01*
X186365000Y-98759525D01*
X186466261Y-99268601D01*
X186664893Y-99748141D01*
X186953262Y-100179715D01*
X187320285Y-100546738D01*
X187751859Y-100835107D01*
X188231399Y-101033739D01*
X188740475Y-101135000D01*
X189259525Y-101135000D01*
X189768601Y-101033739D01*
X190248141Y-100835107D01*
X190679715Y-100546738D01*
X190744095Y-100482358D01*
X190675000Y-100829721D01*
X190675000Y-101250279D01*
X190757047Y-101662756D01*
X190917988Y-102051302D01*
X191151637Y-102400983D01*
X191449017Y-102698363D01*
X191798698Y-102932012D01*
X191975000Y-103005039D01*
X191975001Y-119074961D01*
X191798698Y-119147988D01*
X191501422Y-119346621D01*
X191533739Y-119268601D01*
X191635000Y-118759525D01*
X191635000Y-118240475D01*
X191533739Y-117731399D01*
X191335107Y-117251859D01*
X191046738Y-116820285D01*
X190679715Y-116453262D01*
X190248141Y-116164893D01*
X189826825Y-115990378D01*
X189907503Y-115965905D01*
X190317490Y-115746763D01*
X190676846Y-115451846D01*
X190971763Y-115092490D01*
X191190905Y-114682503D01*
X191325853Y-114237641D01*
X191360000Y-113890939D01*
X191360000Y-111609061D01*
X191325853Y-111262359D01*
X191190905Y-110817497D01*
X190971763Y-110407510D01*
X190676846Y-110048154D01*
X190317489Y-109753237D01*
X189907502Y-109534095D01*
X189462640Y-109399147D01*
X189000000Y-109353581D01*
X188537359Y-109399147D01*
X188092497Y-109534095D01*
X187682510Y-109753237D01*
X187323154Y-110048154D01*
X187028237Y-110407511D01*
X186809095Y-110817498D01*
X186674147Y-111262360D01*
X186640000Y-111609062D01*
X186640000Y-113890939D01*
X186674147Y-114237641D01*
X186809095Y-114682503D01*
X187028238Y-115092490D01*
X187323155Y-115451846D01*
X187682511Y-115746763D01*
X188092498Y-115965905D01*
X188173175Y-115990378D01*
X187751859Y-116164893D01*
X187320285Y-116453262D01*
X186953262Y-116820285D01*
X186664893Y-117251859D01*
X186466261Y-117731399D01*
X186365000Y-118240475D01*
X186365000Y-118759525D01*
X186466261Y-119268601D01*
X186664893Y-119748141D01*
X186953262Y-120179715D01*
X187320285Y-120546738D01*
X187751859Y-120835107D01*
X188231399Y-121033739D01*
X188740475Y-121135000D01*
X189259525Y-121135000D01*
X189768601Y-121033739D01*
X190248141Y-120835107D01*
X190679715Y-120546738D01*
X190744095Y-120482358D01*
X190675000Y-120829721D01*
X190675000Y-121250279D01*
X190757047Y-121662756D01*
X190917988Y-122051302D01*
X191151637Y-122400983D01*
X191449017Y-122698363D01*
X191798698Y-122932012D01*
X192187244Y-123092953D01*
X192599721Y-123175000D01*
X193020279Y-123175000D01*
X193432756Y-123092953D01*
X193821302Y-122932012D01*
X194170983Y-122698363D01*
X194468363Y-122400983D01*
X194702012Y-122051302D01*
X194862953Y-121662756D01*
X194945000Y-121250279D01*
X194945000Y-120829721D01*
X194862953Y-120417244D01*
X194702012Y-120028698D01*
X194468363Y-119679017D01*
X194170983Y-119381637D01*
X193821302Y-119147988D01*
X193645000Y-119074961D01*
X193645000Y-106090536D01*
X193759744Y-106167205D01*
X193948102Y-106245226D01*
X194148061Y-106285000D01*
X194351939Y-106285000D01*
X194551898Y-106245226D01*
X194740256Y-106167205D01*
X194909774Y-106053937D01*
X195053937Y-105909774D01*
X195167205Y-105740256D01*
X195245226Y-105551898D01*
X195285000Y-105351939D01*
X195285000Y-105325157D01*
X195777810Y-104832347D01*
X195807764Y-104807764D01*
X195905862Y-104688233D01*
X195978754Y-104551860D01*
X196023642Y-104403887D01*
X196031020Y-104328974D01*
X196035000Y-104288561D01*
X196035000Y-104288556D01*
X196038797Y-104250000D01*
X196035000Y-104211444D01*
X196035000Y-99538556D01*
X196038797Y-99500000D01*
X196035000Y-99461440D01*
X196035000Y-99461439D01*
X196027140Y-99381637D01*
X196023642Y-99346113D01*
X195978754Y-99198140D01*
X195905862Y-99061767D01*
X195807764Y-98942236D01*
X195777811Y-98917654D01*
X194285000Y-97424843D01*
X194285000Y-87762511D01*
X194398061Y-87785000D01*
X194601939Y-87785000D01*
X194801898Y-87745226D01*
X194990256Y-87667205D01*
X195159774Y-87553937D01*
X195303937Y-87409774D01*
X195417205Y-87240256D01*
X195495226Y-87051898D01*
X195535000Y-86851939D01*
X195535000Y-86825157D01*
X196340000Y-86020157D01*
X196340000Y-113979842D01*
X196285000Y-113924842D01*
X196285000Y-113898061D01*
X196245226Y-113698102D01*
X196167205Y-113509744D01*
X196053937Y-113340226D01*
X195909774Y-113196063D01*
X195740256Y-113082795D01*
X195551898Y-113004774D01*
X195351939Y-112965000D01*
X195148061Y-112965000D01*
X194948102Y-113004774D01*
X194759744Y-113082795D01*
X194590226Y-113196063D01*
X194446063Y-113340226D01*
X194332795Y-113509744D01*
X194254774Y-113698102D01*
X194215000Y-113898061D01*
X194215000Y-114101939D01*
X194254774Y-114301898D01*
X194332795Y-114490256D01*
X194446063Y-114659774D01*
X194590226Y-114803937D01*
X194759744Y-114917205D01*
X194948102Y-114995226D01*
X195148061Y-115035000D01*
X195174842Y-115035000D01*
X195215001Y-115075159D01*
X195215000Y-123174843D01*
X191924843Y-126465000D01*
X104325158Y-126465000D01*
X102785000Y-124924843D01*
X102785000Y-123369721D01*
X104325000Y-123369721D01*
X104325000Y-123790279D01*
X104407047Y-124202756D01*
X104567988Y-124591302D01*
X104801637Y-124940983D01*
X105099017Y-125238363D01*
X105448698Y-125472012D01*
X105837244Y-125632953D01*
X106249721Y-125715000D01*
X106670279Y-125715000D01*
X107082756Y-125632953D01*
X107471302Y-125472012D01*
X107820983Y-125238363D01*
X108118363Y-124940983D01*
X108352012Y-124591302D01*
X108512953Y-124202756D01*
X108595000Y-123790279D01*
X108595000Y-123369721D01*
X124325000Y-123369721D01*
X124325000Y-123790279D01*
X124407047Y-124202756D01*
X124567988Y-124591302D01*
X124801637Y-124940983D01*
X125099017Y-125238363D01*
X125448698Y-125472012D01*
X125837244Y-125632953D01*
X126249721Y-125715000D01*
X126670279Y-125715000D01*
X127082756Y-125632953D01*
X127471302Y-125472012D01*
X127820983Y-125238363D01*
X128118363Y-124940983D01*
X128352012Y-124591302D01*
X128512953Y-124202756D01*
X128595000Y-123790279D01*
X128595000Y-123369721D01*
X144325000Y-123369721D01*
X144325000Y-123790279D01*
X144407047Y-124202756D01*
X144567988Y-124591302D01*
X144801637Y-124940983D01*
X145099017Y-125238363D01*
X145448698Y-125472012D01*
X145837244Y-125632953D01*
X146249721Y-125715000D01*
X146670279Y-125715000D01*
X147082756Y-125632953D01*
X147471302Y-125472012D01*
X147820983Y-125238363D01*
X148118363Y-124940983D01*
X148352012Y-124591302D01*
X148512953Y-124202756D01*
X148595000Y-123790279D01*
X148595000Y-123369721D01*
X164325000Y-123369721D01*
X164325000Y-123790279D01*
X164407047Y-124202756D01*
X164567988Y-124591302D01*
X164801637Y-124940983D01*
X165099017Y-125238363D01*
X165448698Y-125472012D01*
X165837244Y-125632953D01*
X166249721Y-125715000D01*
X166670279Y-125715000D01*
X167082756Y-125632953D01*
X167471302Y-125472012D01*
X167820983Y-125238363D01*
X168118363Y-124940983D01*
X168352012Y-124591302D01*
X168512953Y-124202756D01*
X168595000Y-123790279D01*
X168595000Y-123369721D01*
X168512953Y-122957244D01*
X168352012Y-122568698D01*
X168118363Y-122219017D01*
X167820983Y-121921637D01*
X167471302Y-121687988D01*
X167082756Y-121527047D01*
X166670279Y-121445000D01*
X166249721Y-121445000D01*
X165837244Y-121527047D01*
X165448698Y-121687988D01*
X165099017Y-121921637D01*
X164801637Y-122219017D01*
X164567988Y-122568698D01*
X164407047Y-122957244D01*
X164325000Y-123369721D01*
X148595000Y-123369721D01*
X148512953Y-122957244D01*
X148352012Y-122568698D01*
X148118363Y-122219017D01*
X147820983Y-121921637D01*
X147471302Y-121687988D01*
X147082756Y-121527047D01*
X146670279Y-121445000D01*
X146249721Y-121445000D01*
X145837244Y-121527047D01*
X145448698Y-121687988D01*
X145099017Y-121921637D01*
X144801637Y-122219017D01*
X144567988Y-122568698D01*
X144407047Y-122957244D01*
X144325000Y-123369721D01*
X128595000Y-123369721D01*
X128512953Y-122957244D01*
X128352012Y-122568698D01*
X128118363Y-122219017D01*
X127820983Y-121921637D01*
X127471302Y-121687988D01*
X127082756Y-121527047D01*
X126670279Y-121445000D01*
X126249721Y-121445000D01*
X125837244Y-121527047D01*
X125448698Y-121687988D01*
X125099017Y-121921637D01*
X124801637Y-122219017D01*
X124567988Y-122568698D01*
X124407047Y-122957244D01*
X124325000Y-123369721D01*
X108595000Y-123369721D01*
X108512953Y-122957244D01*
X108352012Y-122568698D01*
X108118363Y-122219017D01*
X107820983Y-121921637D01*
X107471302Y-121687988D01*
X107082756Y-121527047D01*
X106670279Y-121445000D01*
X106249721Y-121445000D01*
X105837244Y-121527047D01*
X105448698Y-121687988D01*
X105099017Y-121921637D01*
X104801637Y-122219017D01*
X104567988Y-122568698D01*
X104407047Y-122957244D01*
X104325000Y-123369721D01*
X102785000Y-123369721D01*
X102785000Y-103369721D01*
X104325000Y-103369721D01*
X104325000Y-103790279D01*
X104407047Y-104202756D01*
X104567988Y-104591302D01*
X104801637Y-104940983D01*
X105099017Y-105238363D01*
X105448698Y-105472012D01*
X105837244Y-105632953D01*
X106249721Y-105715000D01*
X106670279Y-105715000D01*
X107082756Y-105632953D01*
X107471302Y-105472012D01*
X107820983Y-105238363D01*
X108118363Y-104940983D01*
X108352012Y-104591302D01*
X108512953Y-104202756D01*
X108595000Y-103790279D01*
X108595000Y-103369721D01*
X108512953Y-102957244D01*
X108352012Y-102568698D01*
X108118363Y-102219017D01*
X107820983Y-101921637D01*
X107471302Y-101687988D01*
X107082756Y-101527047D01*
X106670279Y-101445000D01*
X106249721Y-101445000D01*
X105837244Y-101527047D01*
X105448698Y-101687988D01*
X105099017Y-101921637D01*
X104801637Y-102219017D01*
X104567988Y-102568698D01*
X104407047Y-102957244D01*
X104325000Y-103369721D01*
X102785000Y-103369721D01*
X102785000Y-83369721D01*
X104325000Y-83369721D01*
X104325000Y-83790279D01*
X104407047Y-84202756D01*
X104567988Y-84591302D01*
X104801637Y-84940983D01*
X105099017Y-85238363D01*
X105448698Y-85472012D01*
X105837244Y-85632953D01*
X106249721Y-85715000D01*
X106670279Y-85715000D01*
X107082756Y-85632953D01*
X107471302Y-85472012D01*
X107820983Y-85238363D01*
X108118363Y-84940983D01*
X108352012Y-84591302D01*
X108512953Y-84202756D01*
X108595000Y-83790279D01*
X108595000Y-83369721D01*
X108512953Y-82957244D01*
X108352012Y-82568698D01*
X108118363Y-82219017D01*
X107820983Y-81921637D01*
X107471302Y-81687988D01*
X107082756Y-81527047D01*
X106670279Y-81445000D01*
X106249721Y-81445000D01*
X105837244Y-81527047D01*
X105448698Y-81687988D01*
X105099017Y-81921637D01*
X104801637Y-82219017D01*
X104567988Y-82568698D01*
X104407047Y-82957244D01*
X104325000Y-83369721D01*
X102785000Y-83369721D01*
X102785000Y-63369721D01*
X104325000Y-63369721D01*
X104325000Y-63790279D01*
X104407047Y-64202756D01*
X104567988Y-64591302D01*
X104801637Y-64940983D01*
X105099017Y-65238363D01*
X105448698Y-65472012D01*
X105837244Y-65632953D01*
X106249721Y-65715000D01*
X106670279Y-65715000D01*
X107082756Y-65632953D01*
X107471302Y-65472012D01*
X107820983Y-65238363D01*
X108118363Y-64940983D01*
X108352012Y-64591302D01*
X108512953Y-64202756D01*
X108595000Y-63790279D01*
X108595000Y-63369721D01*
X108512953Y-62957244D01*
X108352012Y-62568698D01*
X108118363Y-62219017D01*
X107820983Y-61921637D01*
X107471302Y-61687988D01*
X107082756Y-61527047D01*
X106670279Y-61445000D01*
X106249721Y-61445000D01*
X105837244Y-61527047D01*
X105448698Y-61687988D01*
X105099017Y-61921637D01*
X104801637Y-62219017D01*
X104567988Y-62568698D01*
X104407047Y-62957244D01*
X104325000Y-63369721D01*
X102785000Y-63369721D01*
X102785000Y-58240475D01*
X106365000Y-58240475D01*
X106365000Y-58759525D01*
X106466261Y-59268601D01*
X106664893Y-59748141D01*
X106953262Y-60179715D01*
X107320285Y-60546738D01*
X107751859Y-60835107D01*
X108231399Y-61033739D01*
X108740475Y-61135000D01*
X109259525Y-61135000D01*
X109768601Y-61033739D01*
X110248141Y-60835107D01*
X110679715Y-60546738D01*
X110744095Y-60482358D01*
X110675000Y-60829721D01*
X110675000Y-61250279D01*
X110757047Y-61662756D01*
X110917988Y-62051302D01*
X111151637Y-62400983D01*
X111449017Y-62698363D01*
X111798698Y-62932012D01*
X111975001Y-63005039D01*
X111975000Y-79074961D01*
X111798698Y-79147988D01*
X111501422Y-79346621D01*
X111533739Y-79268601D01*
X111635000Y-78759525D01*
X111635000Y-78240475D01*
X111533739Y-77731399D01*
X111335107Y-77251859D01*
X111046738Y-76820285D01*
X110679715Y-76453262D01*
X110248141Y-76164893D01*
X109826825Y-75990378D01*
X109907503Y-75965905D01*
X110317490Y-75746763D01*
X110676846Y-75451846D01*
X110971763Y-75092490D01*
X111190905Y-74682503D01*
X111325853Y-74237641D01*
X111360000Y-73890939D01*
X111360000Y-71609061D01*
X111325853Y-71262359D01*
X111190905Y-70817497D01*
X110971763Y-70407510D01*
X110676846Y-70048154D01*
X110317489Y-69753237D01*
X109907502Y-69534095D01*
X109462640Y-69399147D01*
X109000000Y-69353581D01*
X108537359Y-69399147D01*
X108092497Y-69534095D01*
X107682510Y-69753237D01*
X107323154Y-70048154D01*
X107028237Y-70407511D01*
X106809095Y-70817498D01*
X106674147Y-71262360D01*
X106640000Y-71609062D01*
X106640000Y-73890939D01*
X106674147Y-74237641D01*
X106809095Y-74682503D01*
X107028238Y-75092490D01*
X107323155Y-75451846D01*
X107682511Y-75746763D01*
X108092498Y-75965905D01*
X108173175Y-75990378D01*
X107751859Y-76164893D01*
X107320285Y-76453262D01*
X106953262Y-76820285D01*
X106664893Y-77251859D01*
X106466261Y-77731399D01*
X106365000Y-78240475D01*
X106365000Y-78759525D01*
X106466261Y-79268601D01*
X106664893Y-79748141D01*
X106953262Y-80179715D01*
X107320285Y-80546738D01*
X107751859Y-80835107D01*
X108231399Y-81033739D01*
X108740475Y-81135000D01*
X109259525Y-81135000D01*
X109768601Y-81033739D01*
X110248141Y-80835107D01*
X110679715Y-80546738D01*
X110744095Y-80482358D01*
X110675000Y-80829721D01*
X110675000Y-81250279D01*
X110757047Y-81662756D01*
X110917988Y-82051302D01*
X111151637Y-82400983D01*
X111449017Y-82698363D01*
X111798698Y-82932012D01*
X111975001Y-83005039D01*
X111975000Y-99074961D01*
X111798698Y-99147988D01*
X111501422Y-99346621D01*
X111533739Y-99268601D01*
X111635000Y-98759525D01*
X111635000Y-98240475D01*
X111533739Y-97731399D01*
X111335107Y-97251859D01*
X111046738Y-96820285D01*
X110679715Y-96453262D01*
X110248141Y-96164893D01*
X109826825Y-95990378D01*
X109907502Y-95965905D01*
X110317489Y-95746763D01*
X110676846Y-95451846D01*
X110971763Y-95092490D01*
X111190905Y-94682503D01*
X111325853Y-94237641D01*
X111360000Y-93890939D01*
X111360000Y-91609061D01*
X111325853Y-91262359D01*
X111190905Y-90817497D01*
X110971763Y-90407510D01*
X110676846Y-90048154D01*
X110317490Y-89753237D01*
X109907503Y-89534095D01*
X109462641Y-89399147D01*
X109000000Y-89353581D01*
X108537360Y-89399147D01*
X108092498Y-89534095D01*
X107682511Y-89753237D01*
X107323155Y-90048154D01*
X107028238Y-90407510D01*
X106809095Y-90817497D01*
X106674147Y-91262359D01*
X106640000Y-91609061D01*
X106640000Y-93890938D01*
X106674147Y-94237640D01*
X106809095Y-94682502D01*
X107028237Y-95092489D01*
X107323154Y-95451846D01*
X107682510Y-95746763D01*
X108092497Y-95965905D01*
X108173175Y-95990378D01*
X107751859Y-96164893D01*
X107320285Y-96453262D01*
X106953262Y-96820285D01*
X106664893Y-97251859D01*
X106466261Y-97731399D01*
X106365000Y-98240475D01*
X106365000Y-98759525D01*
X106466261Y-99268601D01*
X106664893Y-99748141D01*
X106953262Y-100179715D01*
X107320285Y-100546738D01*
X107751859Y-100835107D01*
X108231399Y-101033739D01*
X108740475Y-101135000D01*
X109259525Y-101135000D01*
X109768601Y-101033739D01*
X110248141Y-100835107D01*
X110679715Y-100546738D01*
X110744095Y-100482358D01*
X110675000Y-100829721D01*
X110675000Y-101250279D01*
X110757047Y-101662756D01*
X110917988Y-102051302D01*
X111151637Y-102400983D01*
X111449017Y-102698363D01*
X111798698Y-102932012D01*
X111975001Y-103005039D01*
X111975000Y-119074961D01*
X111798698Y-119147988D01*
X111501422Y-119346621D01*
X111533739Y-119268601D01*
X111635000Y-118759525D01*
X111635000Y-118240475D01*
X111533739Y-117731399D01*
X111335107Y-117251859D01*
X111046738Y-116820285D01*
X110679715Y-116453262D01*
X110248141Y-116164893D01*
X109826825Y-115990378D01*
X109907503Y-115965905D01*
X110317490Y-115746763D01*
X110676846Y-115451846D01*
X110971763Y-115092490D01*
X111190905Y-114682503D01*
X111325853Y-114237641D01*
X111360000Y-113890939D01*
X111360000Y-111609061D01*
X111325853Y-111262359D01*
X111190905Y-110817497D01*
X110971763Y-110407510D01*
X110676846Y-110048154D01*
X110317489Y-109753237D01*
X109907502Y-109534095D01*
X109462640Y-109399147D01*
X109000000Y-109353581D01*
X108537359Y-109399147D01*
X108092497Y-109534095D01*
X107682510Y-109753237D01*
X107323154Y-110048154D01*
X107028237Y-110407511D01*
X106809095Y-110817498D01*
X106674147Y-111262360D01*
X106640000Y-111609062D01*
X106640000Y-113890939D01*
X106674147Y-114237641D01*
X106809095Y-114682503D01*
X107028238Y-115092490D01*
X107323155Y-115451846D01*
X107682511Y-115746763D01*
X108092498Y-115965905D01*
X108173175Y-115990378D01*
X107751859Y-116164893D01*
X107320285Y-116453262D01*
X106953262Y-116820285D01*
X106664893Y-117251859D01*
X106466261Y-117731399D01*
X106365000Y-118240475D01*
X106365000Y-118759525D01*
X106466261Y-119268601D01*
X106664893Y-119748141D01*
X106953262Y-120179715D01*
X107320285Y-120546738D01*
X107751859Y-120835107D01*
X108231399Y-121033739D01*
X108740475Y-121135000D01*
X109259525Y-121135000D01*
X109768601Y-121033739D01*
X110248141Y-120835107D01*
X110679715Y-120546738D01*
X110744095Y-120482358D01*
X110675000Y-120829721D01*
X110675000Y-121250279D01*
X110757047Y-121662756D01*
X110917988Y-122051302D01*
X111151637Y-122400983D01*
X111449017Y-122698363D01*
X111798698Y-122932012D01*
X112187244Y-123092953D01*
X112599721Y-123175000D01*
X113020279Y-123175000D01*
X113432756Y-123092953D01*
X113821302Y-122932012D01*
X114170983Y-122698363D01*
X114468363Y-122400983D01*
X114702012Y-122051302D01*
X114862953Y-121662756D01*
X114945000Y-121250279D01*
X114945000Y-120829721D01*
X114862953Y-120417244D01*
X114702012Y-120028698D01*
X114468363Y-119679017D01*
X114170983Y-119381637D01*
X113821302Y-119147988D01*
X113645000Y-119074961D01*
X113645000Y-108039721D01*
X116865000Y-108039721D01*
X116865000Y-108460279D01*
X116947047Y-108872756D01*
X117107988Y-109261302D01*
X117341637Y-109610983D01*
X117639017Y-109908363D01*
X117988698Y-110142012D01*
X118377244Y-110302953D01*
X118789721Y-110385000D01*
X119210279Y-110385000D01*
X119622756Y-110302953D01*
X120011302Y-110142012D01*
X120360983Y-109908363D01*
X120658363Y-109610983D01*
X120892012Y-109261302D01*
X121052953Y-108872756D01*
X121135000Y-108460279D01*
X121135000Y-108039721D01*
X121052953Y-107627244D01*
X120892012Y-107238698D01*
X120658363Y-106889017D01*
X120360983Y-106591637D01*
X120011302Y-106357988D01*
X119622756Y-106197047D01*
X119210279Y-106115000D01*
X118789721Y-106115000D01*
X118377244Y-106197047D01*
X117988698Y-106357988D01*
X117639017Y-106591637D01*
X117341637Y-106889017D01*
X117107988Y-107238698D01*
X116947047Y-107627244D01*
X116865000Y-108039721D01*
X113645000Y-108039721D01*
X113645000Y-103369721D01*
X124325000Y-103369721D01*
X124325000Y-103790279D01*
X124407047Y-104202756D01*
X124567988Y-104591302D01*
X124801637Y-104940983D01*
X125099017Y-105238363D01*
X125448698Y-105472012D01*
X125837244Y-105632953D01*
X126249721Y-105715000D01*
X126670279Y-105715000D01*
X127082756Y-105632953D01*
X127471302Y-105472012D01*
X127820983Y-105238363D01*
X128118363Y-104940983D01*
X128352012Y-104591302D01*
X128512953Y-104202756D01*
X128595000Y-103790279D01*
X128595000Y-103369721D01*
X128512953Y-102957244D01*
X128352012Y-102568698D01*
X128118363Y-102219017D01*
X127820983Y-101921637D01*
X127471302Y-101687988D01*
X127082756Y-101527047D01*
X126670279Y-101445000D01*
X126249721Y-101445000D01*
X125837244Y-101527047D01*
X125448698Y-101687988D01*
X125099017Y-101921637D01*
X124801637Y-102219017D01*
X124567988Y-102568698D01*
X124407047Y-102957244D01*
X124325000Y-103369721D01*
X113645000Y-103369721D01*
X113645000Y-103005039D01*
X113821302Y-102932012D01*
X114170983Y-102698363D01*
X114468363Y-102400983D01*
X114702012Y-102051302D01*
X114862953Y-101662756D01*
X114945000Y-101250279D01*
X114945000Y-100829721D01*
X114862953Y-100417244D01*
X114702012Y-100028698D01*
X114468363Y-99679017D01*
X114170983Y-99381637D01*
X113821302Y-99147988D01*
X113645000Y-99074961D01*
X113645000Y-83369721D01*
X124325000Y-83369721D01*
X124325000Y-83790279D01*
X124407047Y-84202756D01*
X124567988Y-84591302D01*
X124801637Y-84940983D01*
X125099017Y-85238363D01*
X125448698Y-85472012D01*
X125837244Y-85632953D01*
X126249721Y-85715000D01*
X126670279Y-85715000D01*
X127082756Y-85632953D01*
X127471302Y-85472012D01*
X127820983Y-85238363D01*
X128118363Y-84940983D01*
X128352012Y-84591302D01*
X128512953Y-84202756D01*
X128595000Y-83790279D01*
X128595000Y-83369721D01*
X128512953Y-82957244D01*
X128352012Y-82568698D01*
X128118363Y-82219017D01*
X127820983Y-81921637D01*
X127471302Y-81687988D01*
X127082756Y-81527047D01*
X126670279Y-81445000D01*
X126249721Y-81445000D01*
X125837244Y-81527047D01*
X125448698Y-81687988D01*
X125099017Y-81921637D01*
X124801637Y-82219017D01*
X124567988Y-82568698D01*
X124407047Y-82957244D01*
X124325000Y-83369721D01*
X113645000Y-83369721D01*
X113645000Y-83005039D01*
X113821302Y-82932012D01*
X114170983Y-82698363D01*
X114468363Y-82400983D01*
X114702012Y-82051302D01*
X114862953Y-81662756D01*
X114945000Y-81250279D01*
X114945000Y-80829721D01*
X114862953Y-80417244D01*
X114702012Y-80028698D01*
X114468363Y-79679017D01*
X114170983Y-79381637D01*
X113821302Y-79147988D01*
X113645000Y-79074961D01*
X113645000Y-63369721D01*
X124325000Y-63369721D01*
X124325000Y-63790279D01*
X124407047Y-64202756D01*
X124567988Y-64591302D01*
X124801637Y-64940983D01*
X125099017Y-65238363D01*
X125448698Y-65472012D01*
X125837244Y-65632953D01*
X126249721Y-65715000D01*
X126670279Y-65715000D01*
X127082756Y-65632953D01*
X127471302Y-65472012D01*
X127820983Y-65238363D01*
X128118363Y-64940983D01*
X128352012Y-64591302D01*
X128512953Y-64202756D01*
X128595000Y-63790279D01*
X128595000Y-63369721D01*
X128512953Y-62957244D01*
X128352012Y-62568698D01*
X128118363Y-62219017D01*
X127820983Y-61921637D01*
X127471302Y-61687988D01*
X127082756Y-61527047D01*
X126670279Y-61445000D01*
X126249721Y-61445000D01*
X125837244Y-61527047D01*
X125448698Y-61687988D01*
X125099017Y-61921637D01*
X124801637Y-62219017D01*
X124567988Y-62568698D01*
X124407047Y-62957244D01*
X124325000Y-63369721D01*
X113645000Y-63369721D01*
X113645000Y-63005039D01*
X113821302Y-62932012D01*
X114170983Y-62698363D01*
X114468363Y-62400983D01*
X114702012Y-62051302D01*
X114862953Y-61662756D01*
X114945000Y-61250279D01*
X114945000Y-60829721D01*
X114862953Y-60417244D01*
X114702012Y-60028698D01*
X114468363Y-59679017D01*
X114170983Y-59381637D01*
X113821302Y-59147988D01*
X113595000Y-59054251D01*
X113595000Y-58515157D01*
X124575158Y-47535000D01*
X141354842Y-47535000D01*
X132282185Y-56607658D01*
X132252237Y-56632236D01*
X132227659Y-56662184D01*
X132227655Y-56662188D01*
X132194690Y-56702356D01*
X132154139Y-56751767D01*
X132117516Y-56820285D01*
X132081246Y-56888141D01*
X132036359Y-57036114D01*
X132021203Y-57190000D01*
X132025001Y-57228563D01*
X132025001Y-59054250D01*
X131798698Y-59147988D01*
X131501422Y-59346621D01*
X131533739Y-59268601D01*
X131635000Y-58759525D01*
X131635000Y-58240475D01*
X131533739Y-57731399D01*
X131335107Y-57251859D01*
X131046738Y-56820285D01*
X130679715Y-56453262D01*
X130248141Y-56164893D01*
X129826825Y-55990378D01*
X129907502Y-55965905D01*
X130317489Y-55746763D01*
X130676846Y-55451846D01*
X130971763Y-55092490D01*
X131190905Y-54682503D01*
X131325853Y-54237641D01*
X131360000Y-53890939D01*
X131360000Y-51609061D01*
X131325853Y-51262359D01*
X131190905Y-50817497D01*
X130971763Y-50407510D01*
X130676846Y-50048154D01*
X130317490Y-49753237D01*
X129907503Y-49534095D01*
X129462641Y-49399147D01*
X129000000Y-49353581D01*
X128537360Y-49399147D01*
X128092498Y-49534095D01*
X127682511Y-49753237D01*
X127323155Y-50048154D01*
X127028238Y-50407510D01*
X126809095Y-50817497D01*
X126674147Y-51262359D01*
X126640000Y-51609061D01*
X126640000Y-53890938D01*
X126674147Y-54237640D01*
X126809095Y-54682502D01*
X127028237Y-55092489D01*
X127323154Y-55451846D01*
X127682510Y-55746763D01*
X128092497Y-55965905D01*
X128173175Y-55990378D01*
X127751859Y-56164893D01*
X127320285Y-56453262D01*
X126953262Y-56820285D01*
X126664893Y-57251859D01*
X126466261Y-57731399D01*
X126365000Y-58240475D01*
X126365000Y-58759525D01*
X126466261Y-59268601D01*
X126664893Y-59748141D01*
X126953262Y-60179715D01*
X127320285Y-60546738D01*
X127751859Y-60835107D01*
X128231399Y-61033739D01*
X128740475Y-61135000D01*
X129259525Y-61135000D01*
X129768601Y-61033739D01*
X130248141Y-60835107D01*
X130679715Y-60546738D01*
X130744095Y-60482358D01*
X130675000Y-60829721D01*
X130675000Y-61250279D01*
X130757047Y-61662756D01*
X130917988Y-62051302D01*
X131151637Y-62400983D01*
X131449017Y-62698363D01*
X131798698Y-62932012D01*
X131975000Y-63005039D01*
X131975001Y-79074961D01*
X131798698Y-79147988D01*
X131501422Y-79346621D01*
X131533739Y-79268601D01*
X131635000Y-78759525D01*
X131635000Y-78240475D01*
X131533739Y-77731399D01*
X131335107Y-77251859D01*
X131046738Y-76820285D01*
X130679715Y-76453262D01*
X130248141Y-76164893D01*
X129826825Y-75990378D01*
X129907503Y-75965905D01*
X130317490Y-75746763D01*
X130676846Y-75451846D01*
X130971763Y-75092490D01*
X131190905Y-74682503D01*
X131325853Y-74237641D01*
X131360000Y-73890939D01*
X131360000Y-71609061D01*
X131325853Y-71262359D01*
X131190905Y-70817497D01*
X130971763Y-70407510D01*
X130676846Y-70048154D01*
X130317489Y-69753237D01*
X129907502Y-69534095D01*
X129462640Y-69399147D01*
X129000000Y-69353581D01*
X128537359Y-69399147D01*
X128092497Y-69534095D01*
X127682510Y-69753237D01*
X127323154Y-70048154D01*
X127028237Y-70407511D01*
X126809095Y-70817498D01*
X126674147Y-71262360D01*
X126640000Y-71609062D01*
X126640000Y-73890939D01*
X126674147Y-74237641D01*
X126809095Y-74682503D01*
X127028238Y-75092490D01*
X127323155Y-75451846D01*
X127682511Y-75746763D01*
X128092498Y-75965905D01*
X128173175Y-75990378D01*
X127751859Y-76164893D01*
X127320285Y-76453262D01*
X126953262Y-76820285D01*
X126664893Y-77251859D01*
X126466261Y-77731399D01*
X126365000Y-78240475D01*
X126365000Y-78759525D01*
X126466261Y-79268601D01*
X126664893Y-79748141D01*
X126953262Y-80179715D01*
X127320285Y-80546738D01*
X127751859Y-80835107D01*
X128231399Y-81033739D01*
X128740475Y-81135000D01*
X129259525Y-81135000D01*
X129768601Y-81033739D01*
X130248141Y-80835107D01*
X130679715Y-80546738D01*
X130744095Y-80482358D01*
X130675000Y-80829721D01*
X130675000Y-81250279D01*
X130757047Y-81662756D01*
X130917988Y-82051302D01*
X131151637Y-82400983D01*
X131449017Y-82698363D01*
X131798698Y-82932012D01*
X131975000Y-83005039D01*
X131975001Y-99074961D01*
X131798698Y-99147988D01*
X131501422Y-99346621D01*
X131533739Y-99268601D01*
X131635000Y-98759525D01*
X131635000Y-98240475D01*
X131533739Y-97731399D01*
X131335107Y-97251859D01*
X131046738Y-96820285D01*
X130679715Y-96453262D01*
X130248141Y-96164893D01*
X129826825Y-95990378D01*
X129907502Y-95965905D01*
X130317489Y-95746763D01*
X130676846Y-95451846D01*
X130971763Y-95092490D01*
X131190905Y-94682503D01*
X131325853Y-94237641D01*
X131360000Y-93890939D01*
X131360000Y-91609061D01*
X131325853Y-91262359D01*
X131190905Y-90817497D01*
X130971763Y-90407510D01*
X130676846Y-90048154D01*
X130317490Y-89753237D01*
X129907503Y-89534095D01*
X129462641Y-89399147D01*
X129000000Y-89353581D01*
X128537360Y-89399147D01*
X128092498Y-89534095D01*
X127682511Y-89753237D01*
X127323155Y-90048154D01*
X127028238Y-90407510D01*
X126809095Y-90817497D01*
X126674147Y-91262359D01*
X126640000Y-91609061D01*
X126640000Y-93890938D01*
X126674147Y-94237640D01*
X126809095Y-94682502D01*
X127028237Y-95092489D01*
X127323154Y-95451846D01*
X127682510Y-95746763D01*
X128092497Y-95965905D01*
X128173175Y-95990378D01*
X127751859Y-96164893D01*
X127320285Y-96453262D01*
X126953262Y-96820285D01*
X126664893Y-97251859D01*
X126466261Y-97731399D01*
X126365000Y-98240475D01*
X126365000Y-98759525D01*
X126466261Y-99268601D01*
X126664893Y-99748141D01*
X126953262Y-100179715D01*
X127320285Y-100546738D01*
X127751859Y-100835107D01*
X128231399Y-101033739D01*
X128740475Y-101135000D01*
X129259525Y-101135000D01*
X129768601Y-101033739D01*
X130248141Y-100835107D01*
X130679715Y-100546738D01*
X130744095Y-100482358D01*
X130675000Y-100829721D01*
X130675000Y-101250279D01*
X130757047Y-101662756D01*
X130917988Y-102051302D01*
X131151637Y-102400983D01*
X131449017Y-102698363D01*
X131798698Y-102932012D01*
X131975000Y-103005039D01*
X131975001Y-119074961D01*
X131798698Y-119147988D01*
X131501422Y-119346621D01*
X131533739Y-119268601D01*
X131635000Y-118759525D01*
X131635000Y-118240475D01*
X131533739Y-117731399D01*
X131335107Y-117251859D01*
X131046738Y-116820285D01*
X130679715Y-116453262D01*
X130248141Y-116164893D01*
X129826825Y-115990378D01*
X129907503Y-115965905D01*
X130317490Y-115746763D01*
X130676846Y-115451846D01*
X130971763Y-115092490D01*
X131190905Y-114682503D01*
X131325853Y-114237641D01*
X131360000Y-113890939D01*
X131360000Y-111609061D01*
X131325853Y-111262359D01*
X131190905Y-110817497D01*
X130971763Y-110407510D01*
X130676846Y-110048154D01*
X130317489Y-109753237D01*
X129907502Y-109534095D01*
X129462640Y-109399147D01*
X129000000Y-109353581D01*
X128537359Y-109399147D01*
X128092497Y-109534095D01*
X127682510Y-109753237D01*
X127323154Y-110048154D01*
X127028237Y-110407511D01*
X126809095Y-110817498D01*
X126674147Y-111262360D01*
X126640000Y-111609062D01*
X126640000Y-113890939D01*
X126674147Y-114237641D01*
X126809095Y-114682503D01*
X127028238Y-115092490D01*
X127323155Y-115451846D01*
X127682511Y-115746763D01*
X128092498Y-115965905D01*
X128173175Y-115990378D01*
X127751859Y-116164893D01*
X127320285Y-116453262D01*
X126953262Y-116820285D01*
X126664893Y-117251859D01*
X126466261Y-117731399D01*
X126365000Y-118240475D01*
X126365000Y-118759525D01*
X126466261Y-119268601D01*
X126664893Y-119748141D01*
X126953262Y-120179715D01*
X127320285Y-120546738D01*
X127751859Y-120835107D01*
X128231399Y-121033739D01*
X128740475Y-121135000D01*
X129259525Y-121135000D01*
X129768601Y-121033739D01*
X130248141Y-120835107D01*
X130679715Y-120546738D01*
X130744095Y-120482358D01*
X130675000Y-120829721D01*
X130675000Y-121250279D01*
X130757047Y-121662756D01*
X130917988Y-122051302D01*
X131151637Y-122400983D01*
X131449017Y-122698363D01*
X131798698Y-122932012D01*
X132187244Y-123092953D01*
X132599721Y-123175000D01*
X133020279Y-123175000D01*
X133432756Y-123092953D01*
X133821302Y-122932012D01*
X134170983Y-122698363D01*
X134468363Y-122400983D01*
X134702012Y-122051302D01*
X134862953Y-121662756D01*
X134945000Y-121250279D01*
X134945000Y-120829721D01*
X134862953Y-120417244D01*
X134702012Y-120028698D01*
X134468363Y-119679017D01*
X134170983Y-119381637D01*
X133821302Y-119147988D01*
X133645000Y-119074961D01*
X133645000Y-103369721D01*
X144325000Y-103369721D01*
X144325000Y-103790279D01*
X144407047Y-104202756D01*
X144567988Y-104591302D01*
X144801637Y-104940983D01*
X145099017Y-105238363D01*
X145448698Y-105472012D01*
X145837244Y-105632953D01*
X146249721Y-105715000D01*
X146670279Y-105715000D01*
X147082756Y-105632953D01*
X147471302Y-105472012D01*
X147820983Y-105238363D01*
X148118363Y-104940983D01*
X148352012Y-104591302D01*
X148512953Y-104202756D01*
X148595000Y-103790279D01*
X148595000Y-103369721D01*
X148512953Y-102957244D01*
X148352012Y-102568698D01*
X148118363Y-102219017D01*
X147820983Y-101921637D01*
X147471302Y-101687988D01*
X147082756Y-101527047D01*
X146670279Y-101445000D01*
X146249721Y-101445000D01*
X145837244Y-101527047D01*
X145448698Y-101687988D01*
X145099017Y-101921637D01*
X144801637Y-102219017D01*
X144567988Y-102568698D01*
X144407047Y-102957244D01*
X144325000Y-103369721D01*
X133645000Y-103369721D01*
X133645000Y-103005039D01*
X133821302Y-102932012D01*
X134170983Y-102698363D01*
X134468363Y-102400983D01*
X134702012Y-102051302D01*
X134862953Y-101662756D01*
X134945000Y-101250279D01*
X134945000Y-100829721D01*
X134862953Y-100417244D01*
X134702012Y-100028698D01*
X134468363Y-99679017D01*
X134170983Y-99381637D01*
X133821302Y-99147988D01*
X133645000Y-99074961D01*
X133645000Y-83369721D01*
X144325000Y-83369721D01*
X144325000Y-83790279D01*
X144407047Y-84202756D01*
X144567988Y-84591302D01*
X144801637Y-84940983D01*
X145099017Y-85238363D01*
X145448698Y-85472012D01*
X145837244Y-85632953D01*
X146249721Y-85715000D01*
X146670279Y-85715000D01*
X147082756Y-85632953D01*
X147471302Y-85472012D01*
X147820983Y-85238363D01*
X148118363Y-84940983D01*
X148352012Y-84591302D01*
X148512953Y-84202756D01*
X148595000Y-83790279D01*
X148595000Y-83369721D01*
X148512953Y-82957244D01*
X148352012Y-82568698D01*
X148118363Y-82219017D01*
X147820983Y-81921637D01*
X147471302Y-81687988D01*
X147082756Y-81527047D01*
X146670279Y-81445000D01*
X146249721Y-81445000D01*
X145837244Y-81527047D01*
X145448698Y-81687988D01*
X145099017Y-81921637D01*
X144801637Y-82219017D01*
X144567988Y-82568698D01*
X144407047Y-82957244D01*
X144325000Y-83369721D01*
X133645000Y-83369721D01*
X133645000Y-83005039D01*
X133821302Y-82932012D01*
X134170983Y-82698363D01*
X134468363Y-82400983D01*
X134702012Y-82051302D01*
X134862953Y-81662756D01*
X134945000Y-81250279D01*
X134945000Y-80829721D01*
X134862953Y-80417244D01*
X134702012Y-80028698D01*
X134468363Y-79679017D01*
X134170983Y-79381637D01*
X133821302Y-79147988D01*
X133645000Y-79074961D01*
X133645000Y-63369721D01*
X144325000Y-63369721D01*
X144325000Y-63790279D01*
X144407047Y-64202756D01*
X144567988Y-64591302D01*
X144801637Y-64940983D01*
X145099017Y-65238363D01*
X145448698Y-65472012D01*
X145837244Y-65632953D01*
X146249721Y-65715000D01*
X146670279Y-65715000D01*
X147082756Y-65632953D01*
X147471302Y-65472012D01*
X147820983Y-65238363D01*
X148118363Y-64940983D01*
X148352012Y-64591302D01*
X148512953Y-64202756D01*
X148595000Y-63790279D01*
X148595000Y-63369721D01*
X148512953Y-62957244D01*
X148352012Y-62568698D01*
X148118363Y-62219017D01*
X147820983Y-61921637D01*
X147471302Y-61687988D01*
X147082756Y-61527047D01*
X146670279Y-61445000D01*
X146249721Y-61445000D01*
X145837244Y-61527047D01*
X145448698Y-61687988D01*
X145099017Y-61921637D01*
X144801637Y-62219017D01*
X144567988Y-62568698D01*
X144407047Y-62957244D01*
X144325000Y-63369721D01*
X133645000Y-63369721D01*
X133645000Y-63005039D01*
X133821302Y-62932012D01*
X134170983Y-62698363D01*
X134468363Y-62400983D01*
X134702012Y-62051302D01*
X134862953Y-61662756D01*
X134945000Y-61250279D01*
X134945000Y-60829721D01*
X134862953Y-60417244D01*
X134702012Y-60028698D01*
X134468363Y-59679017D01*
X134170983Y-59381637D01*
X133821302Y-59147988D01*
X133595000Y-59054251D01*
X133595000Y-57515157D01*
X142825158Y-48285000D01*
X170424843Y-48285000D01*
X175667653Y-53527810D01*
X175692236Y-53557764D01*
X175811767Y-53655862D01*
X175948140Y-53728754D01*
X176096113Y-53773642D01*
X176171026Y-53781020D01*
X176211439Y-53785000D01*
X176211444Y-53785000D01*
X176250000Y-53788797D01*
X176288556Y-53785000D01*
X178821289Y-53785000D01*
X178840226Y-53803937D01*
X178987500Y-53902342D01*
X177674063Y-55215780D01*
X170870581Y-55215780D01*
X170971763Y-55092490D01*
X171190905Y-54682503D01*
X171325853Y-54237641D01*
X171360000Y-53890939D01*
X171360000Y-51609061D01*
X171325853Y-51262359D01*
X171190905Y-50817497D01*
X170971763Y-50407510D01*
X170676846Y-50048154D01*
X170317490Y-49753237D01*
X169907503Y-49534095D01*
X169462641Y-49399147D01*
X169000000Y-49353581D01*
X168537360Y-49399147D01*
X168092498Y-49534095D01*
X167682511Y-49753237D01*
X167323155Y-50048154D01*
X167028238Y-50407510D01*
X166809095Y-50817497D01*
X166674147Y-51262359D01*
X166640000Y-51609061D01*
X166640000Y-53890938D01*
X166674147Y-54237640D01*
X166809095Y-54682502D01*
X167028237Y-55092489D01*
X167129419Y-55215780D01*
X157887772Y-55215780D01*
X157849219Y-55211983D01*
X157810666Y-55215780D01*
X157810659Y-55215780D01*
X157709710Y-55225723D01*
X157695332Y-55227139D01*
X157660892Y-55237586D01*
X157547360Y-55272026D01*
X157410987Y-55344918D01*
X157350779Y-55394330D01*
X157321407Y-55418435D01*
X157321404Y-55418438D01*
X157291456Y-55443016D01*
X157266878Y-55472964D01*
X153659058Y-59080784D01*
X153432756Y-58987047D01*
X153020279Y-58905000D01*
X152599721Y-58905000D01*
X152187244Y-58987047D01*
X151798698Y-59147988D01*
X151501422Y-59346621D01*
X151533739Y-59268601D01*
X151635000Y-58759525D01*
X151635000Y-58240475D01*
X151533739Y-57731399D01*
X151335107Y-57251859D01*
X151046738Y-56820285D01*
X150679715Y-56453262D01*
X150248141Y-56164893D01*
X149826825Y-55990378D01*
X149907502Y-55965905D01*
X150317489Y-55746763D01*
X150676846Y-55451846D01*
X150971763Y-55092490D01*
X151190905Y-54682503D01*
X151325853Y-54237641D01*
X151360000Y-53890939D01*
X151360000Y-51609061D01*
X151325853Y-51262359D01*
X151190905Y-50817497D01*
X150971763Y-50407510D01*
X150676846Y-50048154D01*
X150317490Y-49753237D01*
X149907503Y-49534095D01*
X149462641Y-49399147D01*
X149000000Y-49353581D01*
X148537360Y-49399147D01*
X148092498Y-49534095D01*
X147682511Y-49753237D01*
X147323155Y-50048154D01*
X147028238Y-50407510D01*
X146809095Y-50817497D01*
X146674147Y-51262359D01*
X146640000Y-51609061D01*
X146640000Y-53890938D01*
X146674147Y-54237640D01*
X146809095Y-54682502D01*
X147028237Y-55092489D01*
X147323154Y-55451846D01*
X147682510Y-55746763D01*
X148092497Y-55965905D01*
X148173175Y-55990378D01*
X147751859Y-56164893D01*
X147320285Y-56453262D01*
X146953262Y-56820285D01*
X146664893Y-57251859D01*
X146466261Y-57731399D01*
X146365000Y-58240475D01*
X146365000Y-58759525D01*
X146466261Y-59268601D01*
X146664893Y-59748141D01*
X146953262Y-60179715D01*
X147320285Y-60546738D01*
X147751859Y-60835107D01*
X148231399Y-61033739D01*
X148740475Y-61135000D01*
X149259525Y-61135000D01*
X149768601Y-61033739D01*
X150248141Y-60835107D01*
X150679715Y-60546738D01*
X150744095Y-60482358D01*
X150675000Y-60829721D01*
X150675000Y-61250279D01*
X150757047Y-61662756D01*
X150917988Y-62051302D01*
X151151637Y-62400983D01*
X151449017Y-62698363D01*
X151798698Y-62932012D01*
X151975000Y-63005039D01*
X151975001Y-79074961D01*
X151798698Y-79147988D01*
X151501422Y-79346621D01*
X151533739Y-79268601D01*
X151635000Y-78759525D01*
X151635000Y-78240475D01*
X151533739Y-77731399D01*
X151335107Y-77251859D01*
X151046738Y-76820285D01*
X150679715Y-76453262D01*
X150248141Y-76164893D01*
X149826825Y-75990378D01*
X149907503Y-75965905D01*
X150317490Y-75746763D01*
X150676846Y-75451846D01*
X150971763Y-75092490D01*
X151190905Y-74682503D01*
X151325853Y-74237641D01*
X151360000Y-73890939D01*
X151360000Y-71609061D01*
X151325853Y-71262359D01*
X151190905Y-70817497D01*
X150971763Y-70407510D01*
X150676846Y-70048154D01*
X150317489Y-69753237D01*
X149907502Y-69534095D01*
X149462640Y-69399147D01*
X149000000Y-69353581D01*
X148537359Y-69399147D01*
X148092497Y-69534095D01*
X147682510Y-69753237D01*
X147323154Y-70048154D01*
X147028237Y-70407511D01*
X146809095Y-70817498D01*
X146674147Y-71262360D01*
X146640000Y-71609062D01*
X146640000Y-73890939D01*
X146674147Y-74237641D01*
X146809095Y-74682503D01*
X147028238Y-75092490D01*
X147323155Y-75451846D01*
X147682511Y-75746763D01*
X148092498Y-75965905D01*
X148173175Y-75990378D01*
X147751859Y-76164893D01*
X147320285Y-76453262D01*
X146953262Y-76820285D01*
X146664893Y-77251859D01*
X146466261Y-77731399D01*
X146365000Y-78240475D01*
X146365000Y-78759525D01*
X146466261Y-79268601D01*
X146664893Y-79748141D01*
X146953262Y-80179715D01*
X147320285Y-80546738D01*
X147751859Y-80835107D01*
X148231399Y-81033739D01*
X148740475Y-81135000D01*
X149259525Y-81135000D01*
X149768601Y-81033739D01*
X150248141Y-80835107D01*
X150679715Y-80546738D01*
X150744095Y-80482358D01*
X150675000Y-80829721D01*
X150675000Y-81250279D01*
X150757047Y-81662756D01*
X150917988Y-82051302D01*
X151151637Y-82400983D01*
X151449017Y-82698363D01*
X151798698Y-82932012D01*
X151975001Y-83005039D01*
X151975000Y-99074961D01*
X151798698Y-99147988D01*
X151501422Y-99346621D01*
X151533739Y-99268601D01*
X151635000Y-98759525D01*
X151635000Y-98240475D01*
X151533739Y-97731399D01*
X151335107Y-97251859D01*
X151046738Y-96820285D01*
X150679715Y-96453262D01*
X150248141Y-96164893D01*
X149826825Y-95990378D01*
X149907502Y-95965905D01*
X150317489Y-95746763D01*
X150676846Y-95451846D01*
X150971763Y-95092490D01*
X151190905Y-94682503D01*
X151325853Y-94237641D01*
X151360000Y-93890939D01*
X151360000Y-91609061D01*
X151325853Y-91262359D01*
X151190905Y-90817497D01*
X150971763Y-90407510D01*
X150676846Y-90048154D01*
X150317490Y-89753237D01*
X149907503Y-89534095D01*
X149462641Y-89399147D01*
X149000000Y-89353581D01*
X148537360Y-89399147D01*
X148092498Y-89534095D01*
X147682511Y-89753237D01*
X147323155Y-90048154D01*
X147028238Y-90407510D01*
X146809095Y-90817497D01*
X146674147Y-91262359D01*
X146640000Y-91609061D01*
X146640000Y-93890938D01*
X146674147Y-94237640D01*
X146809095Y-94682502D01*
X147028237Y-95092489D01*
X147323154Y-95451846D01*
X147682510Y-95746763D01*
X148092497Y-95965905D01*
X148173175Y-95990378D01*
X147751859Y-96164893D01*
X147320285Y-96453262D01*
X146953262Y-96820285D01*
X146664893Y-97251859D01*
X146466261Y-97731399D01*
X146365000Y-98240475D01*
X146365000Y-98759525D01*
X146466261Y-99268601D01*
X146664893Y-99748141D01*
X146953262Y-100179715D01*
X147320285Y-100546738D01*
X147751859Y-100835107D01*
X148231399Y-101033739D01*
X148740475Y-101135000D01*
X149259525Y-101135000D01*
X149768601Y-101033739D01*
X150248141Y-100835107D01*
X150679715Y-100546738D01*
X150744095Y-100482358D01*
X150675000Y-100829721D01*
X150675000Y-101250279D01*
X150757047Y-101662756D01*
X150917988Y-102051302D01*
X151151637Y-102400983D01*
X151449017Y-102698363D01*
X151798698Y-102932012D01*
X151975000Y-103005039D01*
X151975001Y-119074961D01*
X151798698Y-119147988D01*
X151501422Y-119346621D01*
X151533739Y-119268601D01*
X151635000Y-118759525D01*
X151635000Y-118240475D01*
X151533739Y-117731399D01*
X151335107Y-117251859D01*
X151046738Y-116820285D01*
X150679715Y-116453262D01*
X150248141Y-116164893D01*
X149826825Y-115990378D01*
X149907503Y-115965905D01*
X150317490Y-115746763D01*
X150676846Y-115451846D01*
X150971763Y-115092490D01*
X151190905Y-114682503D01*
X151325853Y-114237641D01*
X151360000Y-113890939D01*
X151360000Y-111609061D01*
X151325853Y-111262359D01*
X151190905Y-110817497D01*
X150971763Y-110407510D01*
X150676846Y-110048154D01*
X150317489Y-109753237D01*
X149907502Y-109534095D01*
X149462640Y-109399147D01*
X149000000Y-109353581D01*
X148537359Y-109399147D01*
X148092497Y-109534095D01*
X147682510Y-109753237D01*
X147323154Y-110048154D01*
X147028237Y-110407511D01*
X146809095Y-110817498D01*
X146674147Y-111262360D01*
X146640000Y-111609062D01*
X146640000Y-113890939D01*
X146674147Y-114237641D01*
X146809095Y-114682503D01*
X147028238Y-115092490D01*
X147323155Y-115451846D01*
X147682511Y-115746763D01*
X148092498Y-115965905D01*
X148173175Y-115990378D01*
X147751859Y-116164893D01*
X147320285Y-116453262D01*
X146953262Y-116820285D01*
X146664893Y-117251859D01*
X146466261Y-117731399D01*
X146365000Y-118240475D01*
X146365000Y-118759525D01*
X146466261Y-119268601D01*
X146664893Y-119748141D01*
X146953262Y-120179715D01*
X147320285Y-120546738D01*
X147751859Y-120835107D01*
X148231399Y-121033739D01*
X148740475Y-121135000D01*
X149259525Y-121135000D01*
X149768601Y-121033739D01*
X150248141Y-120835107D01*
X150679715Y-120546738D01*
X150744095Y-120482358D01*
X150675000Y-120829721D01*
X150675000Y-121250279D01*
X150757047Y-121662756D01*
X150917988Y-122051302D01*
X151151637Y-122400983D01*
X151449017Y-122698363D01*
X151798698Y-122932012D01*
X152187244Y-123092953D01*
X152599721Y-123175000D01*
X153020279Y-123175000D01*
X153432756Y-123092953D01*
X153821302Y-122932012D01*
X154170983Y-122698363D01*
X154468363Y-122400983D01*
X154702012Y-122051302D01*
X154862953Y-121662756D01*
X154945000Y-121250279D01*
X154945000Y-120829721D01*
X154862953Y-120417244D01*
X154702012Y-120028698D01*
X154468363Y-119679017D01*
X154170983Y-119381637D01*
X153821302Y-119147988D01*
X153645000Y-119074961D01*
X153645000Y-103369721D01*
X164325000Y-103369721D01*
X164325000Y-103790279D01*
X164407047Y-104202756D01*
X164567988Y-104591302D01*
X164801637Y-104940983D01*
X165099017Y-105238363D01*
X165448698Y-105472012D01*
X165837244Y-105632953D01*
X166249721Y-105715000D01*
X166670279Y-105715000D01*
X167082756Y-105632953D01*
X167471302Y-105472012D01*
X167820983Y-105238363D01*
X168118363Y-104940983D01*
X168352012Y-104591302D01*
X168512953Y-104202756D01*
X168595000Y-103790279D01*
X168595000Y-103369721D01*
X168512953Y-102957244D01*
X168352012Y-102568698D01*
X168118363Y-102219017D01*
X167820983Y-101921637D01*
X167471302Y-101687988D01*
X167082756Y-101527047D01*
X166670279Y-101445000D01*
X166249721Y-101445000D01*
X165837244Y-101527047D01*
X165448698Y-101687988D01*
X165099017Y-101921637D01*
X164801637Y-102219017D01*
X164567988Y-102568698D01*
X164407047Y-102957244D01*
X164325000Y-103369721D01*
X153645000Y-103369721D01*
X153645000Y-103005039D01*
X153821302Y-102932012D01*
X154170983Y-102698363D01*
X154468363Y-102400983D01*
X154702012Y-102051302D01*
X154862953Y-101662756D01*
X154945000Y-101250279D01*
X154945000Y-100829721D01*
X154862953Y-100417244D01*
X154702012Y-100028698D01*
X154468363Y-99679017D01*
X154170983Y-99381637D01*
X153821302Y-99147988D01*
X153645000Y-99074961D01*
X153645000Y-83369721D01*
X164325000Y-83369721D01*
X164325000Y-83790279D01*
X164407047Y-84202756D01*
X164567988Y-84591302D01*
X164801637Y-84940983D01*
X165099017Y-85238363D01*
X165448698Y-85472012D01*
X165837244Y-85632953D01*
X166249721Y-85715000D01*
X166670279Y-85715000D01*
X167082756Y-85632953D01*
X167471302Y-85472012D01*
X167820983Y-85238363D01*
X168118363Y-84940983D01*
X168352012Y-84591302D01*
X168512953Y-84202756D01*
X168595000Y-83790279D01*
X168595000Y-83369721D01*
X168512953Y-82957244D01*
X168352012Y-82568698D01*
X168118363Y-82219017D01*
X167820983Y-81921637D01*
X167471302Y-81687988D01*
X167082756Y-81527047D01*
X166670279Y-81445000D01*
X166249721Y-81445000D01*
X165837244Y-81527047D01*
X165448698Y-81687988D01*
X165099017Y-81921637D01*
X164801637Y-82219017D01*
X164567988Y-82568698D01*
X164407047Y-82957244D01*
X164325000Y-83369721D01*
X153645000Y-83369721D01*
X153645000Y-83005039D01*
X153821302Y-82932012D01*
X154170983Y-82698363D01*
X154468363Y-82400983D01*
X154702012Y-82051302D01*
X154862953Y-81662756D01*
X154945000Y-81250279D01*
X154945000Y-80829721D01*
X154862953Y-80417244D01*
X154702012Y-80028698D01*
X154468363Y-79679017D01*
X154170983Y-79381637D01*
X153821302Y-79147988D01*
X153645000Y-79074961D01*
X153645000Y-63369721D01*
X164325000Y-63369721D01*
X164325000Y-63790279D01*
X164407047Y-64202756D01*
X164567988Y-64591302D01*
X164801637Y-64940983D01*
X165099017Y-65238363D01*
X165448698Y-65472012D01*
X165837244Y-65632953D01*
X166249721Y-65715000D01*
X166670279Y-65715000D01*
X167082756Y-65632953D01*
X167471302Y-65472012D01*
X167820983Y-65238363D01*
X168118363Y-64940983D01*
X168352012Y-64591302D01*
X168512953Y-64202756D01*
X168595000Y-63790279D01*
X168595000Y-63369721D01*
X168512953Y-62957244D01*
X168352012Y-62568698D01*
X168118363Y-62219017D01*
X167820983Y-61921637D01*
X167471302Y-61687988D01*
X167082756Y-61527047D01*
X166670279Y-61445000D01*
X166249721Y-61445000D01*
X165837244Y-61527047D01*
X165448698Y-61687988D01*
X165099017Y-61921637D01*
X164801637Y-62219017D01*
X164567988Y-62568698D01*
X164407047Y-62957244D01*
X164325000Y-63369721D01*
X153645000Y-63369721D01*
X153645000Y-63005039D01*
X153821302Y-62932012D01*
X154170983Y-62698363D01*
X154468363Y-62400983D01*
X154702012Y-62051302D01*
X154862953Y-61662756D01*
X154945000Y-61250279D01*
X154945000Y-60829721D01*
X154862953Y-60417244D01*
X154769216Y-60190942D01*
X158174378Y-56785780D01*
X166987767Y-56785780D01*
X166953262Y-56820285D01*
X166664893Y-57251859D01*
X166466261Y-57731399D01*
X166365000Y-58240475D01*
X166365000Y-58759525D01*
X166466261Y-59268601D01*
X166664893Y-59748141D01*
X166953262Y-60179715D01*
X167320285Y-60546738D01*
X167751859Y-60835107D01*
X168231399Y-61033739D01*
X168740475Y-61135000D01*
X169259525Y-61135000D01*
X169768601Y-61033739D01*
X170248141Y-60835107D01*
X170679715Y-60546738D01*
X170744095Y-60482358D01*
X170675000Y-60829721D01*
X170675000Y-61250279D01*
X170757047Y-61662756D01*
X170917988Y-62051302D01*
X171151637Y-62400983D01*
X171449017Y-62698363D01*
X171798698Y-62932012D01*
X171975000Y-63005039D01*
X171975001Y-79074961D01*
X171798698Y-79147988D01*
X171501422Y-79346621D01*
X171533739Y-79268601D01*
X171635000Y-78759525D01*
X171635000Y-78240475D01*
X171533739Y-77731399D01*
X171335107Y-77251859D01*
X171046738Y-76820285D01*
X170679715Y-76453262D01*
X170248141Y-76164893D01*
X169826825Y-75990378D01*
X169907503Y-75965905D01*
X170317490Y-75746763D01*
X170676846Y-75451846D01*
X170971763Y-75092490D01*
X171190905Y-74682503D01*
X171325853Y-74237641D01*
X171360000Y-73890939D01*
X171360000Y-71609061D01*
X171325853Y-71262359D01*
X171190905Y-70817497D01*
X170971763Y-70407510D01*
X170676846Y-70048154D01*
X170317489Y-69753237D01*
X169907502Y-69534095D01*
X169462640Y-69399147D01*
X169000000Y-69353581D01*
X168537359Y-69399147D01*
X168092497Y-69534095D01*
X167682510Y-69753237D01*
X167323154Y-70048154D01*
X167028237Y-70407511D01*
X166809095Y-70817498D01*
X166674147Y-71262360D01*
X166640000Y-71609062D01*
X166640000Y-73890939D01*
X166674147Y-74237641D01*
X166809095Y-74682503D01*
X167028238Y-75092490D01*
X167323155Y-75451846D01*
X167682511Y-75746763D01*
X168092498Y-75965905D01*
X168173175Y-75990378D01*
X167751859Y-76164893D01*
X167320285Y-76453262D01*
X166953262Y-76820285D01*
X166664893Y-77251859D01*
X166466261Y-77731399D01*
X166365000Y-78240475D01*
X166365000Y-78759525D01*
X166466261Y-79268601D01*
X166664893Y-79748141D01*
X166953262Y-80179715D01*
X167320285Y-80546738D01*
X167751859Y-80835107D01*
X168231399Y-81033739D01*
X168740475Y-81135000D01*
X169259525Y-81135000D01*
X169768601Y-81033739D01*
X170248141Y-80835107D01*
X170679715Y-80546738D01*
X170744095Y-80482358D01*
X170675000Y-80829721D01*
X170675000Y-81250279D01*
X170757047Y-81662756D01*
X170917988Y-82051302D01*
X171151637Y-82400983D01*
X171449017Y-82698363D01*
X171798698Y-82932012D01*
X171975000Y-83005039D01*
X171975001Y-99074961D01*
X171798698Y-99147988D01*
X171501422Y-99346621D01*
X171533739Y-99268601D01*
X171635000Y-98759525D01*
X171635000Y-98240475D01*
X171533739Y-97731399D01*
X171335107Y-97251859D01*
X171046738Y-96820285D01*
X170679715Y-96453262D01*
X170248141Y-96164893D01*
X169826825Y-95990378D01*
X169907502Y-95965905D01*
X170317489Y-95746763D01*
X170676846Y-95451846D01*
X170971763Y-95092490D01*
X171190905Y-94682503D01*
X171325853Y-94237641D01*
X171360000Y-93890939D01*
X171360000Y-91609061D01*
X171325853Y-91262359D01*
X171190905Y-90817497D01*
X170971763Y-90407510D01*
X170676846Y-90048154D01*
X170317490Y-89753237D01*
X169907503Y-89534095D01*
X169462641Y-89399147D01*
X169000000Y-89353581D01*
X168537360Y-89399147D01*
X168092498Y-89534095D01*
X167682511Y-89753237D01*
X167323155Y-90048154D01*
X167028238Y-90407510D01*
X166809095Y-90817497D01*
X166674147Y-91262359D01*
X166640000Y-91609061D01*
X166640000Y-93890938D01*
X166674147Y-94237640D01*
X166809095Y-94682502D01*
X167028237Y-95092489D01*
X167323154Y-95451846D01*
X167682510Y-95746763D01*
X168092497Y-95965905D01*
X168173175Y-95990378D01*
X167751859Y-96164893D01*
X167320285Y-96453262D01*
X166953262Y-96820285D01*
X166664893Y-97251859D01*
X166466261Y-97731399D01*
X166365000Y-98240475D01*
X166365000Y-98759525D01*
X166466261Y-99268601D01*
X166664893Y-99748141D01*
X166953262Y-100179715D01*
X167320285Y-100546738D01*
X167751859Y-100835107D01*
X168231399Y-101033739D01*
X168740475Y-101135000D01*
X169259525Y-101135000D01*
X169768601Y-101033739D01*
X170248141Y-100835107D01*
X170679715Y-100546738D01*
X170744095Y-100482358D01*
X170675000Y-100829721D01*
X170675000Y-101250279D01*
X170757047Y-101662756D01*
X170917988Y-102051302D01*
X171151637Y-102400983D01*
X171449017Y-102698363D01*
X171798698Y-102932012D01*
X171975000Y-103005039D01*
X171975001Y-119074961D01*
X171798698Y-119147988D01*
X171501422Y-119346621D01*
X171533739Y-119268601D01*
X171635000Y-118759525D01*
X171635000Y-118240475D01*
X171533739Y-117731399D01*
X171335107Y-117251859D01*
X171046738Y-116820285D01*
X170679715Y-116453262D01*
X170248141Y-116164893D01*
X169826825Y-115990378D01*
X169907503Y-115965905D01*
X170317490Y-115746763D01*
X170676846Y-115451846D01*
X170971763Y-115092490D01*
X171190905Y-114682503D01*
X171325853Y-114237641D01*
X171360000Y-113890939D01*
X171360000Y-111609061D01*
X171325853Y-111262359D01*
X171190905Y-110817497D01*
X170971763Y-110407510D01*
X170676846Y-110048154D01*
X170317489Y-109753237D01*
X169907502Y-109534095D01*
X169462640Y-109399147D01*
X169000000Y-109353581D01*
X168537359Y-109399147D01*
X168092497Y-109534095D01*
X167682510Y-109753237D01*
X167323154Y-110048154D01*
X167028237Y-110407511D01*
X166809095Y-110817498D01*
X166674147Y-111262360D01*
X166640000Y-111609062D01*
X166640000Y-113890939D01*
X166674147Y-114237641D01*
X166809095Y-114682503D01*
X167028238Y-115092490D01*
X167323155Y-115451846D01*
X167682511Y-115746763D01*
X168092498Y-115965905D01*
X168173175Y-115990378D01*
X167751859Y-116164893D01*
X167320285Y-116453262D01*
X166953262Y-116820285D01*
X166664893Y-117251859D01*
X166466261Y-117731399D01*
X166365000Y-118240475D01*
X166365000Y-118759525D01*
X166466261Y-119268601D01*
X166664893Y-119748141D01*
X166953262Y-120179715D01*
X167320285Y-120546738D01*
X167751859Y-120835107D01*
X168231399Y-121033739D01*
X168740475Y-121135000D01*
X169259525Y-121135000D01*
X169768601Y-121033739D01*
X170248141Y-120835107D01*
X170679715Y-120546738D01*
X170744095Y-120482358D01*
X170675000Y-120829721D01*
X170675000Y-121250279D01*
X170757047Y-121662756D01*
X170917988Y-122051302D01*
X171151637Y-122400983D01*
X171449017Y-122698363D01*
X171798698Y-122932012D01*
X172187244Y-123092953D01*
X172599721Y-123175000D01*
X173020279Y-123175000D01*
X173432756Y-123092953D01*
X173821302Y-122932012D01*
X174170983Y-122698363D01*
X174468363Y-122400983D01*
X174702012Y-122051302D01*
X174862953Y-121662756D01*
X174945000Y-121250279D01*
X174945000Y-120829721D01*
X174862953Y-120417244D01*
X174702012Y-120028698D01*
X174468363Y-119679017D01*
X174170983Y-119381637D01*
X173821302Y-119147988D01*
X173645000Y-119074961D01*
X173645000Y-108289721D01*
X176865000Y-108289721D01*
X176865000Y-108710279D01*
X176947047Y-109122756D01*
X177107988Y-109511302D01*
X177341637Y-109860983D01*
X177639017Y-110158363D01*
X177988698Y-110392012D01*
X178377244Y-110552953D01*
X178789721Y-110635000D01*
X179210279Y-110635000D01*
X179622756Y-110552953D01*
X180011302Y-110392012D01*
X180360983Y-110158363D01*
X180658363Y-109860983D01*
X180892012Y-109511302D01*
X181052953Y-109122756D01*
X181135000Y-108710279D01*
X181135000Y-108289721D01*
X181052953Y-107877244D01*
X180892012Y-107488698D01*
X180658363Y-107139017D01*
X180360983Y-106841637D01*
X180011302Y-106607988D01*
X179622756Y-106447047D01*
X179210279Y-106365000D01*
X178789721Y-106365000D01*
X178377244Y-106447047D01*
X177988698Y-106607988D01*
X177639017Y-106841637D01*
X177341637Y-107139017D01*
X177107988Y-107488698D01*
X176947047Y-107877244D01*
X176865000Y-108289721D01*
X173645000Y-108289721D01*
X173645000Y-103005039D01*
X173821302Y-102932012D01*
X174170983Y-102698363D01*
X174468363Y-102400983D01*
X174702012Y-102051302D01*
X174862953Y-101662756D01*
X174945000Y-101250279D01*
X174945000Y-100829721D01*
X174862953Y-100417244D01*
X174702012Y-100028698D01*
X174468363Y-99679017D01*
X174170983Y-99381637D01*
X173821302Y-99147988D01*
X173645000Y-99074961D01*
X173645000Y-83005039D01*
X173821302Y-82932012D01*
X174170983Y-82698363D01*
X174468363Y-82400983D01*
X174702012Y-82051302D01*
X174862953Y-81662756D01*
X174945000Y-81250279D01*
X174945000Y-80829721D01*
X174862953Y-80417244D01*
X174702012Y-80028698D01*
X174468363Y-79679017D01*
X174170983Y-79381637D01*
X173821302Y-79147988D01*
X173645000Y-79074961D01*
X173645000Y-63005039D01*
X173821302Y-62932012D01*
X174170983Y-62698363D01*
X174468363Y-62400983D01*
X174702012Y-62051302D01*
X174862953Y-61662756D01*
X174904060Y-61456097D01*
X182215001Y-54145157D01*
X182215002Y-123737489D01*
X182101939Y-123715000D01*
X181898061Y-123715000D01*
X181698102Y-123754774D01*
X181509744Y-123832795D01*
X181340226Y-123946063D01*
X181196063Y-124090226D01*
X181082795Y-124259744D01*
X181004774Y-124448102D01*
X180965000Y-124648061D01*
X180965000Y-124851939D01*
X181004774Y-125051898D01*
X181082795Y-125240256D01*
X181196063Y-125409774D01*
X181340226Y-125553937D01*
X181509744Y-125667205D01*
X181698102Y-125745226D01*
X181898061Y-125785000D01*
X182101939Y-125785000D01*
X182301898Y-125745226D01*
X182490256Y-125667205D01*
X182659774Y-125553937D01*
X182678711Y-125535000D01*
X182711447Y-125535000D01*
X182750000Y-125538797D01*
X182788553Y-125535000D01*
X182788561Y-125535000D01*
X182903887Y-125523641D01*
X183051860Y-125478754D01*
X183188233Y-125405862D01*
X183307764Y-125307764D01*
X183332348Y-125277809D01*
X183527807Y-125082350D01*
X183557765Y-125057763D01*
X183655863Y-124938232D01*
X183728755Y-124801859D01*
X183762009Y-124692236D01*
X183773643Y-124653886D01*
X183781021Y-124578973D01*
X183785001Y-124538560D01*
X183785001Y-124538555D01*
X183788798Y-124499999D01*
X183785001Y-124461443D01*
X183785001Y-123369721D01*
X184325000Y-123369721D01*
X184325000Y-123790279D01*
X184407047Y-124202756D01*
X184567988Y-124591302D01*
X184801637Y-124940983D01*
X185099017Y-125238363D01*
X185448698Y-125472012D01*
X185837244Y-125632953D01*
X186249721Y-125715000D01*
X186670279Y-125715000D01*
X187082756Y-125632953D01*
X187471302Y-125472012D01*
X187820983Y-125238363D01*
X188118363Y-124940983D01*
X188352012Y-124591302D01*
X188512953Y-124202756D01*
X188595000Y-123790279D01*
X188595000Y-123369721D01*
X188512953Y-122957244D01*
X188352012Y-122568698D01*
X188118363Y-122219017D01*
X187820983Y-121921637D01*
X187471302Y-121687988D01*
X187082756Y-121527047D01*
X186670279Y-121445000D01*
X186249721Y-121445000D01*
X185837244Y-121527047D01*
X185448698Y-121687988D01*
X185099017Y-121921637D01*
X184801637Y-122219017D01*
X184567988Y-122568698D01*
X184407047Y-122957244D01*
X184325000Y-123369721D01*
X183785001Y-123369721D01*
X183785001Y-103369721D01*
X184325000Y-103369721D01*
X184325000Y-103790279D01*
X184407047Y-104202756D01*
X184567988Y-104591302D01*
X184801637Y-104940983D01*
X185099017Y-105238363D01*
X185448698Y-105472012D01*
X185837244Y-105632953D01*
X186249721Y-105715000D01*
X186670279Y-105715000D01*
X187082756Y-105632953D01*
X187471302Y-105472012D01*
X187820983Y-105238363D01*
X188118363Y-104940983D01*
X188352012Y-104591302D01*
X188512953Y-104202756D01*
X188595000Y-103790279D01*
X188595000Y-103369721D01*
X188512953Y-102957244D01*
X188352012Y-102568698D01*
X188118363Y-102219017D01*
X187820983Y-101921637D01*
X187471302Y-101687988D01*
X187082756Y-101527047D01*
X186670279Y-101445000D01*
X186249721Y-101445000D01*
X185837244Y-101527047D01*
X185448698Y-101687988D01*
X185099017Y-101921637D01*
X184801637Y-102219017D01*
X184567988Y-102568698D01*
X184407047Y-102957244D01*
X184325000Y-103369721D01*
X183785001Y-103369721D01*
X183785001Y-83369721D01*
X184325000Y-83369721D01*
X184325000Y-83790279D01*
X184407047Y-84202756D01*
X184567988Y-84591302D01*
X184801637Y-84940983D01*
X185099017Y-85238363D01*
X185448698Y-85472012D01*
X185837244Y-85632953D01*
X186249721Y-85715000D01*
X186670279Y-85715000D01*
X187082756Y-85632953D01*
X187471302Y-85472012D01*
X187820983Y-85238363D01*
X188118363Y-84940983D01*
X188352012Y-84591302D01*
X188512953Y-84202756D01*
X188595000Y-83790279D01*
X188595000Y-83369721D01*
X188512953Y-82957244D01*
X188352012Y-82568698D01*
X188118363Y-82219017D01*
X187820983Y-81921637D01*
X187471302Y-81687988D01*
X187082756Y-81527047D01*
X186670279Y-81445000D01*
X186249721Y-81445000D01*
X185837244Y-81527047D01*
X185448698Y-81687988D01*
X185099017Y-81921637D01*
X184801637Y-82219017D01*
X184567988Y-82568698D01*
X184407047Y-82957244D01*
X184325000Y-83369721D01*
X183785001Y-83369721D01*
X183785001Y-63369721D01*
X184325000Y-63369721D01*
X184325000Y-63790279D01*
X184407047Y-64202756D01*
X184567988Y-64591302D01*
X184801637Y-64940983D01*
X185099017Y-65238363D01*
X185448698Y-65472012D01*
X185837244Y-65632953D01*
X186249721Y-65715000D01*
X186670279Y-65715000D01*
X187082756Y-65632953D01*
X187471302Y-65472012D01*
X187820983Y-65238363D01*
X188118363Y-64940983D01*
X188352012Y-64591302D01*
X188512953Y-64202756D01*
X188595000Y-63790279D01*
X188595000Y-63369721D01*
X188512953Y-62957244D01*
X188352012Y-62568698D01*
X188118363Y-62219017D01*
X187820983Y-61921637D01*
X187471302Y-61687988D01*
X187082756Y-61527047D01*
X186670279Y-61445000D01*
X186249721Y-61445000D01*
X185837244Y-61527047D01*
X185448698Y-61687988D01*
X185099017Y-61921637D01*
X184801637Y-62219017D01*
X184567988Y-62568698D01*
X184407047Y-62957244D01*
X184325000Y-63369721D01*
X183785001Y-63369721D01*
X183785001Y-50825156D01*
X185575158Y-49035000D01*
X185601939Y-49035000D01*
X185801898Y-48995226D01*
X185990256Y-48917205D01*
X186159774Y-48803937D01*
X186303937Y-48659774D01*
X186417205Y-48490256D01*
X186495226Y-48301898D01*
X186535000Y-48101939D01*
X186535000Y-47898061D01*
X186495226Y-47698102D01*
X186417205Y-47509744D01*
X186303937Y-47340226D01*
X186159774Y-47196063D01*
X185990256Y-47082795D01*
X185801898Y-47004774D01*
X185601939Y-46965000D01*
X185398061Y-46965000D01*
X185198102Y-47004774D01*
X185009744Y-47082795D01*
X184840226Y-47196063D01*
X184696063Y-47340226D01*
X184582795Y-47509744D01*
X184504774Y-47698102D01*
X184465000Y-47898061D01*
X184465000Y-47924842D01*
X182472191Y-49917652D01*
X182442237Y-49942235D01*
X182344139Y-50061767D01*
X182271247Y-50198140D01*
X182226360Y-50346113D01*
X182215001Y-50461439D01*
X182215001Y-50461446D01*
X182211204Y-50499999D01*
X182215001Y-50538552D01*
X182215001Y-51715000D01*
X182148061Y-51715000D01*
X181948102Y-51754774D01*
X181759744Y-51832795D01*
X181750000Y-51839306D01*
X181740256Y-51832795D01*
X181551898Y-51754774D01*
X181351939Y-51715000D01*
X181148061Y-51715000D01*
X180948102Y-51754774D01*
X180759744Y-51832795D01*
X180590226Y-51946063D01*
X180446063Y-52090226D01*
X180332795Y-52259744D01*
X180300770Y-52337059D01*
X180159774Y-52196063D01*
X179990256Y-52082795D01*
X179801898Y-52004774D01*
X179601939Y-51965000D01*
X179398061Y-51965000D01*
X179198102Y-52004774D01*
X179009744Y-52082795D01*
X178840226Y-52196063D01*
X178821289Y-52215000D01*
X177748711Y-52215000D01*
X177803937Y-52159774D01*
X177917205Y-51990256D01*
X177995226Y-51801898D01*
X178035000Y-51601939D01*
X178035000Y-51398061D01*
X177995226Y-51198102D01*
X177917205Y-51009744D01*
X177803937Y-50840226D01*
X177659774Y-50696063D01*
X177490256Y-50582795D01*
X177301898Y-50504774D01*
X177101939Y-50465000D01*
X176898061Y-50465000D01*
X176698102Y-50504774D01*
X176509744Y-50582795D01*
X176340226Y-50696063D01*
X176321289Y-50715000D01*
X176075158Y-50715000D01*
X171582347Y-46222190D01*
X171557764Y-46192236D01*
X171438233Y-46094138D01*
X171301860Y-46021246D01*
X171153887Y-45976359D01*
X171038561Y-45965000D01*
X171038553Y-45965000D01*
X171000000Y-45961203D01*
X170961447Y-45965000D01*
X147769088Y-45965000D01*
X147795226Y-45901898D01*
X147835000Y-45701939D01*
X147835000Y-45639801D01*
X149181003Y-44293799D01*
X149210001Y-44270001D01*
X149304974Y-44154276D01*
X149375546Y-44022247D01*
X149419003Y-43878986D01*
X149430000Y-43767333D01*
X149430000Y-43767324D01*
X149433676Y-43730001D01*
X149430000Y-43692678D01*
X149430000Y-42413589D01*
X154515000Y-42413589D01*
X154515000Y-42686411D01*
X154568225Y-42953989D01*
X154672629Y-43206043D01*
X154824201Y-43432886D01*
X155017114Y-43625799D01*
X155243957Y-43777371D01*
X155496011Y-43881775D01*
X155763589Y-43935000D01*
X156036411Y-43935000D01*
X156303989Y-43881775D01*
X156556043Y-43777371D01*
X156782886Y-43625799D01*
X156975799Y-43432886D01*
X157127371Y-43206043D01*
X157231775Y-42953989D01*
X157285000Y-42686411D01*
X157285000Y-42413589D01*
X157231775Y-42146011D01*
X157127371Y-41893957D01*
X156975799Y-41667114D01*
X156782886Y-41474201D01*
X156556043Y-41322629D01*
X156303989Y-41218225D01*
X156036411Y-41165000D01*
X155763589Y-41165000D01*
X155496011Y-41218225D01*
X155243957Y-41322629D01*
X155017114Y-41474201D01*
X154824201Y-41667114D01*
X154672629Y-41893957D01*
X154568225Y-42146011D01*
X154515000Y-42413589D01*
X149430000Y-42413589D01*
X149430000Y-41968178D01*
X149616632Y-41843475D01*
X149823475Y-41636632D01*
X149985990Y-41393411D01*
X150097932Y-41123158D01*
X150155000Y-40836260D01*
X150155000Y-40543740D01*
X150097932Y-40256842D01*
X150057819Y-40160000D01*
X159712678Y-40160000D01*
X159750000Y-40163676D01*
X159787322Y-40160000D01*
X159787333Y-40160000D01*
X159898986Y-40149003D01*
X160042247Y-40105546D01*
X160174276Y-40034974D01*
X160290001Y-39940001D01*
X160313804Y-39910997D01*
X161239802Y-38985000D01*
X161301939Y-38985000D01*
X161501898Y-38945226D01*
X161690256Y-38867205D01*
X161859774Y-38753937D01*
X162003937Y-38609774D01*
X162117205Y-38440256D01*
X162195226Y-38251898D01*
X162235000Y-38051939D01*
X162235000Y-37848061D01*
X162195226Y-37648102D01*
X162117205Y-37459744D01*
X162003937Y-37290226D01*
X161859774Y-37146063D01*
X161730005Y-37059354D01*
X161795226Y-36901898D01*
X161835000Y-36701939D01*
X161835000Y-36498061D01*
X161795226Y-36298102D01*
X161717205Y-36109744D01*
X161603937Y-35940226D01*
X161459774Y-35796063D01*
X161290256Y-35682795D01*
X161101898Y-35604774D01*
X160901939Y-35565000D01*
X160698061Y-35565000D01*
X160498102Y-35604774D01*
X160309744Y-35682795D01*
X160140226Y-35796063D01*
X159996063Y-35940226D01*
X159882795Y-36109744D01*
X159804774Y-36298102D01*
X159765000Y-36498061D01*
X159765000Y-36560198D01*
X158935199Y-37390000D01*
X149948178Y-37390000D01*
X149823475Y-37203368D01*
X149616632Y-36996525D01*
X149443271Y-36880689D01*
X149518792Y-36638397D01*
X148670000Y-35789605D01*
X147821208Y-36638397D01*
X147896729Y-36880689D01*
X147723368Y-36996525D01*
X147516525Y-37203368D01*
X147400000Y-37377760D01*
X147283475Y-37203368D01*
X147076632Y-36996525D01*
X146902240Y-36880000D01*
X147076632Y-36763475D01*
X147283475Y-36556632D01*
X147399311Y-36383271D01*
X147641603Y-36458792D01*
X148490395Y-35610000D01*
X148849605Y-35610000D01*
X149698397Y-36458792D01*
X149947472Y-36381157D01*
X150073371Y-36117117D01*
X150145339Y-35833589D01*
X150160611Y-35541469D01*
X150118599Y-35251981D01*
X150020919Y-34976253D01*
X149950009Y-34843589D01*
X151815000Y-34843589D01*
X151815000Y-35116411D01*
X151868225Y-35383989D01*
X151972629Y-35636043D01*
X152124201Y-35862886D01*
X152317114Y-36055799D01*
X152543957Y-36207371D01*
X152796011Y-36311775D01*
X153063589Y-36365000D01*
X153336411Y-36365000D01*
X153603989Y-36311775D01*
X153856043Y-36207371D01*
X154082886Y-36055799D01*
X154275799Y-35862886D01*
X154427371Y-35636043D01*
X154531775Y-35383989D01*
X154585000Y-35116411D01*
X154585000Y-34843589D01*
X157215000Y-34843589D01*
X157215000Y-35116411D01*
X157268225Y-35383989D01*
X157372629Y-35636043D01*
X157524201Y-35862886D01*
X157717114Y-36055799D01*
X157943957Y-36207371D01*
X158196011Y-36311775D01*
X158463589Y-36365000D01*
X158736411Y-36365000D01*
X159003989Y-36311775D01*
X159256043Y-36207371D01*
X159482886Y-36055799D01*
X159675799Y-35862886D01*
X159827371Y-35636043D01*
X159931775Y-35383989D01*
X159985000Y-35116411D01*
X159985000Y-34843589D01*
X159931775Y-34576011D01*
X159827371Y-34323957D01*
X159675799Y-34097114D01*
X159482886Y-33904201D01*
X159256043Y-33752629D01*
X159003989Y-33648225D01*
X158736411Y-33595000D01*
X158463589Y-33595000D01*
X158196011Y-33648225D01*
X157943957Y-33752629D01*
X157717114Y-33904201D01*
X157524201Y-34097114D01*
X157372629Y-34323957D01*
X157268225Y-34576011D01*
X157215000Y-34843589D01*
X154585000Y-34843589D01*
X154531775Y-34576011D01*
X154427371Y-34323957D01*
X154275799Y-34097114D01*
X154082886Y-33904201D01*
X153856043Y-33752629D01*
X153603989Y-33648225D01*
X153336411Y-33595000D01*
X153063589Y-33595000D01*
X152796011Y-33648225D01*
X152543957Y-33752629D01*
X152317114Y-33904201D01*
X152124201Y-34097114D01*
X151972629Y-34323957D01*
X151868225Y-34576011D01*
X151815000Y-34843589D01*
X149950009Y-34843589D01*
X149947472Y-34838843D01*
X149698397Y-34761208D01*
X148849605Y-35610000D01*
X148490395Y-35610000D01*
X147641603Y-34761208D01*
X147399311Y-34836729D01*
X147283475Y-34663368D01*
X147201710Y-34581603D01*
X147821208Y-34581603D01*
X148670000Y-35430395D01*
X149518792Y-34581603D01*
X149441157Y-34332528D01*
X149177117Y-34206629D01*
X148893589Y-34134661D01*
X148601469Y-34119389D01*
X148311981Y-34161401D01*
X148036253Y-34259081D01*
X147898843Y-34332528D01*
X147821208Y-34581603D01*
X147201710Y-34581603D01*
X147076632Y-34456525D01*
X146833411Y-34294010D01*
X146563158Y-34182068D01*
X146276260Y-34125000D01*
X145983740Y-34125000D01*
X145696842Y-34182068D01*
X145426589Y-34294010D01*
X145183368Y-34456525D01*
X144976525Y-34663368D01*
X144814010Y-34906589D01*
X144702068Y-35176842D01*
X144645000Y-35463740D01*
X144645000Y-35756260D01*
X144702068Y-36043158D01*
X144814010Y-36313411D01*
X144976525Y-36556632D01*
X145183368Y-36763475D01*
X145357760Y-36880000D01*
X145183368Y-36996525D01*
X144976525Y-37203368D01*
X144814010Y-37446589D01*
X144702068Y-37716842D01*
X144645000Y-38003740D01*
X144645000Y-38296260D01*
X144702068Y-38583158D01*
X144814010Y-38853411D01*
X144976525Y-39096632D01*
X145183368Y-39303475D01*
X145357760Y-39420000D01*
X145183368Y-39536525D01*
X144976525Y-39743368D01*
X144814010Y-39986589D01*
X144702068Y-40256842D01*
X144645000Y-40543740D01*
X144645000Y-40836260D01*
X144702068Y-41123158D01*
X144814010Y-41393411D01*
X144976525Y-41636632D01*
X145183368Y-41843475D01*
X145426589Y-42005990D01*
X145696842Y-42117932D01*
X145983740Y-42175000D01*
X146276260Y-42175000D01*
X146563158Y-42117932D01*
X146833411Y-42005990D01*
X147076632Y-41843475D01*
X147283475Y-41636632D01*
X147400000Y-41462240D01*
X147516525Y-41636632D01*
X147723368Y-41843475D01*
X147910000Y-41968179D01*
X147910001Y-43415197D01*
X146760199Y-44565000D01*
X146698061Y-44565000D01*
X146498102Y-44604774D01*
X146309744Y-44682795D01*
X146140226Y-44796063D01*
X145996063Y-44940226D01*
X145882795Y-45109744D01*
X145804774Y-45298102D01*
X145765000Y-45498061D01*
X145765000Y-45701939D01*
X145804774Y-45901898D01*
X145830912Y-45965000D01*
X124288552Y-45965000D01*
X124249999Y-45961203D01*
X124211446Y-45965000D01*
X124211439Y-45965000D01*
X124110490Y-45974943D01*
X124096112Y-45976359D01*
X123948140Y-46021246D01*
X123811767Y-46094138D01*
X123771428Y-46127244D01*
X123722187Y-46167655D01*
X123722184Y-46167658D01*
X123692236Y-46192236D01*
X123667658Y-46222184D01*
X116277830Y-53612013D01*
X116245226Y-53448102D01*
X116167205Y-53259744D01*
X116053937Y-53090226D01*
X115909774Y-52946063D01*
X115740256Y-52832795D01*
X115635001Y-52789197D01*
X115635001Y-49638553D01*
X115638798Y-49600000D01*
X115635001Y-49561447D01*
X115635001Y-49561440D01*
X115623642Y-49446114D01*
X115578755Y-49298141D01*
X115505863Y-49161768D01*
X115407765Y-49042237D01*
X115377817Y-49017659D01*
X111535000Y-45174843D01*
X111535000Y-45148061D01*
X111495226Y-44948102D01*
X111417205Y-44759744D01*
X111303937Y-44590226D01*
X111159774Y-44446063D01*
X110990256Y-44332795D01*
X110801898Y-44254774D01*
X110601939Y-44215000D01*
X110398061Y-44215000D01*
X110198102Y-44254774D01*
X110009744Y-44332795D01*
X109840226Y-44446063D01*
X109696063Y-44590226D01*
X109582795Y-44759744D01*
X109504774Y-44948102D01*
X109465000Y-45148061D01*
X109465000Y-45351939D01*
X109504774Y-45551898D01*
X109582795Y-45740256D01*
X109696063Y-45909774D01*
X109840226Y-46053937D01*
X110009744Y-46167205D01*
X110198102Y-46245226D01*
X110398061Y-46285000D01*
X110424843Y-46285000D01*
X114065002Y-49925160D01*
X114065001Y-53311448D01*
X114061204Y-53350001D01*
X114065001Y-53388554D01*
X114065001Y-53388561D01*
X114076360Y-53503887D01*
X114121247Y-53651860D01*
X114194139Y-53788233D01*
X114215000Y-53813652D01*
X114215000Y-53851939D01*
X114254774Y-54051898D01*
X114332795Y-54240256D01*
X114446063Y-54409774D01*
X114590226Y-54553937D01*
X114759744Y-54667205D01*
X114948102Y-54745226D01*
X115112013Y-54777830D01*
X112282190Y-57607653D01*
X112252236Y-57632236D01*
X112154138Y-57751768D01*
X112081246Y-57888141D01*
X112036359Y-58036114D01*
X112025000Y-58151440D01*
X112025000Y-58151447D01*
X112021203Y-58190000D01*
X112025000Y-58228553D01*
X112025000Y-59054251D01*
X111798698Y-59147988D01*
X111501422Y-59346621D01*
X111533739Y-59268601D01*
X111635000Y-58759525D01*
X111635000Y-58240475D01*
X111533739Y-57731399D01*
X111335107Y-57251859D01*
X111046738Y-56820285D01*
X110679715Y-56453262D01*
X110248141Y-56164893D01*
X109826825Y-55990378D01*
X109907502Y-55965905D01*
X110317489Y-55746763D01*
X110676846Y-55451846D01*
X110971763Y-55092490D01*
X111190905Y-54682503D01*
X111325853Y-54237641D01*
X111360000Y-53890939D01*
X111360000Y-51609061D01*
X111325853Y-51262359D01*
X111190905Y-50817497D01*
X110971763Y-50407510D01*
X110676846Y-50048154D01*
X110317490Y-49753237D01*
X109907503Y-49534095D01*
X109462641Y-49399147D01*
X109000000Y-49353581D01*
X108537360Y-49399147D01*
X108092498Y-49534095D01*
X107682511Y-49753237D01*
X107323155Y-50048154D01*
X107028238Y-50407510D01*
X106809095Y-50817497D01*
X106674147Y-51262359D01*
X106640000Y-51609061D01*
X106640000Y-53890938D01*
X106674147Y-54237640D01*
X106809095Y-54682502D01*
X107028237Y-55092489D01*
X107323154Y-55451846D01*
X107682510Y-55746763D01*
X108092497Y-55965905D01*
X108173175Y-55990378D01*
X107751859Y-56164893D01*
X107320285Y-56453262D01*
X106953262Y-56820285D01*
X106664893Y-57251859D01*
X106466261Y-57731399D01*
X106365000Y-58240475D01*
X102785000Y-58240475D01*
X102785000Y-54325157D01*
X108627817Y-48482341D01*
X108657765Y-48457763D01*
X108755863Y-48338232D01*
X108828755Y-48201859D01*
X108843307Y-48153887D01*
X108873642Y-48053887D01*
X108878949Y-48000000D01*
X108885001Y-47938560D01*
X108885001Y-47938553D01*
X108888798Y-47900000D01*
X108885001Y-47861447D01*
X108885001Y-43900000D01*
X121761928Y-43900000D01*
X121774188Y-44024482D01*
X121810498Y-44144180D01*
X121869463Y-44254494D01*
X121948815Y-44351185D01*
X122045506Y-44430537D01*
X122155820Y-44489502D01*
X122275518Y-44525812D01*
X122400000Y-44538072D01*
X122614250Y-44535000D01*
X122773000Y-44376250D01*
X122773000Y-43277000D01*
X121923750Y-43277000D01*
X121765000Y-43435750D01*
X121761928Y-43900000D01*
X108885001Y-43900000D01*
X108885001Y-43210803D01*
X108990256Y-43167205D01*
X109159774Y-43053937D01*
X109303937Y-42909774D01*
X109417205Y-42740256D01*
X109495226Y-42551898D01*
X109535000Y-42351939D01*
X109535000Y-42148061D01*
X109495226Y-41948102D01*
X109417205Y-41759744D01*
X109303937Y-41590226D01*
X109159774Y-41446063D01*
X108990256Y-41332795D01*
X108801898Y-41254774D01*
X108601939Y-41215000D01*
X108398061Y-41215000D01*
X108198102Y-41254774D01*
X108009744Y-41332795D01*
X107840226Y-41446063D01*
X107696063Y-41590226D01*
X107582795Y-41759744D01*
X107504774Y-41948102D01*
X107465000Y-42148061D01*
X107465000Y-42186348D01*
X107444139Y-42211767D01*
X107371247Y-42348140D01*
X107326360Y-42496113D01*
X107315001Y-42611439D01*
X107315001Y-42611446D01*
X107311204Y-42649999D01*
X107315001Y-42688552D01*
X107315002Y-47574840D01*
X101660000Y-53229843D01*
X101660000Y-46539721D01*
X102865000Y-46539721D01*
X102865000Y-46960279D01*
X102947047Y-47372756D01*
X103107988Y-47761302D01*
X103341637Y-48110983D01*
X103639017Y-48408363D01*
X103988698Y-48642012D01*
X104377244Y-48802953D01*
X104789721Y-48885000D01*
X105210279Y-48885000D01*
X105622756Y-48802953D01*
X106011302Y-48642012D01*
X106360983Y-48408363D01*
X106658363Y-48110983D01*
X106892012Y-47761302D01*
X107052953Y-47372756D01*
X107135000Y-46960279D01*
X107135000Y-46539721D01*
X107052953Y-46127244D01*
X106892012Y-45738698D01*
X106658363Y-45389017D01*
X106360983Y-45091637D01*
X106011302Y-44857988D01*
X105622756Y-44697047D01*
X105210279Y-44615000D01*
X104789721Y-44615000D01*
X104377244Y-44697047D01*
X103988698Y-44857988D01*
X103639017Y-45091637D01*
X103341637Y-45389017D01*
X103107988Y-45738698D01*
X102947047Y-46127244D01*
X102865000Y-46539721D01*
X101660000Y-46539721D01*
X101660000Y-38009062D01*
X109240000Y-38009062D01*
X109240000Y-40290939D01*
X109274147Y-40637641D01*
X109409095Y-41082503D01*
X109628238Y-41492490D01*
X109923155Y-41851846D01*
X110282511Y-42146763D01*
X110692498Y-42365905D01*
X111137360Y-42500853D01*
X111600000Y-42546419D01*
X112062641Y-42500853D01*
X112395107Y-42400000D01*
X121761928Y-42400000D01*
X121765000Y-42864250D01*
X121923750Y-43023000D01*
X122773000Y-43023000D01*
X122773000Y-41923750D01*
X123027000Y-41923750D01*
X123027000Y-43023000D01*
X123047000Y-43023000D01*
X123047000Y-43277000D01*
X123027000Y-43277000D01*
X123027000Y-44376250D01*
X123185750Y-44535000D01*
X123400000Y-44538072D01*
X123524482Y-44525812D01*
X123644180Y-44489502D01*
X123754494Y-44430537D01*
X123851185Y-44351185D01*
X123900000Y-44291704D01*
X123948815Y-44351185D01*
X124045506Y-44430537D01*
X124155820Y-44489502D01*
X124275518Y-44525812D01*
X124400000Y-44538072D01*
X125400000Y-44538072D01*
X125524482Y-44525812D01*
X125644180Y-44489502D01*
X125754494Y-44430537D01*
X125851185Y-44351185D01*
X125930537Y-44254494D01*
X125989502Y-44144180D01*
X126025812Y-44024482D01*
X126038072Y-43900000D01*
X126038072Y-42400000D01*
X126025812Y-42275518D01*
X125989502Y-42155820D01*
X125930537Y-42045506D01*
X125851185Y-41948815D01*
X125754494Y-41869463D01*
X125644180Y-41810498D01*
X125582727Y-41791856D01*
X125617205Y-41740256D01*
X125695226Y-41551898D01*
X125735000Y-41351939D01*
X125735000Y-41198061D01*
X126765000Y-41198061D01*
X126765000Y-41401939D01*
X126804774Y-41601898D01*
X126882795Y-41790256D01*
X126974846Y-41928021D01*
X126919463Y-41995506D01*
X126860498Y-42105820D01*
X126824188Y-42225518D01*
X126811928Y-42350000D01*
X126811928Y-43850000D01*
X126824188Y-43974482D01*
X126860498Y-44094180D01*
X126919463Y-44204494D01*
X126998815Y-44301185D01*
X127095506Y-44380537D01*
X127205820Y-44439502D01*
X127325518Y-44475812D01*
X127450000Y-44488072D01*
X128450000Y-44488072D01*
X128574482Y-44475812D01*
X128694180Y-44439502D01*
X128804494Y-44380537D01*
X128901185Y-44301185D01*
X128950000Y-44241704D01*
X128998815Y-44301185D01*
X129095506Y-44380537D01*
X129205820Y-44439502D01*
X129325518Y-44475812D01*
X129450000Y-44488072D01*
X129664250Y-44485000D01*
X129823000Y-44326250D01*
X129823000Y-43227000D01*
X130077000Y-43227000D01*
X130077000Y-44326250D01*
X130235750Y-44485000D01*
X130450000Y-44488072D01*
X130574482Y-44475812D01*
X130694180Y-44439502D01*
X130804494Y-44380537D01*
X130901185Y-44301185D01*
X130980537Y-44204494D01*
X131039502Y-44094180D01*
X131075812Y-43974482D01*
X131088072Y-43850000D01*
X131085000Y-43385750D01*
X130926250Y-43227000D01*
X130077000Y-43227000D01*
X129823000Y-43227000D01*
X129803000Y-43227000D01*
X129803000Y-42973000D01*
X129823000Y-42973000D01*
X129823000Y-41873750D01*
X130077000Y-41873750D01*
X130077000Y-42973000D01*
X130926250Y-42973000D01*
X131085000Y-42814250D01*
X131088072Y-42350000D01*
X131075812Y-42225518D01*
X131039502Y-42105820D01*
X130980537Y-41995506D01*
X130901185Y-41898815D01*
X130804494Y-41819463D01*
X130694180Y-41760498D01*
X130574482Y-41724188D01*
X130450000Y-41711928D01*
X130235750Y-41715000D01*
X130077000Y-41873750D01*
X129823000Y-41873750D01*
X129664250Y-41715000D01*
X129450000Y-41711928D01*
X129325518Y-41724188D01*
X129205820Y-41760498D01*
X129095506Y-41819463D01*
X128998815Y-41898815D01*
X128950000Y-41958296D01*
X128901185Y-41898815D01*
X128804494Y-41819463D01*
X128723123Y-41775969D01*
X128795226Y-41601898D01*
X128835000Y-41401939D01*
X128835000Y-41198061D01*
X128795226Y-40998102D01*
X128717205Y-40809744D01*
X128603937Y-40640226D01*
X128459774Y-40496063D01*
X128290256Y-40382795D01*
X128101898Y-40304774D01*
X127901939Y-40265000D01*
X127698061Y-40265000D01*
X127498102Y-40304774D01*
X127309744Y-40382795D01*
X127140226Y-40496063D01*
X126996063Y-40640226D01*
X126882795Y-40809744D01*
X126804774Y-40998102D01*
X126765000Y-41198061D01*
X125735000Y-41198061D01*
X125735000Y-41148061D01*
X125695226Y-40948102D01*
X125617205Y-40759744D01*
X125503937Y-40590226D01*
X125359774Y-40446063D01*
X125190256Y-40332795D01*
X125001898Y-40254774D01*
X124801939Y-40215000D01*
X124598061Y-40215000D01*
X124398102Y-40254774D01*
X124209744Y-40332795D01*
X124040226Y-40446063D01*
X123896063Y-40590226D01*
X123782795Y-40759744D01*
X123704774Y-40948102D01*
X123665000Y-41148061D01*
X123665000Y-41351939D01*
X123704774Y-41551898D01*
X123782795Y-41740256D01*
X123896063Y-41909774D01*
X123940000Y-41953711D01*
X123940000Y-41959556D01*
X123900000Y-42008296D01*
X123851185Y-41948815D01*
X123754494Y-41869463D01*
X123644180Y-41810498D01*
X123524482Y-41774188D01*
X123400000Y-41761928D01*
X123185750Y-41765000D01*
X123027000Y-41923750D01*
X122773000Y-41923750D01*
X122614250Y-41765000D01*
X122400000Y-41761928D01*
X122275518Y-41774188D01*
X122155820Y-41810498D01*
X122045506Y-41869463D01*
X121948815Y-41948815D01*
X121869463Y-42045506D01*
X121810498Y-42155820D01*
X121774188Y-42275518D01*
X121761928Y-42400000D01*
X112395107Y-42400000D01*
X112507503Y-42365905D01*
X112917490Y-42146763D01*
X113276846Y-41851846D01*
X113571763Y-41492490D01*
X113790905Y-41082503D01*
X113925853Y-40637641D01*
X113960000Y-40290939D01*
X113960000Y-38009061D01*
X113925853Y-37662359D01*
X113857021Y-37435448D01*
X122350000Y-37435448D01*
X122350000Y-37624552D01*
X122386892Y-37810022D01*
X122459259Y-37984731D01*
X122564319Y-38141964D01*
X122698036Y-38275681D01*
X122855269Y-38380741D01*
X123029978Y-38453108D01*
X123215448Y-38490000D01*
X123404552Y-38490000D01*
X123590022Y-38453108D01*
X123764731Y-38380741D01*
X123921964Y-38275681D01*
X124055681Y-38141964D01*
X124160741Y-37984731D01*
X124233108Y-37810022D01*
X124270000Y-37624552D01*
X124270000Y-37435448D01*
X128130000Y-37435448D01*
X128130000Y-37624552D01*
X128166892Y-37810022D01*
X128239259Y-37984731D01*
X128344319Y-38141964D01*
X128478036Y-38275681D01*
X128635269Y-38380741D01*
X128809978Y-38453108D01*
X128995448Y-38490000D01*
X129184552Y-38490000D01*
X129370022Y-38453108D01*
X129544731Y-38380741D01*
X129701964Y-38275681D01*
X129835681Y-38141964D01*
X129940741Y-37984731D01*
X130013108Y-37810022D01*
X130050000Y-37624552D01*
X130050000Y-37435448D01*
X130013108Y-37249978D01*
X129940741Y-37075269D01*
X129835681Y-36918036D01*
X129701964Y-36784319D01*
X129544731Y-36679259D01*
X129370022Y-36606892D01*
X129184552Y-36570000D01*
X128995448Y-36570000D01*
X128809978Y-36606892D01*
X128635269Y-36679259D01*
X128478036Y-36784319D01*
X128344319Y-36918036D01*
X128239259Y-37075269D01*
X128166892Y-37249978D01*
X128130000Y-37435448D01*
X124270000Y-37435448D01*
X124233108Y-37249978D01*
X124160741Y-37075269D01*
X124055681Y-36918036D01*
X123921964Y-36784319D01*
X123764731Y-36679259D01*
X123590022Y-36606892D01*
X123404552Y-36570000D01*
X123215448Y-36570000D01*
X123029978Y-36606892D01*
X122855269Y-36679259D01*
X122698036Y-36784319D01*
X122564319Y-36918036D01*
X122459259Y-37075269D01*
X122386892Y-37249978D01*
X122350000Y-37435448D01*
X113857021Y-37435448D01*
X113790905Y-37217497D01*
X113571763Y-36807510D01*
X113276846Y-36448154D01*
X112917489Y-36153237D01*
X112507502Y-35934095D01*
X112062640Y-35799147D01*
X111600000Y-35753581D01*
X111137359Y-35799147D01*
X110692497Y-35934095D01*
X110282510Y-36153237D01*
X109923154Y-36448154D01*
X109628237Y-36807511D01*
X109409095Y-37217498D01*
X109274147Y-37662360D01*
X109240000Y-38009062D01*
X101660000Y-38009062D01*
X101660000Y-33160000D01*
X196340001Y-33160000D01*
X196340001Y-51479843D01*
G37*
G04 #@! TD.AperFunction*
M02*
