G04 #@! TF.GenerationSoftware,KiCad,Pcbnew,(5.1.9)-1*
G04 #@! TF.CreationDate,2021-02-04T21:44:10+01:00*
G04 #@! TF.ProjectId,Makrokeyboard,4d616b72-6f6b-4657-9962-6f6172642e6b,rev?*
G04 #@! TF.SameCoordinates,Original*
G04 #@! TF.FileFunction,Soldermask,Top*
G04 #@! TF.FilePolarity,Negative*
%FSLAX46Y46*%
G04 Gerber Fmt 4.6, Leading zero omitted, Abs format (unit mm)*
G04 Created by KiCad (PCBNEW (5.1.9)-1) date 2021-02-04 21:44:10*
%MOMM*%
%LPD*%
G01*
G04 APERTURE LIST*
%ADD10C,1.700000*%
%ADD11R,1.000000X1.500000*%
%ADD12O,3.450000X5.500000*%
%ADD13C,3.000000*%
%ADD14C,0.650000*%
%ADD15C,1.500000*%
%ADD16C,4.000000*%
G04 APERTURE END LIST*
D10*
X148670000Y-38150000D03*
X146130000Y-35610000D03*
X148670000Y-35610000D03*
X148670000Y-40690000D03*
X146130000Y-40690000D03*
X146130000Y-38150000D03*
D11*
X124900000Y-43150000D03*
X122900000Y-43150000D03*
X127950000Y-43100000D03*
X129950000Y-43100000D03*
D12*
X111600000Y-39150000D03*
D13*
X119000000Y-108250000D03*
X193000000Y-46750000D03*
X179000000Y-108500000D03*
X105000000Y-46750000D03*
D14*
X123310000Y-37530000D03*
X129090000Y-37530000D03*
D15*
X155900000Y-42550000D03*
X158600000Y-34980000D03*
X153200000Y-34980000D03*
D13*
X106460000Y-63580000D03*
X112810000Y-61040000D03*
D16*
X109000000Y-58500000D03*
D13*
X106460000Y-83580000D03*
X112810000Y-81040000D03*
D16*
X109000000Y-78500000D03*
D13*
X106460000Y-103580000D03*
X112810000Y-101040000D03*
D16*
X109000000Y-98500000D03*
D13*
X106460000Y-123580000D03*
X112810000Y-121040000D03*
D16*
X109000000Y-118500000D03*
D13*
X126460000Y-63580000D03*
X132810000Y-61040000D03*
D16*
X129000000Y-58500000D03*
D13*
X126460000Y-83580000D03*
X132810000Y-81040000D03*
D16*
X129000000Y-78500000D03*
D13*
X126460000Y-103580000D03*
X132810000Y-101040000D03*
D16*
X129000000Y-98500000D03*
D13*
X126460000Y-123580000D03*
X132810000Y-121040000D03*
D16*
X129000000Y-118500000D03*
D13*
X146460000Y-63580000D03*
X152810000Y-61040000D03*
D16*
X149000000Y-58500000D03*
D13*
X146460000Y-83580000D03*
X152810000Y-81040000D03*
D16*
X149000000Y-78500000D03*
D13*
X146460000Y-103580000D03*
X152810000Y-101040000D03*
D16*
X149000000Y-98500000D03*
D13*
X146460000Y-123580000D03*
X152810000Y-121040000D03*
D16*
X149000000Y-118500000D03*
D13*
X166460000Y-63580000D03*
X172810000Y-61040000D03*
D16*
X169000000Y-58500000D03*
D13*
X166460000Y-83580000D03*
X172810000Y-81040000D03*
D16*
X169000000Y-78500000D03*
D13*
X166460000Y-103580000D03*
X172810000Y-101040000D03*
D16*
X169000000Y-98500000D03*
D13*
X166460000Y-123580000D03*
X172810000Y-121040000D03*
D16*
X169000000Y-118500000D03*
D13*
X186460000Y-63580000D03*
X192810000Y-61040000D03*
D16*
X189000000Y-58500000D03*
D13*
X186460000Y-83580000D03*
X192810000Y-81040000D03*
D16*
X189000000Y-78500000D03*
D13*
X186460000Y-103580000D03*
X192810000Y-101040000D03*
D16*
X189000000Y-98500000D03*
D13*
X186460000Y-123580000D03*
X192810000Y-121040000D03*
D16*
X189000000Y-118500000D03*
D12*
X189000000Y-52750000D03*
X189000000Y-92750000D03*
X169000000Y-52750000D03*
X169000000Y-92750000D03*
X149000000Y-52750000D03*
X149000000Y-92750000D03*
X129000000Y-52750000D03*
X129000000Y-92750000D03*
X109000000Y-52750000D03*
X109000000Y-92750000D03*
X109000000Y-72750000D03*
X109000000Y-112750000D03*
X129000000Y-72750000D03*
X129000000Y-112750000D03*
X149000000Y-72750000D03*
X149000000Y-112750000D03*
X169000000Y-72750000D03*
X169000000Y-112750000D03*
X189000000Y-72750000D03*
X189000000Y-112750000D03*
M02*
