M48
; DRILL file {KiCad (5.1.9)-1} date 02/04/21 21:44:12
; FORMAT={-:-/ absolute / inch / decimal}
; #@! TF.CreationDate,2021-02-04T21:44:12+01:00
; #@! TF.GenerationSoftware,Kicad,Pcbnew,(5.1.9)-1
FMAT,2
INCH
T1C0.0157
T2C0.0394
T3C0.0591
T4C0.0256
T5C0.0591
T6C0.1181
T7C0.1358
T8C0.1575
%
G90
G05
T1
X4.0945Y-3.6516
X4.2717Y-1.6634
X4.3504Y-1.7815
X4.5374Y-2.1161
X4.5669Y-1.6634
X4.5768Y-4.5571
X4.5965Y-2.9921
X4.6161Y-1.437
X4.8031Y-2.2835
X4.8327Y-2.0571
X4.9094Y-1.624
X5.0315Y-1.626
X5.7795Y-1.7953
X6.1614Y-1.3681
X6.3307Y-1.4409
X6.3465Y-1.4941
X6.4469Y-1.6831
X6.6339Y-1.4862
X6.8012Y-1.7224
X6.9685Y-2.0276
X7.0669Y-2.0866
X7.1358Y-2.0768
X7.1654Y-4.9114
X7.1752Y-2.0768
X7.1752Y-3.6122
X7.2343Y-1.3484
X7.3031Y-1.8898
X7.313Y-1.7224
X7.3228Y-1.9783
X7.4508Y-1.8898
X7.5394Y-2.9823
X7.6378Y-3.0315
X7.6476Y-4.1437
X7.6575Y-1.998
X7.6575Y-3.4154
X7.6673Y-4.626
X7.687Y-4.4882
X7.6969Y-4.1732
T2
X5.7531Y-1.402
X5.7531Y-1.502
X5.7531Y-1.602
X5.8531Y-1.402
X5.8531Y-1.502
X5.8531Y-1.602
T3
X4.1913Y-2.5031
X4.1913Y-3.2906
X4.1913Y-4.078
X4.1913Y-4.8654
X4.4413Y-2.4031
X4.4413Y-3.1906
X4.4413Y-3.978
X4.4413Y-4.7654
X4.9787Y-2.5031
X4.9787Y-3.2906
X4.9787Y-4.078
X4.9787Y-4.8654
X5.2287Y-2.4031
X5.2287Y-3.1906
X5.2287Y-3.978
X5.2287Y-4.7654
X5.7661Y-2.5031
X5.7661Y-3.2906
X5.7661Y-4.078
X5.7661Y-4.8654
X6.0161Y-2.4031
X6.0161Y-3.1906
X6.0161Y-3.978
X6.0161Y-4.7654
X6.5535Y-2.5031
X6.5535Y-3.2906
X6.5535Y-4.078
X6.5535Y-4.8654
X6.8035Y-2.4031
X6.8035Y-3.1906
X6.8035Y-3.978
X6.8035Y-4.7654
X7.3409Y-2.5031
X7.3409Y-3.2906
X7.3409Y-4.078
X7.3409Y-4.8654
X7.5909Y-2.4031
X7.5909Y-3.1906
X7.5909Y-3.978
X7.5909Y-4.7654
T4
X4.8547Y-1.4776
X5.0823Y-1.4776
T5
X6.0315Y-1.3772
X6.1378Y-1.6752
X6.2441Y-1.3772
T6
X4.1339Y-1.8406
X4.685Y-4.2618
X7.0472Y-4.2717
X7.5984Y-1.8406
T8
X4.2913Y-2.3031
X4.2913Y-3.0906
X4.2913Y-3.878
X4.2913Y-4.6654
X5.0787Y-2.3031
X5.0787Y-3.0906
X5.0787Y-3.878
X5.0787Y-4.6654
X5.8661Y-2.3031
X5.8661Y-3.0906
X5.8661Y-3.878
X5.8661Y-4.6654
X6.6535Y-2.3031
X6.6535Y-3.0906
X6.6535Y-3.878
X6.6535Y-4.6654
X7.4409Y-2.3031
X7.4409Y-3.0906
X7.4409Y-3.878
X7.4409Y-4.6654
T7
G00X4.2913Y-2.1171
M15
G01X4.2913Y-2.0364
M16
G05
G00X4.2913Y-2.8238
M15
G01X4.2913Y-2.9045
M16
G05
G00X4.2913Y-3.6919
M15
G01X4.2913Y-3.6112
M16
G05
G00X4.2913Y-4.3986
M15
G01X4.2913Y-4.4793
M16
G05
G00X4.3937Y-1.501
M15
G01X4.3937Y-1.5817
M16
G05
G00X5.0787Y-2.1171
M15
G01X5.0787Y-2.0364
M16
G05
G00X5.0787Y-2.8238
M15
G01X5.0787Y-2.9045
M16
G05
G00X5.0787Y-3.6919
M15
G01X5.0787Y-3.6112
M16
G05
G00X5.0787Y-4.3986
M15
G01X5.0787Y-4.4793
M16
G05
G00X5.8661Y-2.1171
M15
G01X5.8661Y-2.0364
M16
G05
G00X5.8661Y-2.8238
M15
G01X5.8661Y-2.9045
M16
G05
G00X5.8661Y-3.6919
M15
G01X5.8661Y-3.6112
M16
G05
G00X5.8661Y-4.3986
M15
G01X5.8661Y-4.4793
M16
G05
G00X6.6535Y-2.1171
M15
G01X6.6535Y-2.0364
M16
G05
G00X6.6535Y-2.8238
M15
G01X6.6535Y-2.9045
M16
G05
G00X6.6535Y-3.6919
M15
G01X6.6535Y-3.6112
M16
G05
G00X6.6535Y-4.3986
M15
G01X6.6535Y-4.4793
M16
G05
G00X7.4409Y-2.1171
M15
G01X7.4409Y-2.0364
M16
G05
G00X7.4409Y-2.8238
M15
G01X7.4409Y-2.9045
M16
G05
G00X7.4409Y-3.6919
M15
G01X7.4409Y-3.6112
M16
G05
G00X7.4409Y-4.3986
M15
G01X7.4409Y-4.4793
M16
G05
T0
M30
