G04 #@! TF.GenerationSoftware,KiCad,Pcbnew,(5.1.9)-1*
G04 #@! TF.CreationDate,2021-02-04T21:44:10+01:00*
G04 #@! TF.ProjectId,Makrokeyboard,4d616b72-6f6b-4657-9962-6f6172642e6b,rev?*
G04 #@! TF.SameCoordinates,Original*
G04 #@! TF.FileFunction,Paste,Bot*
G04 #@! TF.FilePolarity,Positive*
%FSLAX46Y46*%
G04 Gerber Fmt 4.6, Leading zero omitted, Abs format (unit mm)*
G04 Created by KiCad (PCBNEW (5.1.9)-1) date 2021-02-04 21:44:10*
%MOMM*%
%LPD*%
G01*
G04 APERTURE LIST*
%ADD10R,2.000000X0.850000*%
%ADD11R,0.900000X0.600000*%
%ADD12R,1.900000X1.100000*%
%ADD13R,2.180000X2.000000*%
%ADD14R,0.600000X2.000000*%
%ADD15R,0.300000X2.000000*%
%ADD16C,1.000000*%
%ADD17C,0.100000*%
%ADD18R,1.520000X1.600000*%
%ADD19R,1.780000X3.150000*%
%ADD20R,1.500000X1.000000*%
%ADD21R,1.600000X1.520000*%
G04 APERTURE END LIST*
D10*
X114600000Y-39915000D03*
X114600000Y-38385000D03*
X108600000Y-38385000D03*
X108600000Y-39915000D03*
D11*
X113000000Y-96750000D03*
X113000000Y-98250000D03*
X133000000Y-97000000D03*
X133000000Y-98500000D03*
X153000000Y-96750000D03*
X153000000Y-98250000D03*
X173000000Y-96750000D03*
X173000000Y-98250000D03*
X193000000Y-96750000D03*
X193000000Y-98250000D03*
D12*
X193850000Y-35100000D03*
X193850000Y-37400000D03*
X190150000Y-35100000D03*
X190150000Y-37400000D03*
D13*
X121090000Y-34100000D03*
X131310000Y-34100000D03*
X121090000Y-38030000D03*
X131310000Y-38030000D03*
D14*
X123000000Y-39300000D03*
X129400000Y-39300000D03*
X123800000Y-39300000D03*
X128600000Y-39300000D03*
D15*
X124450000Y-39300000D03*
X124950000Y-39300000D03*
X125450000Y-39300000D03*
X125950000Y-39300000D03*
X126450000Y-39300000D03*
X126950000Y-39300000D03*
X127450000Y-39300000D03*
X127950000Y-39300000D03*
D16*
X156800000Y-39850000D03*
X156800000Y-38050000D03*
X156800000Y-36250000D03*
X155000000Y-36250000D03*
X155000000Y-38050000D03*
X155000000Y-39850000D03*
D17*
G36*
X168509693Y-45866295D02*
G01*
X168226850Y-45583452D01*
X169994617Y-43815685D01*
X170277460Y-44098528D01*
X168509693Y-45866295D01*
G37*
G36*
X169075379Y-46431981D02*
G01*
X168792536Y-46149138D01*
X170560303Y-44381371D01*
X170843146Y-44664214D01*
X169075379Y-46431981D01*
G37*
G36*
X169641064Y-46997666D02*
G01*
X169358221Y-46714823D01*
X171125988Y-44947056D01*
X171408831Y-45229899D01*
X169641064Y-46997666D01*
G37*
G36*
X170206750Y-47563352D02*
G01*
X169923907Y-47280509D01*
X171691674Y-45512742D01*
X171974517Y-45795585D01*
X170206750Y-47563352D01*
G37*
G36*
X170772435Y-48129037D02*
G01*
X170489592Y-47846194D01*
X172257359Y-46078427D01*
X172540202Y-46361270D01*
X170772435Y-48129037D01*
G37*
G36*
X171903806Y-49260408D02*
G01*
X171620963Y-48977565D01*
X173388730Y-47209798D01*
X173671573Y-47492641D01*
X171903806Y-49260408D01*
G37*
G36*
X171338121Y-48694722D02*
G01*
X171055278Y-48411879D01*
X172823045Y-46644112D01*
X173105888Y-46926955D01*
X171338121Y-48694722D01*
G37*
G36*
X172469491Y-49826093D02*
G01*
X172186648Y-49543250D01*
X173954415Y-47775483D01*
X174237258Y-48058326D01*
X172469491Y-49826093D01*
G37*
G36*
X173035177Y-50391779D02*
G01*
X172752334Y-50108936D01*
X174520101Y-48341169D01*
X174802944Y-48624012D01*
X173035177Y-50391779D01*
G37*
G36*
X173600862Y-50957464D02*
G01*
X173318019Y-50674621D01*
X175085786Y-48906854D01*
X175368629Y-49189697D01*
X173600862Y-50957464D01*
G37*
G36*
X174166548Y-51523150D02*
G01*
X173883705Y-51240307D01*
X175651472Y-49472540D01*
X175934315Y-49755383D01*
X174166548Y-51523150D01*
G37*
G36*
X179681981Y-50674621D02*
G01*
X179399138Y-50957464D01*
X177631371Y-49189697D01*
X177914214Y-48906854D01*
X179681981Y-50674621D01*
G37*
G36*
X179116295Y-51240307D02*
G01*
X178833452Y-51523150D01*
X177065685Y-49755383D01*
X177348528Y-49472540D01*
X179116295Y-51240307D01*
G37*
G36*
X180247666Y-50108936D02*
G01*
X179964823Y-50391779D01*
X178197056Y-48624012D01*
X178479899Y-48341169D01*
X180247666Y-50108936D01*
G37*
G36*
X180813352Y-49543250D02*
G01*
X180530509Y-49826093D01*
X178762742Y-48058326D01*
X179045585Y-47775483D01*
X180813352Y-49543250D01*
G37*
G36*
X181379037Y-48977565D02*
G01*
X181096194Y-49260408D01*
X179328427Y-47492641D01*
X179611270Y-47209798D01*
X181379037Y-48977565D01*
G37*
G36*
X181944722Y-48411879D02*
G01*
X181661879Y-48694722D01*
X179894112Y-46926955D01*
X180176955Y-46644112D01*
X181944722Y-48411879D01*
G37*
G36*
X182510408Y-47846194D02*
G01*
X182227565Y-48129037D01*
X180459798Y-46361270D01*
X180742641Y-46078427D01*
X182510408Y-47846194D01*
G37*
G36*
X183076093Y-47280509D02*
G01*
X182793250Y-47563352D01*
X181025483Y-45795585D01*
X181308326Y-45512742D01*
X183076093Y-47280509D01*
G37*
G36*
X183641779Y-46714823D02*
G01*
X183358936Y-46997666D01*
X181591169Y-45229899D01*
X181874012Y-44947056D01*
X183641779Y-46714823D01*
G37*
G36*
X184207464Y-46149138D02*
G01*
X183924621Y-46431981D01*
X182156854Y-44664214D01*
X182439697Y-44381371D01*
X184207464Y-46149138D01*
G37*
G36*
X184773150Y-45583452D02*
G01*
X184490307Y-45866295D01*
X182722540Y-44098528D01*
X183005383Y-43815685D01*
X184773150Y-45583452D01*
G37*
G36*
X184490307Y-40633705D02*
G01*
X184773150Y-40916548D01*
X183005383Y-42684315D01*
X182722540Y-42401472D01*
X184490307Y-40633705D01*
G37*
G36*
X183924621Y-40068019D02*
G01*
X184207464Y-40350862D01*
X182439697Y-42118629D01*
X182156854Y-41835786D01*
X183924621Y-40068019D01*
G37*
G36*
X183358936Y-39502334D02*
G01*
X183641779Y-39785177D01*
X181874012Y-41552944D01*
X181591169Y-41270101D01*
X183358936Y-39502334D01*
G37*
G36*
X182793250Y-38936648D02*
G01*
X183076093Y-39219491D01*
X181308326Y-40987258D01*
X181025483Y-40704415D01*
X182793250Y-38936648D01*
G37*
G36*
X182227565Y-38370963D02*
G01*
X182510408Y-38653806D01*
X180742641Y-40421573D01*
X180459798Y-40138730D01*
X182227565Y-38370963D01*
G37*
G36*
X181661879Y-37805278D02*
G01*
X181944722Y-38088121D01*
X180176955Y-39855888D01*
X179894112Y-39573045D01*
X181661879Y-37805278D01*
G37*
G36*
X181096194Y-37239592D02*
G01*
X181379037Y-37522435D01*
X179611270Y-39290202D01*
X179328427Y-39007359D01*
X181096194Y-37239592D01*
G37*
G36*
X180530509Y-36673907D02*
G01*
X180813352Y-36956750D01*
X179045585Y-38724517D01*
X178762742Y-38441674D01*
X180530509Y-36673907D01*
G37*
G36*
X179964823Y-36108221D02*
G01*
X180247666Y-36391064D01*
X178479899Y-38158831D01*
X178197056Y-37875988D01*
X179964823Y-36108221D01*
G37*
G36*
X179399138Y-35542536D02*
G01*
X179681981Y-35825379D01*
X177914214Y-37593146D01*
X177631371Y-37310303D01*
X179399138Y-35542536D01*
G37*
G36*
X178833452Y-34976850D02*
G01*
X179116295Y-35259693D01*
X177348528Y-37027460D01*
X177065685Y-36744617D01*
X178833452Y-34976850D01*
G37*
G36*
X173883705Y-35259693D02*
G01*
X174166548Y-34976850D01*
X175934315Y-36744617D01*
X175651472Y-37027460D01*
X173883705Y-35259693D01*
G37*
G36*
X173318019Y-35825379D02*
G01*
X173600862Y-35542536D01*
X175368629Y-37310303D01*
X175085786Y-37593146D01*
X173318019Y-35825379D01*
G37*
G36*
X172752334Y-36391064D02*
G01*
X173035177Y-36108221D01*
X174802944Y-37875988D01*
X174520101Y-38158831D01*
X172752334Y-36391064D01*
G37*
G36*
X172186648Y-36956750D02*
G01*
X172469491Y-36673907D01*
X174237258Y-38441674D01*
X173954415Y-38724517D01*
X172186648Y-36956750D01*
G37*
G36*
X171620963Y-37522435D02*
G01*
X171903806Y-37239592D01*
X173671573Y-39007359D01*
X173388730Y-39290202D01*
X171620963Y-37522435D01*
G37*
G36*
X171055278Y-38088121D02*
G01*
X171338121Y-37805278D01*
X173105888Y-39573045D01*
X172823045Y-39855888D01*
X171055278Y-38088121D01*
G37*
G36*
X170489592Y-38653806D02*
G01*
X170772435Y-38370963D01*
X172540202Y-40138730D01*
X172257359Y-40421573D01*
X170489592Y-38653806D01*
G37*
G36*
X169923907Y-39219491D02*
G01*
X170206750Y-38936648D01*
X171974517Y-40704415D01*
X171691674Y-40987258D01*
X169923907Y-39219491D01*
G37*
G36*
X169358221Y-39785177D02*
G01*
X169641064Y-39502334D01*
X171408831Y-41270101D01*
X171125988Y-41552944D01*
X169358221Y-39785177D01*
G37*
G36*
X168792536Y-40350862D02*
G01*
X169075379Y-40068019D01*
X170843146Y-41835786D01*
X170560303Y-42118629D01*
X168792536Y-40350862D01*
G37*
G36*
X168226850Y-40916548D02*
G01*
X168509693Y-40633705D01*
X170277460Y-42401472D01*
X169994617Y-42684315D01*
X168226850Y-40916548D01*
G37*
D18*
X137070000Y-46000000D03*
X140500000Y-46000000D03*
D17*
G36*
X179939340Y-33825736D02*
G01*
X180575736Y-33189340D01*
X181000000Y-33613604D01*
X180363604Y-34250000D01*
X179939340Y-33825736D01*
G37*
G36*
X181000000Y-34886396D02*
G01*
X181636396Y-34250000D01*
X182060660Y-34674264D01*
X181424264Y-35310660D01*
X181000000Y-34886396D01*
G37*
D18*
X130815000Y-43000000D03*
X127385000Y-43000000D03*
X130815000Y-45250000D03*
X127385000Y-45250000D03*
D10*
X186000000Y-51985000D03*
X186000000Y-53515000D03*
X192000000Y-53515000D03*
X192000000Y-51985000D03*
X186000000Y-91985000D03*
X186000000Y-93515000D03*
X192000000Y-93515000D03*
X192000000Y-91985000D03*
X166000000Y-51985000D03*
X166000000Y-53515000D03*
X172000000Y-53515000D03*
X172000000Y-51985000D03*
X166000000Y-91985000D03*
X166000000Y-93515000D03*
X172000000Y-93515000D03*
X172000000Y-91985000D03*
X146000000Y-51985000D03*
X146000000Y-53515000D03*
X152000000Y-53515000D03*
X152000000Y-51985000D03*
X146000000Y-91985000D03*
X146000000Y-93515000D03*
X152000000Y-93515000D03*
X152000000Y-91985000D03*
X126000000Y-51985000D03*
X126000000Y-53515000D03*
X132000000Y-53515000D03*
X132000000Y-51985000D03*
X126000000Y-91985000D03*
X126000000Y-93515000D03*
X132000000Y-93515000D03*
X132000000Y-91985000D03*
X106000000Y-51985000D03*
X106000000Y-53515000D03*
X112000000Y-53515000D03*
X112000000Y-51985000D03*
X106000000Y-91985000D03*
X106000000Y-93515000D03*
X112000000Y-93515000D03*
X112000000Y-91985000D03*
X112000000Y-73515000D03*
X112000000Y-71985000D03*
X106000000Y-71985000D03*
X106000000Y-73515000D03*
X112000000Y-113515000D03*
X112000000Y-111985000D03*
X106000000Y-111985000D03*
X106000000Y-113515000D03*
X132000000Y-73515000D03*
X132000000Y-71985000D03*
X126000000Y-71985000D03*
X126000000Y-73515000D03*
X132000000Y-113515000D03*
X132000000Y-111985000D03*
X126000000Y-111985000D03*
X126000000Y-113515000D03*
X152000000Y-73515000D03*
X152000000Y-71985000D03*
X146000000Y-71985000D03*
X146000000Y-73515000D03*
X152000000Y-113515000D03*
X152000000Y-111985000D03*
X146000000Y-111985000D03*
X146000000Y-113515000D03*
X172000000Y-73515000D03*
X172000000Y-71985000D03*
X166000000Y-71985000D03*
X166000000Y-73515000D03*
X172000000Y-113515000D03*
X172000000Y-111985000D03*
X166000000Y-111985000D03*
X166000000Y-113515000D03*
X192000000Y-73515000D03*
X192000000Y-71985000D03*
X186000000Y-71985000D03*
X186000000Y-73515000D03*
X192000000Y-113515000D03*
X192000000Y-111985000D03*
X186000000Y-111985000D03*
X186000000Y-113515000D03*
D19*
X133685000Y-41550000D03*
X138915000Y-41550000D03*
D20*
X111500000Y-65000000D03*
X111500000Y-67000000D03*
X111500000Y-85000000D03*
X111500000Y-87000000D03*
X111500000Y-105000000D03*
X111500000Y-107000000D03*
X111500000Y-125000000D03*
X111500000Y-127000000D03*
X131500000Y-65000000D03*
X131500000Y-67000000D03*
X131500000Y-85000000D03*
X131500000Y-87000000D03*
X131500000Y-105000000D03*
X131500000Y-107000000D03*
X131500000Y-125000000D03*
X131500000Y-127000000D03*
X151500000Y-65000000D03*
X151500000Y-67000000D03*
X151500000Y-85000000D03*
X151500000Y-87000000D03*
X151500000Y-105000000D03*
X151500000Y-107000000D03*
X151500000Y-125000000D03*
X151500000Y-127000000D03*
X171500000Y-65000000D03*
X171500000Y-67000000D03*
X171500000Y-85000000D03*
X171500000Y-87000000D03*
X171500000Y-105000000D03*
X171500000Y-107000000D03*
X171500000Y-125000000D03*
X171500000Y-127000000D03*
X191500000Y-65000000D03*
X191500000Y-67000000D03*
X191500000Y-85000000D03*
X191500000Y-87000000D03*
X191500000Y-105000000D03*
X191500000Y-107000000D03*
X190000000Y-125000000D03*
X190000000Y-127000000D03*
D21*
X116000000Y-102215000D03*
X116000000Y-98785000D03*
X136000000Y-102215000D03*
X136000000Y-98785000D03*
X156000000Y-102215000D03*
X156000000Y-98785000D03*
X176000000Y-102215000D03*
X176000000Y-98785000D03*
X196000000Y-102215000D03*
X196000000Y-98785000D03*
D18*
X195215000Y-40750000D03*
X191785000Y-40750000D03*
D21*
X187000000Y-37465000D03*
X187000000Y-34035000D03*
D18*
X138815000Y-37950000D03*
X135385000Y-37950000D03*
D21*
X166000000Y-40965000D03*
X166000000Y-37535000D03*
X166000000Y-43035000D03*
X166000000Y-46465000D03*
M02*
